<?xml version="1.0" encoding="UTF-8"?>
<svg width="1200pt" height="1200pt" fill="#5d69ff" viewBox="0 0 1200 1200" version="1.1" xmlns="http://www.w3.org/2000/svg">
 <path d="m923.65 678.28c11.746-4.8594 21.613-8.2305 22.559-8.5547 39.469-13.633 65.09-35.652 78.238-67.32 13.129-31.598 10.402-67.414-7.8477-103.64-0.51562-1.0195-1.1523-2.2422-1.8828-3.6484-5.3984-10.402-19.777-38.062-19.777-60.395 0-20.184 8.6055-37.668 18.574-57.887 1.1289-2.2695 2.2422-4.5469 3.3477-6.8047 17.977-37.055 20.543-71.688 7.6328-102.93-13.246-31.906-39.961-54.695-79.414-67.766-20.438-6.7695-45.863-15.227-59.41-29.27-15.348-15.961-20.977-32.641-28.078-53.734-0.74219-2.2578-1.5117-4.5117-2.2695-6.7695l-0.011719-0.046875-0.058594-0.14453-0.046875-0.14453c-12.445-38.555-35.82-65.902-67.645-79.117-13.199-5.4492-27.121-8.207-41.426-8.207-20.016 0-40.934 5.4492-62.16 16.188-20.004 10.105-42.707 21.574-63.898 21.574-20.316 0-42.73-10.355-61.957-20.508-21.742-11.473-43.297-17.281-64.043-17.281-14.387 0-28.402 2.7617-41.652 8.2578-31.57 13.055-54.266 39.469-67.465 78.527-0.60156 1.7422-1.2617 3.7344-1.9453 5.8828-5.0898 15.625-12.781 39.238-28.453 55.246-13.691 13.945-35.41 21.289-54.602 27.77-2.1484 0.74219-4.2461 1.4414-6.2656 2.1484-39.48 13.645-65.062 35.664-78.238 67.32-13.188 31.801-9.9492 71.027 8.6758 104.96 13.391 24.469 20.93 42.395 20.93 61.754 0 19.332-8.5312 38.293-18.816 59.258-1.0547 2.1484-2.1133 4.2852-3.168 6.4453-17.988 37.008-20.566 71.629-7.6797 102.9 11.773 28.355 34.246 49.488 66.77 63.035l-159.65 353.52 211.69 1.2461 140.89 157.98 124.13-274.85 125.82 274.71 140.75-157.82 211.68-1.2461zm-666.38-93.242c-10.008-24.254-1.8359-48.527 6.5625-65.785 12.254-25.246 25.922-50.09 26.438-84.527h-0.058593 0.085937c0.79297-33.625-20.184-73.105-26.449-84.539-11.664-21.254-14.617-46.344-6.5742-65.746 9.0977-21.816 27.898-33.84 51.156-41.867 23.27-8.0039 55.246-17.375 78.48-41.062 25.656-26.184 35.352-61.777 40.969-78.348 8.8672-26.293 22.441-43.129 41.82-51.133 8.207-3.4062 16.367-4.8008 24.324-4.8008 15.551 0 30.277 5.3867 42.898 12.059 22.488 11.832 51.84 25.727 83.102 25.727 31.234 0 59.723-13.992 84.336-26.438 14.93-7.5469 28.777-11.281 41.723-11.281 8.3867 0 16.402 1.5859 24.059 4.7383 24.215 10.043 36.133 33.359 41.867 51.145l0.16797 0.60156c8.8789 25.883 16.129 52.164 40.801 77.773 20.629 21.406 50.746 31.895 77.762 40.848 27.012 8.9648 43.754 22.668 51.805 42.059 10.02 24.238 1.8594 48.516-6.5391 65.785-12.266 25.246-26.461 50.844-26.461 84.527 0 36.445 21.254 74.027 26.531 84.445 11.879 23.566 14.52 46.441 6.4688 65.832-9.0703 21.816-27.898 33.84-51.145 41.867-23.258 8.0039-55.246 17.375-78.457 41.074-25.68 26.184-35.375 61.777-40.969 78.348-8.9023 26.27-22.441 43.117-41.844 51.145-8.207 3.3711-16.355 4.7773-24.324 4.7773-15.551 0-30.254-5.3867-42.875-12.047-22.488-11.855-51.863-25.754-83.102-25.754-31.246 0-59.746 14.004-84.359 26.449-14.902 7.5469-28.766 11.281-41.711 11.281-8.3867 0-16.402-1.5977-24.059-4.7539-24.215-10.055-36.145-33.336-41.867-51.145l-0.19141-0.58984c-8.8789-25.871-16.105-52.164-40.777-77.773-20.641-21.406-50.762-31.895-77.773-40.836-26.992-8.9688-43.746-22.676-51.82-42.055zm205.21 510.83-107.87-120.91-162.09-0.98438 132.31-292.93c11.473 4.9062 22.141 10.812 29.387 18.336 15.348 15.938 20.953 32.605 28.043 53.652 0.76953 2.3164 1.5586 4.6094 2.3281 6.8984l0.035156 0.13281c12.492 38.746 35.879 66.07 67.727 79.262 13.199 5.4375 27.109 8.207 41.426 8.207 20.016 0 40.922-5.4375 62.148-16.199 10.402-5.2578 21.539-10.848 32.797-15.047zm382.89-120.91-108.01 121.08-113.4-247.59 16.117-35.688c14.258 3.7695 28.738 10.668 41.746 17.508 21.77 11.461 43.309 17.281 64.02 17.281 14.387 0 28.402-2.7734 41.664-8.2578 31.559-13.031 54.254-39.445 67.477-78.492 0.57422-1.7539 14.004-42.961 29.207-59.809l123.29 272.96z"/>
</svg>
