<svg width="100" height="100" viewBox="0 0 100 100" fill="none" xmlns="http://www.w3.org/2000/svg">
<g clip-path="url(#clip0)">
<path d="M75.5208 30.4477C73.6979 29.2537 71.3542 29.2537 69.2708 30.4477L54.6875 40.2984L44.7917 46.5671L30.4687 56.4178C28.6458 57.6119 26.3021 57.6119 24.2187 56.4178L13.0208 48.6566C11.1979 47.4626 9.89583 45.0745 9.89583 42.388V27.4626C9.89583 25.0745 10.9375 22.6865 13.0208 21.194L24.2187 13.7313C26.0417 12.5372 28.3854 12.5372 30.4687 13.7313L41.6667 21.4925C43.4896 22.6865 44.7917 25.0746 44.7917 27.7611V37.6119L54.6875 31.0447V20.8954C54.6875 18.5074 53.6458 16.1193 51.5625 14.6268L30.7292 0.596938C28.9062 -0.597091 26.5625 -0.597091 24.4792 0.596938L3.125 14.9253C1.04167 16.1193 0 18.5074 0 20.8954V48.9551C0 51.3432 1.04167 53.7313 3.125 55.2238L24.2187 69.2537C26.0417 70.4477 28.3854 70.4477 30.4687 69.2537L44.7917 59.7014L54.6875 53.1342L69.0104 43.582C70.8333 42.388 73.1771 42.388 75.2604 43.582L86.4583 51.0447C88.2812 52.2387 89.5833 54.6268 89.5833 57.3134V72.2387C89.5833 74.6268 88.5417 77.0148 86.4583 78.5074L75.5208 85.9701C73.6979 87.1641 71.3542 87.1641 69.2708 85.9701L58.0729 78.5074C56.25 77.3134 54.9479 74.9253 54.9479 72.2387V62.6865L45.0521 69.2537V79.1044C45.0521 81.4925 46.0937 83.8805 48.1771 85.3731L69.2708 99.4029C71.0937 100.597 73.4375 100.597 75.5208 99.4029L96.6146 85.3731C98.4375 84.179 99.7396 81.791 99.7396 79.1044V50.7462C99.7396 48.3581 98.6979 45.9701 96.6146 44.4775L75.5208 30.4477Z" fill="#8247E5"/>
</g>
<defs>
<clipPath id="clip0">
<rect width="100" height="100" fill="white"/>
</clipPath>
</defs>
</svg>
