<?xml version="1.0" encoding="UTF-8" standalone="no"?>
<svg
   xmlns:dc="http://purl.org/dc/elements/1.1/"
   xmlns:cc="http://creativecommons.org/ns#"
   xmlns:rdf="http://www.w3.org/1999/02/22-rdf-syntax-ns#"
   xmlns:svg="http://www.w3.org/2000/svg"
   xmlns="http://www.w3.org/2000/svg"
   xmlns:sodipodi="http://sodipodi.sourceforge.net/DTD/sodipodi-0.dtd"
   xmlns:inkscape="http://www.inkscape.org/namespaces/inkscape"
   width="22"
   height="22"
   viewBox="0 0 22 22"
   fill="none"
   version="1.1"
   id="svg13"
   sodipodi:docname="add.65e763e7.svg"
   inkscape:version="0.92.3 (2405546, 2018-03-11)">
  <metadata
     id="metadata19">
    <rdf:RDF>
      <cc:Work
         rdf:about="">
        <dc:format>image/svg+xml</dc:format>
        <dc:type
           rdf:resource="http://purl.org/dc/dcmitype/StillImage" />
      </cc:Work>
    </rdf:RDF>
  </metadata>
  <defs
     id="defs17" />
  <sodipodi:namedview
     pagecolor="#ffffff"
     bordercolor="#666666"
     borderopacity="1"
     objecttolerance="10"
     gridtolerance="10"
     guidetolerance="10"
     inkscape:pageopacity="0"
     inkscape:pageshadow="2"
     inkscape:window-width="2560"
     inkscape:window-height="1304"
     id="namedview15"
     showgrid="false"
     inkscape:zoom="10.727273"
     inkscape:cx="11"
     inkscape:cy="11"
     inkscape:window-x="0"
     inkscape:window-y="30"
     inkscape:window-maximized="1"
     inkscape:current-layer="svg13" />
  <mask
     id="path-1-outside-1"
     maskUnits="userSpaceOnUse"
     x="3.9295"
     y="4.08383"
     width="14.1421"
     height="14.1421"
     fill="black">
    <rect
       fill="white"
       x="3.9295"
       y="4.08383"
       width="14.1421"
       height="14.1421"
       id="rect2" />
    <path
       fill-rule="evenodd"
       clip-rule="evenodd"
       d="M11.8154 10.1841L11.8154 6.31285L10.1858 6.31285V10.1841L6.3148 10.1841L6.3148 11.8137H10.1858L10.1858 15.6831H11.8154L11.8154 11.8137L15.685 11.8137L15.685 10.1841L11.8154 10.1841Z"
       id="path4" />
  </mask>
  <path
     d="M11.8154 6.31285L12.0578 6.31285L12.0578 6.07041L11.8154 6.07041L11.8154 6.31285ZM11.8154 10.1841H11.5729L11.5729 10.4266H11.8154L11.8154 10.1841ZM10.1858 6.31285L10.1858 6.07041L9.94333 6.07041L9.94333 6.31285L10.1858 6.31285ZM10.1858 10.1841V10.4266L10.4282 10.4266V10.1841L10.1858 10.1841ZM6.3148 10.1841L6.3148 9.94169L6.07237 9.94169L6.07237 10.1841L6.3148 10.1841ZM6.3148 11.8137L6.07237 11.8137L6.07237 12.0562L6.3148 12.0562V11.8137ZM10.1858 11.8137L10.4282 11.8137L10.4282 11.5713H10.1858V11.8137ZM10.1858 15.6831H9.94333V15.9255H10.1858V15.6831ZM11.8154 15.6831V15.9255H12.0578V15.6831H11.8154ZM11.8154 11.8137V11.5713H11.5729L11.5729 11.8137L11.8154 11.8137ZM15.685 11.8137L15.685 12.0562L15.9275 12.0562L15.9275 11.8137H15.685ZM15.685 10.1841L15.9275 10.1841L15.9275 9.94169L15.685 9.94169L15.685 10.1841ZM11.5729 6.31285L11.5729 10.1841L12.0578 10.1841L12.0578 6.31285L11.5729 6.31285ZM10.1858 6.55528L11.8154 6.55528V6.07041L10.1858 6.07041L10.1858 6.55528ZM10.4282 10.1841L10.4282 6.31285L9.94333 6.31285L9.94333 10.1841H10.4282ZM6.3148 10.4266L10.1858 10.4266V9.94169L6.3148 9.94169L6.3148 10.4266ZM6.55724 11.8137L6.55724 10.1841L6.07237 10.1841L6.07237 11.8137L6.55724 11.8137ZM10.1858 11.5713L6.3148 11.5713L6.3148 12.0562L10.1858 12.0562L10.1858 11.5713ZM10.4282 15.6831V11.8137L9.94333 11.8137L9.94333 15.6831H10.4282ZM11.8154 15.4406H10.1858V15.9255H11.8154V15.4406ZM11.5729 11.8137L11.5729 15.6831H12.0578L12.0578 11.8137L11.5729 11.8137ZM15.685 11.5713L11.8154 11.5713L11.8154 12.0562L15.685 12.0562L15.685 11.5713ZM15.4426 10.1841L15.4426 11.8137L15.9275 11.8137L15.9275 10.1841L15.4426 10.1841ZM11.8154 10.4266L15.685 10.4266L15.685 9.94169L11.8154 9.94169L11.8154 10.4266Z"
     fill="#6CF4D5"
     mask="url(#path-1-outside-1)"
     id="path9"
     style="fill:#fc5090;fill-opacity:1" />
  <path
     fill-rule="evenodd"
     clip-rule="evenodd"
     d="M11.8154 10.1841L11.8154 6.31285L10.1858 6.31285V10.1841L6.3148 10.1841L6.3148 11.8137H10.1858L10.1858 15.6831H11.8154L11.8154 11.8137L15.685 11.8137L15.685 10.1841L11.8154 10.1841Z"
     fill="#6CF4D5"
     id="path7"
     style="fill:#fc5090;fill-opacity:1" />
  <circle
     cx="11"
     cy="11"
     r="8.99035"
     transform="rotate(45 11 11)"
     stroke="#6CF4D5"
     stroke-width="2.42435"
     id="circle11"
     style="stroke:#fc5090;stroke-opacity:1" />
</svg>
