<?xml version="1.0" encoding="UTF-8" standalone="no"?>
<svg
   xmlns:dc="http://purl.org/dc/elements/1.1/"
   xmlns:cc="http://creativecommons.org/ns#"
   xmlns:rdf="http://www.w3.org/1999/02/22-rdf-syntax-ns#"
   xmlns:svg="http://www.w3.org/2000/svg"
   xmlns="http://www.w3.org/2000/svg"
   xmlns:sodipodi="http://sodipodi.sourceforge.net/DTD/sodipodi-0.dtd"
   xmlns:inkscape="http://www.inkscape.org/namespaces/inkscape"
   version="1.1"
   id="svg2"
   width="26.552446"
   height="26.55353"
   viewBox="0 0 26.552446 26.55353"
   sodipodi:docname="add.svg"
   inkscape:version="1.0.1 (3bc2e813f5, 2020-09-07)">
  <metadata
     id="metadata8">
    <rdf:RDF>
      <cc:Work
         rdf:about="">
        <dc:format>image/svg+xml</dc:format>
        <dc:type
           rdf:resource="http://purl.org/dc/dcmitype/StillImage" />
        <dc:title />
      </cc:Work>
    </rdf:RDF>
  </metadata>
  <defs
     id="defs6" />
  <sodipodi:namedview
     pagecolor="#ffffff"
     bordercolor="#666666"
     borderopacity="1"
     objecttolerance="10"
     gridtolerance="10"
     guidetolerance="10"
     inkscape:pageopacity="0"
     inkscape:pageshadow="2"
     inkscape:window-width="1920"
     inkscape:window-height="1017"
     id="namedview4"
     showgrid="false"
     inkscape:zoom="6.7578949"
     inkscape:cx="15.092543"
     inkscape:cy="19.937917"
     inkscape:window-x="0"
     inkscape:window-y="27"
     inkscape:window-maximized="1"
     inkscape:current-layer="g10"
     inkscape:document-rotation="0" />
  <g
     inkscape:groupmode="layer"
     inkscape:label="Image"
     id="g10"
     transform="translate(-13.596374,-17.5209)">
    <path
       style="fill:#6cf4d5;fill-opacity:1;stroke-width:0.666667"
       d="m 26.815487,44.07443 c -1.455304,0 -4.011084,-0.781871 -6.067642,-1.85623 -2.891054,-1.510304 -3.91096,-2.53528 -5.472796,-5.5 -1.640862,-3.114728 -1.867882,-4.162444 -1.563596,-7.216138 0.220506,-2.212925 0.988618,-4.528367 2.018456,-6.084557 0.914368,-1.381704 2.72726,-3.170254 4.028648,-3.974556 1.301388,-0.804302 3.946583,-1.619752 5.878212,-1.812111 2.983637,-0.297121 4.060283,-0.06093 7.155821,1.569822 2.964719,1.561835 3.989696,2.581742 5.5,5.472795 1.074359,2.056558 1.85623,4.612338 1.85623,6.067642 0,1.455304 -0.781871,4.011084 -1.85623,6.067642 -1.502681,2.876459 -2.533002,3.906781 -5.409461,5.409461 -2.056558,1.074359 -4.612338,1.85623 -6.067642,1.85623 z m -0.328932,-3.390635 c 0.369087,0.03151 1.696504,-0.236789 2.949815,-0.596234 1.253311,-0.359445 3.131115,-1.470157 4.172898,-2.468247 1.041783,-0.998092 2.200929,-2.954 2.575881,-4.346464 0.469141,-1.742259 0.462926,-3.344327 -0.01993,-5.137521 -0.416776,-1.54779 -1.639465,-3.429173 -3.011442,-4.633784 -1.27038,-1.115409 -3.346642,-2.222532 -4.613916,-2.460274 -1.267274,-0.237742 -3.358692,-0.08422 -4.647597,0.341154 -1.288905,0.425378 -3.243661,1.798682 -4.343903,3.051789 -1.100243,1.253107 -2.194957,3.315236 -2.432699,4.58251 -0.237742,1.267274 -0.0956,3.324205 0.315861,4.570957 0.411465,1.246752 1.597481,3.080563 2.63559,4.075135 1.03811,0.994571 2.756175,2.068269 3.817923,2.385994 1.061749,0.317726 2.232433,0.603469 2.601519,0.634985 z m 0.328932,-3.276031 c -1.111112,0 -1.333334,-0.444445 -1.333334,-2.666667 v -2.666666 h -2.666666 c -2.222222,0 -2.666667,-0.222222 -2.666667,-1.333334 0,-1.111111 0.444445,-1.333333 2.666667,-1.333333 h 2.666666 v -2.666667 c 0,-2.222222 0.222222,-2.666666 1.333334,-2.666666 1.111111,0 1.333333,0.444444 1.333333,2.666666 v 2.666667 h 2.666667 c 2.222222,0 2.666666,0.222222 2.666666,1.333333 0,1.111112 -0.444444,1.333334 -2.666666,1.333334 H 28.14882 v 2.666666 c 0,2.222222 -0.222222,2.666667 -1.333333,2.666667 z"
       id="path859" />
  </g>
</svg>
