<svg width="100" height="100" viewBox="0 0 100 100" fill="none" xmlns="http://www.w3.org/2000/svg">
<path d="M60.8033 45.8171L68.1469 33.3567L87.9409 64.1865L87.9502 70.1014L87.8854 29.3881C87.8623 28.897 87.7214 28.4187 87.4746 27.9935C87.2277 27.5683 86.8822 27.2088 86.4672 26.9452L50.8307 6.4478C50.405 6.2455 49.9391 6.14161 49.4678 6.14383C48.9964 6.14605 48.5316 6.25433 48.1078 6.46063C47.9978 6.51577 47.8912 6.5774 47.7885 6.6452L47.6645 6.72359L13.0727 26.7685L12.938 26.829C12.7588 26.9121 12.5877 27.0118 12.4271 27.1269C11.7783 27.5902 11.3362 28.2885 11.1949 29.0731C11.1733 29.1921 11.1586 29.3123 11.1508 29.433L11.2049 62.6102L29.6421 34.0337C31.9631 30.2447 37.0207 29.0239 41.7155 29.0902L47.2255 29.2327L14.7581 81.3004L18.5856 83.5038L51.4422 29.2848L65.9649 29.232L33.1931 84.8172L46.8514 92.6775L48.4833 93.616C49.1873 93.8958 49.9687 93.9112 50.6832 93.6595L86.8207 72.7174L79.9082 76.721L60.8033 45.8171ZM63.6053 86.1712L49.8117 64.5222L58.2314 50.2347L76.3465 78.7869L63.6053 86.1712Z" fill="#2D374B"/>
<path d="M49.8116 64.5221L63.6053 86.1704L76.3471 78.7862L58.2328 50.2346L49.8116 64.5221Z" fill="#28A0F0"/>
<path d="M87.9522 70.1021L87.943 64.1872L68.149 33.3574L60.801 45.8163L79.9095 76.7203L86.822 72.7167C87.1567 72.4454 87.4304 72.1066 87.6252 71.7224C87.8201 71.3382 87.9318 70.9172 87.953 70.4869L87.9522 70.1021Z" fill="#28A0F0"/>
<path d="M5.00354 75.6818L14.7602 81.3038L47.2276 29.2361L41.7175 29.0936C37.0227 29.0273 31.9652 30.2473 29.6442 34.0371L11.207 62.6136L5.00711 72.1436V75.6847L5.00354 75.6818Z" fill="white"/>
<path d="M65.9663 29.2356L51.4443 29.2883L18.5878 83.5074L30.0718 90.1199L33.1945 84.8229L65.9663 29.2356Z" fill="white"/>
<path d="M94.0695 29.1608C94.003 27.6621 93.573 26.202 92.8166 24.9065C92.0602 23.611 91 22.519 89.7275 21.7245L53.6242 0.962689C52.3354 0.329336 50.9184 0 49.4824 0C48.0463 0 46.6294 0.329336 45.3406 0.962689C45.0391 1.11448 10.2307 21.3026 10.2307 21.3026C9.74708 21.5348 9.28451 21.8085 8.8482 22.1207C7.71795 22.9244 6.78452 23.9738 6.11802 25.1901C5.45152 26.4063 5.06927 27.7578 5 29.1429V72.1416L11.1999 62.6116L11.1521 29.4358C11.1811 28.981 11.3107 28.5382 11.5314 28.1395C11.7521 27.7407 12.0584 27.3959 12.4285 27.1298C12.5924 27.0122 47.9951 6.51978 48.1077 6.46348C48.5315 6.25718 48.9964 6.14891 49.4677 6.14669C49.9391 6.14447 50.4049 6.24836 50.8307 6.45066L86.4672 26.9495C86.8822 27.213 87.2277 27.5726 87.4745 27.9978C87.7213 28.4229 87.8622 28.9013 87.8853 29.3924V70.4912C87.8767 70.9173 87.7772 71.3366 87.5935 71.7212C87.4098 72.1057 87.146 72.4466 86.8199 72.721L79.9074 76.7246L76.3443 78.7912L63.6024 86.1755L50.6803 93.6645C49.9659 93.9165 49.1843 93.9011 48.4804 93.621L33.1924 84.8279L30.0696 90.1241L43.8091 98.0343C44.2638 98.2923 44.6686 98.5218 45.0007 98.7085C45.5152 98.9935 45.8658 99.1895 45.9891 99.2494C47.1386 99.7531 48.3813 100.009 49.6363 99.9998C50.7873 100.001 51.9283 99.7868 52.9999 99.367L90.532 77.6317C91.5909 76.8081 92.4563 75.7622 93.0672 74.5679C93.6782 73.3736 94.0198 72.0599 94.0681 70.7192L94.0695 29.1608Z" fill="#96BEDC"/>
</svg>
