<svg width="18" height="12" viewBox="0 0 18 12" fill="none" xmlns="http://www.w3.org/2000/svg">
<path d="M12.472 10.4673C12.1778 10.7589 12.1757 11.2338 12.4673 11.528C12.7589 11.8222 13.2338 11.8243 13.528 11.5327L15.3227 9.7539C15.9987 9.08396 16.5511 8.53641 16.9429 8.04854C17.3504 7.54122 17.6453 7.02628 17.7241 6.40816C17.7586 6.13714 17.7586 5.86286 17.7241 5.59184C17.6453 4.97372 17.3504 4.45878 16.9429 3.95146C16.5511 3.46358 15.9987 2.91604 15.3227 2.24609L13.528 0.467309C13.2338 0.175726 12.7589 0.177844 12.4673 0.472041C12.1757 0.766238 12.1778 1.24111 12.472 1.53269L14.235 3.28C14.9505 3.98914 15.4413 4.47718 15.7734 4.89071C15.8813 5.02509 15.9655 5.1434 16.0309 5.25L1 5.25C0.585787 5.25 0.250001 5.58579 0.250001 6C0.25 6.41421 0.585787 6.75 1 6.75L16.0309 6.75C15.9655 6.8566 15.8813 6.97491 15.7734 7.10929C15.4413 7.52282 14.9505 8.01086 14.235 8.72L12.472 10.4673Z" fill="#FFFFFE"/>
</svg>
