<svg width="195" height="195" viewBox="0 0 195 195" fill="none" xmlns="http://www.w3.org/2000/svg">
<path d="M67.5784 68.5931V100.225C67.5784 117.697 81.7079 131.86 99.1375 131.86C116.567 131.86 130.695 117.697 130.695 100.225C130.695 82.7541 116.567 68.5911 99.1375 68.5911C99.0986 68.5911 99.0606 68.5941 99.0217 68.5941V68.5931H67.5784Z" fill="#FB8A61"/>
<path d="M104.118 0.355957H91.3978H67.5784V36.957H99.0217V36.96C99.0606 36.96 99.0986 36.957 99.1375 36.957C133.996 36.957 162.255 65.282 162.255 100.226C162.255 135.169 133.996 163.494 99.1375 163.494C64.2783 163.494 36.0184 135.169 36.0184 100.226V68.593H0.423004V97.542H0.655452C0.69835 151.262 44.1561 194.796 97.7577 194.796C151.386 194.796 194.863 151.218 194.863 97.461C194.863 45.847 154.779 3.64296 104.118 0.355957Z" fill="#FB8A61"/>
<path d="M36.003 0.355957H0.647003V37.225H36.003V0.355957Z" fill="#FB8A61"/>
</svg>
