<?xml version="1.0" encoding="utf-8"?>
<!-- Generator: Adobe Illustrator 21.0.0, SVG Export Plug-In . SVG Version: 6.00 Build 0)  -->
<svg version="1.1" id="Layer_1" xmlns="http://www.w3.org/2000/svg" xmlns:xlink="http://www.w3.org/1999/xlink" x="0px" y="0px"
	 viewBox="0 0 463.8 416.2" style="enable-background:new 0 0 463.8 416.2;" xml:space="preserve">
<style type="text/css">
	.st0{fill:#FFFFFF;}
</style>
<path class="st0" d="M277,336.1c-27.4,0-54.5,0-82.2,0c6.3,14.9,7.1,29.7,1.2,44.5c-4.2,10.7-11.1,19.3-20.7,25.7
	c-19.1,12.9-44,12.8-63-0.3c-11.3-7.8-18.7-18.3-22.3-31.5c-3.6-13-2.2-25.7,3.2-38.1c-8.6-0.5-16.8-0.3-24.7-1.5
	c-26.1-4-45.7-27.5-45.9-54.5c-0.3-26.8,19.2-50.7,45.1-55.3c2.9-0.5,5.9-0.9,9.2-1.4C65.5,159.8,54.2,96.1,42.7,31.9
	c-8.9,0-17.7,0.1-26.5,0C4,31.7-3.6,19.7,1.7,9.1c2.9-5.7,7.7-8.8,14-8.9c13.5-0.2,27-0.2,40.5,0c8.1,0.1,14.2,5.4,15.6,13.4
	c2,11.3,3.9,22.6,6,34.5c2.2,0,4.3,0,6.5,0c119.6,0,239.3,0,358.9,0c1.5,0,3,0,4.5,0c11,0.3,18.3,9.6,15.4,20.2
	c-15.8,58.4-31.8,116.9-47.7,175.3c-2.4,8.7-8.1,12.4-18.1,12.4c-105.3,0-210.6,0-316,0c-12.6,0-21.8,6.8-24.8,18.3
	c-3.7,14.3,6.9,28.9,21.6,29.8c1.8,0.1,3.7,0.1,5.5,0.1c112.2,0,224.3,0,336.5,0c2.2,0,4.4-0.1,6.5,0.3c8.1,1.4,13.8,8.8,13.2,16.9
	c-0.7,8.1-7.2,14.5-15.6,14.6c-13.2,0.2-26.3,0.1-39.5,0.1c-1.8,0-3.6,0-5.7,0c10.3,29.3,4.6,53.7-21.4,71.3
	c-19.2,13-44.8,11.4-63.3-2.5C273.9,389.1,268.3,367.5,277,336.1z M388,223.7c13.1-48,26.1-95.7,39.2-143.7
	c-114.7,0-228.8,0-343.5,0c8.6,48.1,17.1,95.8,25.6,143.7C202.3,223.7,294.9,223.7,388,223.7z M144.4,335.8
	c-13.4-0.1-24.3,10.6-24.4,23.9c-0.1,13.2,10.4,24,23.5,24.3c13.4,0.2,24.5-10.4,24.6-23.6C168.3,346.9,157.7,336,144.4,335.8z
	 M328,335.8c-13.3,0-24.1,10.9-24,24.3c0.1,13.1,10.8,23.8,23.9,23.9c13.4,0.1,24.2-10.7,24.3-24C352.2,346.6,341.4,335.8,328,335.8
	z"/>
</svg>
