<svg width="20" height="16" viewBox="0 0 20 16" fill="none" xmlns="http://www.w3.org/2000/svg">
<path d="M19.2883 2.49993L16.9617 0.166601C16.923 0.127798 16.877 0.0970126 16.8264 0.0760072C16.7757 0.0550018 16.7215 0.0441895 16.6667 0.0441895C16.6119 0.0441895 16.5576 0.0550018 16.507 0.0760072C16.4563 0.0970126 16.4104 0.127798 16.3717 0.166601L6.54499 9.99993C6.50628 10.0387 6.4603 10.0695 6.40968 10.0905C6.35906 10.1115 6.3048 10.1223 6.24999 10.1223C6.19518 10.1223 6.14092 10.1115 6.09029 10.0905C6.03967 10.0695 5.99369 10.0387 5.95499 9.99993L3.62832 7.6666C3.58962 7.6278 3.54364 7.59701 3.49302 7.57601C3.4424 7.555 3.38813 7.54419 3.33332 7.54419C3.27852 7.54419 3.22425 7.555 3.17363 7.57601C3.12301 7.59701 3.07703 7.6278 3.03832 7.6666L0.711655 9.99993C0.633542 10.0781 0.589661 10.184 0.589661 10.2945C0.589661 10.405 0.633542 10.511 0.711655 10.5891L5.95499 15.8333C5.99369 15.8721 6.03967 15.9029 6.09029 15.9239C6.14092 15.9449 6.19518 15.9557 6.24999 15.9557C6.3048 15.9557 6.35906 15.9449 6.40968 15.9239C6.4603 15.9029 6.50628 15.8721 6.54499 15.8333L19.2883 3.08327C19.3647 3.00538 19.4074 2.90066 19.4074 2.7916C19.4074 2.68254 19.3647 2.57782 19.2883 2.49993Z" fill="#7375A6"/>
</svg>
