<svg width="186" height="48" viewBox="0 0 186 48" fill="none" xmlns="http://www.w3.org/2000/svg">
<path fill-rule="evenodd" clip-rule="evenodd" d="M24 48C37.2548 48 48 37.2548 48 24C48 10.7452 37.2548 0 24 0C10.7452 0 0 10.7452 0 24C0 37.2548 10.7452 48 24 48Z" fill="#221F2C"/>
<path fill-rule="evenodd" clip-rule="evenodd" d="M43.2 24C43.2 34.6039 34.6039 43.2 24 43.2C13.3961 43.2 4.8 34.6039 4.8 24C4.8 13.3961 13.3961 4.8 24 4.8C34.6039 4.8 43.2 13.3961 43.2 24ZM48 24C48 37.2548 37.2548 48 24 48C10.7452 48 0 37.2548 0 24C0 10.7452 10.7452 0 24 0C37.2548 0 48 10.7452 48 24ZM14.1016 24.9599C14.1016 19.2281 18.7481 14.5815 24.48 14.5815V9.71667C16.0613 9.71667 9.23671 16.5413 9.23671 24.9599H14.1016Z" fill="white"/>
<path d="M69.0467 25.2789C70.9285 25.2789 72.1226 26.2382 72.195 27.7658H77.5869C77.3336 24.1421 74.0406 21.1224 68.8658 21.1224C63.5463 21.1224 60 24.8526 60 29.3289C60 33.8053 63.3292 37.5 68.8658 37.5C73.7149 37.5 76.9355 34.8 77.4783 31.3184H72.195C72.0141 32.7395 70.7114 33.45 69.0467 33.45C66.5137 33.45 65.7899 31.1763 65.7899 29.3645C65.7899 27.5882 66.586 25.2789 69.0467 25.2789Z" fill="white"/>
<path d="M86.2992 37.4447V10.5H80.8711V37.4447H86.2992Z" fill="white"/>
<path d="M99.6352 25.4211C100.468 25.4211 101.264 25.6697 101.806 26.3092H101.879V21.4776C101.445 21.2645 100.721 21.1224 100.25 21.1224C98.2601 21.1224 96.885 22.2237 96.0527 23.3961V21.4776H90.6247V37.4447H96.0527V29.3289C96.0527 27.4461 97.6087 25.4211 99.6352 25.4211Z" fill="white"/>
<path d="M104.117 34.4092C104.117 36.1145 105.529 37.5 107.302 37.5C109.039 37.5 110.486 36.1145 110.486 34.4092C110.486 32.6684 109.039 31.2829 107.302 31.2829C105.529 31.2829 104.117 32.6684 104.117 34.4092Z" fill="white"/>
<path d="M120.882 10.5C117.987 10.5 115.743 12.2763 115.743 16.1487V21.4776H113.463V25.5987H115.743V37.4447H121.171V25.5987H124.899V21.4776H121.171V16.7882C121.171 15.2605 121.461 14.6566 122.583 14.6566H124.899V10.5H120.882Z" fill="white"/>
<path d="M127.333 30.3947C127.333 34.6224 129.07 37.5 133.34 37.5C135.439 37.5 137.14 36.5763 138.226 35.2263V37.4447H143.654V21.4776H138.226V29.3289C138.226 31.425 136.887 33.2368 135.186 33.2368C133.485 33.2368 132.761 32.2066 132.761 30.3947V21.4776H127.333V30.3947Z" fill="white"/>
<path d="M164.3 28.2632C164.3 24 162.563 21.1224 158.293 21.1224C156.194 21.1224 154.493 22.0461 153.408 23.3961V21.4776H147.98V37.4447H153.408V29.3289C153.408 27.1974 154.747 25.4211 156.447 25.4211C158.148 25.4211 158.872 26.4158 158.872 28.2632V37.4447H164.3V28.2632Z" fill="white"/>
<path d="M180.572 29.3289C180.572 31.3895 178.944 33.2368 176.772 33.2368C174.601 33.2368 172.973 31.3895 172.973 29.3289C172.973 27.2684 174.601 25.4211 176.772 25.4211C178.944 25.4211 180.572 27.2684 180.572 29.3289ZM186 10.5H180.572V23.3961C179.161 21.6908 177.134 21.1224 175.108 21.1224C170.584 21.1224 167.183 24.9947 167.183 29.3289C167.183 33.6632 170.584 37.5 175.108 37.5C177.134 37.5 179.486 36.8605 180.572 35.2618V37.4447H186V10.5Z" fill="white"/>
</svg>
