<svg width="24" height="24" viewBox="0 0 24 24" fill="none" xmlns="http://www.w3.org/2000/svg">
<path fill-rule="evenodd" clip-rule="evenodd" d="M21.6 12C21.6 17.3019 17.3019 21.6 12 21.6C6.69805 21.6 2.4 17.3019 2.4 12C2.4 6.69805 6.69805 2.4 12 2.4C17.3019 2.4 21.6 6.69805 21.6 12ZM24 12C24 18.6274 18.6274 24 12 24C5.3726 24 0 18.6274 0 12C0 5.3726 5.3726 0 12 0C18.6274 0 24 5.3726 24 12ZM7.0508 12.4799C7.0508 9.61405 9.37405 7.29075 12.24 7.29075V4.85834C8.03065 4.85834 4.61835 8.27065 4.61835 12.4799H7.0508Z" fill="white"/>
</svg>
