<svg width="335" height="402" viewBox="0 0 335 402" fill="none" xmlns="http://www.w3.org/2000/svg">
<g filter="url(#filter0_d)">
<circle cx="259" cy="322" r="72" fill="#F5AC37" fill-opacity="0.3"/>
</g>
<g filter="url(#filter1_d)">
<circle cx="259" cy="322" r="64" fill="#F5AC37" fill-opacity="0.4"/>
</g>
<g filter="url(#filter2_d)">
<circle cx="259" cy="322" r="56" fill="#F5AC37" fill-opacity="0.5"/>
</g>
<g filter="url(#filter3_d)">
<circle cx="259" cy="322" r="48" fill="#F5AC37" fill-opacity="0.6"/>
</g>
<g filter="url(#filter4_d)">
<circle cx="52" cy="330" r="48" fill="#F5AC37" fill-opacity="0.6"/>
</g>
<g filter="url(#filter5_d)">
<circle cx="259" cy="322" r="40" fill="#F5AC37" fill-opacity="0.7"/>
</g>
<g filter="url(#filter6_d)">
<circle cx="52" cy="330" r="40" fill="#F5AC37" fill-opacity="0.7"/>
</g>
<g filter="url(#filter7_d)">
<circle cx="259" cy="322" r="32" fill="#F5AC37"/>
</g>
<path fill-rule="evenodd" clip-rule="evenodd" d="M257.587 305H243.793V316.072H239V320.038H243.793V324.201H239V328.168H243.793V339.105H257.587C265.882 339.105 272.193 334.639 274.621 328.168H279V324.201H275.582C275.665 323.498 275.708 322.78 275.708 322.05V321.952C275.708 321.303 275.675 320.665 275.608 320.038H279V316.072H274.703C272.337 309.51 265.977 305 257.587 305ZM247.649 335.547V328.168H270.396C268.275 332.592 263.719 335.547 257.587 335.547H247.649ZM247.649 324.201H271.578C271.67 323.533 271.718 322.848 271.718 322.147V322.05C271.718 321.365 271.673 320.693 271.584 320.038H247.649V324.201ZM270.425 316.072C268.317 311.586 263.748 308.552 257.587 308.552H247.649V316.072H270.425Z" fill="white"/>
<g filter="url(#filter8_d)">
<circle cx="52" cy="330" r="32" fill="#F5AC37"/>
</g>
<path fill-rule="evenodd" clip-rule="evenodd" d="M50.5869 313H36.7932V324.072H32V328.038H36.7932V332.201H32V336.168H36.7932V347.105H50.5869C58.8823 347.105 65.1931 342.639 67.6214 336.168H72V332.201H68.5817C68.6654 331.498 68.7083 330.78 68.7083 330.05V329.952C68.7083 329.303 68.6746 328.665 68.608 328.038H72V324.072H67.7031C65.3371 317.51 58.9771 313 50.5869 313ZM40.6494 343.547V336.168H63.3963C61.2754 340.592 56.7194 343.547 50.5869 343.547H40.6494ZM40.6494 332.201H64.5777C64.6703 331.533 64.7177 330.848 64.7177 330.147V330.05C64.7177 329.365 64.6726 328.693 64.5837 328.038H40.6494V332.201ZM63.4254 324.072C61.3174 319.586 56.7477 316.552 50.5869 316.552H40.6494V324.072H63.4254Z" fill="white"/>
<g filter="url(#filter9_d)">
<circle cx="44" cy="63.5" r="32" fill="#F5AC37"/>
</g>
<path fill-rule="evenodd" clip-rule="evenodd" d="M42.5869 46.5H28.7932V57.572H24V61.5383H28.7932V65.7014H24V69.6677H28.7932V80.6051H42.5869C50.8823 80.6051 57.1931 76.1386 59.6214 69.6677H64V65.7014H60.5817C60.6654 64.998 60.7083 64.28 60.7083 63.5497V63.4523C60.7083 62.8034 60.6746 62.165 60.608 61.5383H64V57.572H59.7031C57.3371 51.0097 50.9771 46.5 42.5869 46.5ZM32.6494 77.0471V69.6677H55.3963C53.2754 74.0917 48.7194 77.0471 42.5869 77.0471H32.6494ZM32.6494 65.7014H56.5777C56.6703 65.0334 56.7177 64.3477 56.7177 63.6471V63.5497C56.7177 62.8649 56.6726 62.1934 56.5837 61.5383H32.6494V65.7014ZM55.4254 57.572C53.3174 53.0858 48.7477 50.0522 42.5869 50.0522H32.6494V57.572H55.4254Z" fill="white"/>
<g filter="url(#filter10_d)">
<circle cx="221" cy="46.5" r="32" fill="#F5AC37"/>
</g>
<path fill-rule="evenodd" clip-rule="evenodd" d="M219.587 29.5H205.793V40.572H201V44.5383H205.793V48.7014H201V52.6677H205.793V63.6051H219.587C227.882 63.6051 234.193 59.1386 236.621 52.6677H241V48.7014H237.582C237.665 47.998 237.708 47.28 237.708 46.5497V46.4523C237.708 45.8034 237.675 45.165 237.608 44.5383H241V40.572H236.703C234.337 34.0097 227.977 29.5 219.587 29.5ZM209.649 60.0471V52.6677H232.396C230.275 57.0917 225.719 60.0471 219.587 60.0471H209.649ZM209.649 48.7014H233.578C233.67 48.0334 233.718 47.3477 233.718 46.6471V46.5497C233.718 45.8649 233.673 45.1934 233.584 44.5383H209.649V48.7014ZM232.425 40.572C230.317 36.0858 225.748 33.0522 219.587 33.0522H209.649V40.572H232.425Z" fill="white"/>
<g filter="url(#filter11_d)">
<circle cx="299" cy="61.5" r="32" fill="#F5AC37"/>
</g>
<path fill-rule="evenodd" clip-rule="evenodd" d="M297.587 44.5H283.793V55.572H279V59.5383H283.793V63.7014H279V67.6677H283.793V78.6051H297.587C305.882 78.6051 312.193 74.1386 314.621 67.6677H319V63.7014H315.582C315.665 62.998 315.708 62.28 315.708 61.5497V61.4523C315.708 60.8034 315.675 60.165 315.608 59.5383H319V55.572H314.703C312.337 49.0097 305.977 44.5 297.587 44.5ZM287.649 75.0471V67.6677H310.396C308.275 72.0917 303.719 75.0471 297.587 75.0471H287.649ZM287.649 63.7014H311.578C311.67 63.0334 311.718 62.3477 311.718 61.6471V61.5497C311.718 60.8649 311.673 60.1934 311.584 59.5383H287.649V63.7014ZM310.425 55.572C308.317 51.0858 303.748 48.0522 297.587 48.0522H287.649V55.572H310.425Z" fill="white"/>
<g filter="url(#filter12_d)">
<circle cx="253" cy="129.5" r="32" fill="#F5AC37"/>
</g>
<path fill-rule="evenodd" clip-rule="evenodd" d="M251.587 112.5H237.793V123.572H233V127.538H237.793V131.701H233V135.668H237.793V146.605H251.587C259.882 146.605 266.193 142.139 268.621 135.668H273V131.701H269.582C269.665 130.998 269.708 130.28 269.708 129.55V129.452C269.708 128.803 269.675 128.165 269.608 127.538H273V123.572H268.703C266.337 117.01 259.977 112.5 251.587 112.5ZM241.649 143.047V135.668H264.396C262.275 140.092 257.719 143.047 251.587 143.047H241.649ZM241.649 131.701H265.578C265.67 131.033 265.718 130.348 265.718 129.647V129.55C265.718 128.865 265.673 128.193 265.584 127.538H241.649V131.701ZM264.425 123.572C262.317 119.086 257.748 116.052 251.587 116.052H241.649V123.572H264.425Z" fill="white"/>
<path d="M27 40.5C27 42.433 25.433 44 23.5 44C21.567 44 20 42.433 20 40.5C20 38.567 21.567 29.5 23.5 29.5C25.433 29.5 27 38.567 27 40.5Z" fill="#56CCF2"/>
<path d="M204 23.5C204 25.433 202.433 27 200.5 27C198.567 27 197 25.433 197 23.5C197 21.567 198.567 12.5 200.5 12.5C202.433 12.5 204 21.567 204 23.5Z" fill="#56CCF2"/>
<path d="M282 38.5C282 40.433 280.433 42 278.5 42C276.567 42 275 40.433 275 38.5C275 36.567 276.567 27.5 278.5 27.5C280.433 27.5 282 36.567 282 38.5Z" fill="#56CCF2"/>
<path d="M236 106.5C236 108.433 234.433 110 232.5 110C230.567 110 229 108.433 229 106.5C229 104.567 230.567 95.5 232.5 95.5C234.433 95.5 236 104.567 236 106.5Z" fill="#56CCF2"/>
<path d="M39 28C39 29.933 37.433 31.5 35.5 31.5C33.567 31.5 32 29.933 32 28C32 26.067 33.567 17 35.5 17C37.433 17 39 26.067 39 28Z" fill="#56CCF2"/>
<path d="M216 11C216 12.933 214.433 14.5 212.5 14.5C210.567 14.5 209 12.933 209 11C209 9.067 210.567 0 212.5 0C214.433 0 216 9.067 216 11Z" fill="#56CCF2"/>
<path d="M294 26C294 27.933 292.433 29.5 290.5 29.5C288.567 29.5 287 27.933 287 26C287 24.067 288.567 15 290.5 15C292.433 15 294 24.067 294 26Z" fill="#56CCF2"/>
<path d="M248 94C248 95.933 246.433 97.5 244.5 97.5C242.567 97.5 241 95.933 241 94C241 92.067 242.567 83 244.5 83C246.433 83 248 92.067 248 94Z" fill="#56CCF2"/>
<path d="M51 33C51 34.933 49.433 36.5 47.5 36.5C45.567 36.5 44 34.933 44 33C44 31.067 45.567 22.5 47.5 22.5C49.433 22.5 51 31.067 51 33Z" fill="#56CCF2"/>
<path d="M228 16C228 17.933 226.433 19.5 224.5 19.5C222.567 19.5 221 17.933 221 16C221 14.067 222.567 5.5 224.5 5.5C226.433 5.5 228 14.067 228 16Z" fill="#56CCF2"/>
<path d="M306 31C306 32.933 304.433 34.5 302.5 34.5C300.567 34.5 299 32.933 299 31C299 29.067 300.567 20.5 302.5 20.5C304.433 20.5 306 29.067 306 31Z" fill="#56CCF2"/>
<path d="M260 99C260 100.933 258.433 102.5 256.5 102.5C254.567 102.5 253 100.933 253 99C253 97.067 254.567 88.5 256.5 88.5C258.433 88.5 260 97.067 260 99Z" fill="#56CCF2"/>
<path d="M63 48C63 49.933 61.433 51.5 59.5 51.5C57.567 51.5 56 49.933 56 48C56 46.067 57.567 36.5 59.5 36.5C61.433 36.5 63 46.067 63 48Z" fill="#56CCF2"/>
<path d="M240 31C240 32.933 238.433 34.5 236.5 34.5C234.567 34.5 233 32.933 233 31C233 29.067 234.567 19.5 236.5 19.5C238.433 19.5 240 29.067 240 31Z" fill="#56CCF2"/>
<path d="M318 46C318 47.933 316.433 49.5 314.5 49.5C312.567 49.5 311 47.933 311 46C311 44.067 312.567 34.5 314.5 34.5C316.433 34.5 318 44.067 318 46Z" fill="#56CCF2"/>
<path d="M272 114C272 115.933 270.433 117.5 268.5 117.5C266.567 117.5 265 115.933 265 114C265 112.067 266.567 102.5 268.5 102.5C270.433 102.5 272 112.067 272 114Z" fill="#56CCF2"/>
<path d="M42.5858 229.414C43.3668 230.195 44.6332 230.195 45.4142 229.414L58.1421 216.686C58.9232 215.905 58.9232 214.639 58.1421 213.858C57.3611 213.077 56.0948 213.077 55.3137 213.858L44 225.172L32.6863 213.858C31.9052 213.077 30.6389 213.077 29.8579 213.858C29.0768 214.639 29.0768 215.905 29.8579 216.686L42.5858 229.414ZM42 188L42 228L46 228L46 188L42 188Z" fill="white"/>
<path d="M251.586 229.414C252.367 230.195 253.633 230.195 254.414 229.414L267.142 216.686C267.923 215.905 267.923 214.639 267.142 213.858C266.361 213.077 265.095 213.077 264.314 213.858L253 225.172L241.686 213.858C240.905 213.077 239.639 213.077 238.858 213.858C238.077 214.639 238.077 215.905 238.858 216.686L251.586 229.414ZM251 188L251 228L255 228L255 188L251 188Z" fill="white"/>
<defs>
<filter id="filter0_d" x="183" y="250" width="152" height="152" filterUnits="userSpaceOnUse" color-interpolation-filters="sRGB">
<feFlood flood-opacity="0" result="BackgroundImageFix"/>
<feColorMatrix in="SourceAlpha" type="matrix" values="0 0 0 0 0 0 0 0 0 0 0 0 0 0 0 0 0 0 127 0"/>
<feOffset dy="4"/>
<feGaussianBlur stdDeviation="2"/>
<feColorMatrix type="matrix" values="0 0 0 0 0 0 0 0 0 0 0 0 0 0 0 0 0 0 0.25 0"/>
<feBlend mode="normal" in2="BackgroundImageFix" result="effect1_dropShadow"/>
<feBlend mode="normal" in="SourceGraphic" in2="effect1_dropShadow" result="shape"/>
</filter>
<filter id="filter1_d" x="191" y="258" width="136" height="136" filterUnits="userSpaceOnUse" color-interpolation-filters="sRGB">
<feFlood flood-opacity="0" result="BackgroundImageFix"/>
<feColorMatrix in="SourceAlpha" type="matrix" values="0 0 0 0 0 0 0 0 0 0 0 0 0 0 0 0 0 0 127 0"/>
<feOffset dy="4"/>
<feGaussianBlur stdDeviation="2"/>
<feColorMatrix type="matrix" values="0 0 0 0 0 0 0 0 0 0 0 0 0 0 0 0 0 0 0.25 0"/>
<feBlend mode="normal" in2="BackgroundImageFix" result="effect1_dropShadow"/>
<feBlend mode="normal" in="SourceGraphic" in2="effect1_dropShadow" result="shape"/>
</filter>
<filter id="filter2_d" x="199" y="266" width="120" height="120" filterUnits="userSpaceOnUse" color-interpolation-filters="sRGB">
<feFlood flood-opacity="0" result="BackgroundImageFix"/>
<feColorMatrix in="SourceAlpha" type="matrix" values="0 0 0 0 0 0 0 0 0 0 0 0 0 0 0 0 0 0 127 0"/>
<feOffset dy="4"/>
<feGaussianBlur stdDeviation="2"/>
<feColorMatrix type="matrix" values="0 0 0 0 0 0 0 0 0 0 0 0 0 0 0 0 0 0 0.25 0"/>
<feBlend mode="normal" in2="BackgroundImageFix" result="effect1_dropShadow"/>
<feBlend mode="normal" in="SourceGraphic" in2="effect1_dropShadow" result="shape"/>
</filter>
<filter id="filter3_d" x="207" y="274" width="104" height="104" filterUnits="userSpaceOnUse" color-interpolation-filters="sRGB">
<feFlood flood-opacity="0" result="BackgroundImageFix"/>
<feColorMatrix in="SourceAlpha" type="matrix" values="0 0 0 0 0 0 0 0 0 0 0 0 0 0 0 0 0 0 127 0"/>
<feOffset dy="4"/>
<feGaussianBlur stdDeviation="2"/>
<feColorMatrix type="matrix" values="0 0 0 0 0 0 0 0 0 0 0 0 0 0 0 0 0 0 0.25 0"/>
<feBlend mode="normal" in2="BackgroundImageFix" result="effect1_dropShadow"/>
<feBlend mode="normal" in="SourceGraphic" in2="effect1_dropShadow" result="shape"/>
</filter>
<filter id="filter4_d" x="0" y="282" width="104" height="104" filterUnits="userSpaceOnUse" color-interpolation-filters="sRGB">
<feFlood flood-opacity="0" result="BackgroundImageFix"/>
<feColorMatrix in="SourceAlpha" type="matrix" values="0 0 0 0 0 0 0 0 0 0 0 0 0 0 0 0 0 0 127 0"/>
<feOffset dy="4"/>
<feGaussianBlur stdDeviation="2"/>
<feColorMatrix type="matrix" values="0 0 0 0 0 0 0 0 0 0 0 0 0 0 0 0 0 0 0.25 0"/>
<feBlend mode="normal" in2="BackgroundImageFix" result="effect1_dropShadow"/>
<feBlend mode="normal" in="SourceGraphic" in2="effect1_dropShadow" result="shape"/>
</filter>
<filter id="filter5_d" x="215" y="282" width="88" height="88" filterUnits="userSpaceOnUse" color-interpolation-filters="sRGB">
<feFlood flood-opacity="0" result="BackgroundImageFix"/>
<feColorMatrix in="SourceAlpha" type="matrix" values="0 0 0 0 0 0 0 0 0 0 0 0 0 0 0 0 0 0 127 0"/>
<feOffset dy="4"/>
<feGaussianBlur stdDeviation="2"/>
<feColorMatrix type="matrix" values="0 0 0 0 0 0 0 0 0 0 0 0 0 0 0 0 0 0 0.25 0"/>
<feBlend mode="normal" in2="BackgroundImageFix" result="effect1_dropShadow"/>
<feBlend mode="normal" in="SourceGraphic" in2="effect1_dropShadow" result="shape"/>
</filter>
<filter id="filter6_d" x="8" y="290" width="88" height="88" filterUnits="userSpaceOnUse" color-interpolation-filters="sRGB">
<feFlood flood-opacity="0" result="BackgroundImageFix"/>
<feColorMatrix in="SourceAlpha" type="matrix" values="0 0 0 0 0 0 0 0 0 0 0 0 0 0 0 0 0 0 127 0"/>
<feOffset dy="4"/>
<feGaussianBlur stdDeviation="2"/>
<feColorMatrix type="matrix" values="0 0 0 0 0 0 0 0 0 0 0 0 0 0 0 0 0 0 0.25 0"/>
<feBlend mode="normal" in2="BackgroundImageFix" result="effect1_dropShadow"/>
<feBlend mode="normal" in="SourceGraphic" in2="effect1_dropShadow" result="shape"/>
</filter>
<filter id="filter7_d" x="223" y="290" width="72" height="72" filterUnits="userSpaceOnUse" color-interpolation-filters="sRGB">
<feFlood flood-opacity="0" result="BackgroundImageFix"/>
<feColorMatrix in="SourceAlpha" type="matrix" values="0 0 0 0 0 0 0 0 0 0 0 0 0 0 0 0 0 0 127 0"/>
<feOffset dy="4"/>
<feGaussianBlur stdDeviation="2"/>
<feColorMatrix type="matrix" values="0 0 0 0 0 0 0 0 0 0 0 0 0 0 0 0 0 0 0.25 0"/>
<feBlend mode="normal" in2="BackgroundImageFix" result="effect1_dropShadow"/>
<feBlend mode="normal" in="SourceGraphic" in2="effect1_dropShadow" result="shape"/>
</filter>
<filter id="filter8_d" x="16" y="298" width="72" height="72" filterUnits="userSpaceOnUse" color-interpolation-filters="sRGB">
<feFlood flood-opacity="0" result="BackgroundImageFix"/>
<feColorMatrix in="SourceAlpha" type="matrix" values="0 0 0 0 0 0 0 0 0 0 0 0 0 0 0 0 0 0 127 0"/>
<feOffset dy="4"/>
<feGaussianBlur stdDeviation="2"/>
<feColorMatrix type="matrix" values="0 0 0 0 0 0 0 0 0 0 0 0 0 0 0 0 0 0 0.25 0"/>
<feBlend mode="normal" in2="BackgroundImageFix" result="effect1_dropShadow"/>
<feBlend mode="normal" in="SourceGraphic" in2="effect1_dropShadow" result="shape"/>
</filter>
<filter id="filter9_d" x="8" y="31.5" width="72" height="72" filterUnits="userSpaceOnUse" color-interpolation-filters="sRGB">
<feFlood flood-opacity="0" result="BackgroundImageFix"/>
<feColorMatrix in="SourceAlpha" type="matrix" values="0 0 0 0 0 0 0 0 0 0 0 0 0 0 0 0 0 0 127 0"/>
<feOffset dy="4"/>
<feGaussianBlur stdDeviation="2"/>
<feColorMatrix type="matrix" values="0 0 0 0 0 0 0 0 0 0 0 0 0 0 0 0 0 0 0.25 0"/>
<feBlend mode="normal" in2="BackgroundImageFix" result="effect1_dropShadow"/>
<feBlend mode="normal" in="SourceGraphic" in2="effect1_dropShadow" result="shape"/>
</filter>
<filter id="filter10_d" x="185" y="14.5" width="72" height="72" filterUnits="userSpaceOnUse" color-interpolation-filters="sRGB">
<feFlood flood-opacity="0" result="BackgroundImageFix"/>
<feColorMatrix in="SourceAlpha" type="matrix" values="0 0 0 0 0 0 0 0 0 0 0 0 0 0 0 0 0 0 127 0"/>
<feOffset dy="4"/>
<feGaussianBlur stdDeviation="2"/>
<feColorMatrix type="matrix" values="0 0 0 0 0 0 0 0 0 0 0 0 0 0 0 0 0 0 0.25 0"/>
<feBlend mode="normal" in2="BackgroundImageFix" result="effect1_dropShadow"/>
<feBlend mode="normal" in="SourceGraphic" in2="effect1_dropShadow" result="shape"/>
</filter>
<filter id="filter11_d" x="263" y="29.5" width="72" height="72" filterUnits="userSpaceOnUse" color-interpolation-filters="sRGB">
<feFlood flood-opacity="0" result="BackgroundImageFix"/>
<feColorMatrix in="SourceAlpha" type="matrix" values="0 0 0 0 0 0 0 0 0 0 0 0 0 0 0 0 0 0 127 0"/>
<feOffset dy="4"/>
<feGaussianBlur stdDeviation="2"/>
<feColorMatrix type="matrix" values="0 0 0 0 0 0 0 0 0 0 0 0 0 0 0 0 0 0 0.25 0"/>
<feBlend mode="normal" in2="BackgroundImageFix" result="effect1_dropShadow"/>
<feBlend mode="normal" in="SourceGraphic" in2="effect1_dropShadow" result="shape"/>
</filter>
<filter id="filter12_d" x="217" y="97.5" width="72" height="72" filterUnits="userSpaceOnUse" color-interpolation-filters="sRGB">
<feFlood flood-opacity="0" result="BackgroundImageFix"/>
<feColorMatrix in="SourceAlpha" type="matrix" values="0 0 0 0 0 0 0 0 0 0 0 0 0 0 0 0 0 0 127 0"/>
<feOffset dy="4"/>
<feGaussianBlur stdDeviation="2"/>
<feColorMatrix type="matrix" values="0 0 0 0 0 0 0 0 0 0 0 0 0 0 0 0 0 0 0.25 0"/>
<feBlend mode="normal" in2="BackgroundImageFix" result="effect1_dropShadow"/>
<feBlend mode="normal" in="SourceGraphic" in2="effect1_dropShadow" result="shape"/>
</filter>
</defs>
</svg>
