<svg width="64" height="65" viewBox="0 0 64 65" fill="none" xmlns="http://www.w3.org/2000/svg">
<circle cx="32" cy="32.5" r="32" fill="#F5AC37"/>
<path fill-rule="evenodd" clip-rule="evenodd" d="M32.5869 15.5H18.7932V26.572H14V30.5383H18.7932V34.7014H14V38.6677H18.7932V49.6051H32.5869C40.8823 49.6051 47.1931 45.1386 49.6214 38.6677H54V34.7014H50.5817C50.6654 33.998 50.7083 33.28 50.7083 32.5497V32.4523C50.7083 31.8034 50.6746 31.165 50.608 30.5383H54V26.572H49.7031C47.3371 20.0097 40.9771 15.5 32.5869 15.5ZM22.6494 46.0471V38.6677H45.3963C43.2754 43.0917 38.7194 46.0471 32.5869 46.0471H22.6494ZM22.6494 34.7014H46.5777C46.6703 34.0334 46.7177 33.3477 46.7177 32.6471V32.5497C46.7177 31.8649 46.6726 31.1934 46.5837 30.5383H22.6494V34.7014ZM45.4254 26.572C43.3174 22.0858 38.7477 19.0522 32.5869 19.0522H22.6494V26.572H45.4254Z" fill="white"/>
</svg>
