<svg width="78" height="78" viewBox="0 0 78 78" fill="none" xmlns="http://www.w3.org/2000/svg">
<path d="M55.25 48.75H22.75C21.888 48.75 21.0614 49.0924 20.4519 49.7019C19.8424 50.3114 19.5 51.138 19.5 52C19.5 52.862 19.8424 53.6886 20.4519 54.2981C21.0614 54.9076 21.888 55.25 22.75 55.25H55.25C56.112 55.25 56.9386 54.9076 57.5481 54.2981C58.1576 53.6886 58.5 52.862 58.5 52C58.5 51.138 58.1576 50.3114 57.5481 49.7019C56.9386 49.0924 56.112 48.75 55.25 48.75Z" fill="#7375A6"/>
<path d="M39 0C31.2865 0 23.7463 2.28731 17.3328 6.57268C10.9193 10.8581 5.92053 16.949 2.96872 24.0753C0.0168982 31.2017 -0.755432 39.0433 0.749392 46.6085C2.25422 54.1738 5.9686 61.1229 11.4229 66.5772C16.8771 72.0314 23.8262 75.7458 31.3915 77.2506C38.9568 78.7554 46.7984 77.9831 53.9247 75.0313C61.051 72.0795 67.142 67.0807 71.4273 60.6672C75.7127 54.2537 78 46.7135 78 39C77.9888 28.66 73.8763 18.7467 66.5648 11.4352C59.2533 4.12369 49.34 0.0111835 39 0V0ZM39 71.5C32.5721 71.5 26.2886 69.5939 20.944 66.0228C15.5994 62.4516 11.4338 57.3758 8.97393 51.4372C6.51408 45.4986 5.87048 38.9639 7.1245 32.6596C8.37852 26.3552 11.4738 20.5642 16.019 16.019C20.5643 11.4738 26.3552 8.3785 32.6596 7.12448C38.964 5.87046 45.4986 6.51407 51.4372 8.97392C57.3758 11.4338 62.4516 15.5994 66.0228 20.944C69.5939 26.2886 71.5 32.5721 71.5 39C71.4905 47.6166 68.0634 55.8776 61.9705 61.9705C55.8777 68.0634 47.6166 71.4905 39 71.5Z" fill="#7375A6"/>
<path d="M19.5 29.25C19.5 30.9739 20.1848 32.6272 21.4038 33.8462C22.6228 35.0652 24.2761 35.75 26 35.75C27.7239 35.75 29.3772 35.0652 30.5962 33.8462C31.8152 32.6272 32.5 30.9739 32.5 29.25C32.5 27.5261 31.8152 25.8728 30.5962 24.6538C29.3772 23.4348 27.7239 22.75 26 22.75C24.2761 22.75 22.6228 23.4348 21.4038 24.6538C20.1848 25.8728 19.5 27.5261 19.5 29.25Z" fill="#7375A6"/>
<path d="M45.5001 29.25C45.5001 30.9739 46.1849 32.6272 47.4039 33.8462C48.6229 35.0652 50.2762 35.75 52.0001 35.75C53.724 35.75 55.3773 35.0652 56.5963 33.8462C57.8153 32.6272 58.5001 30.9739 58.5001 29.25C58.5001 27.5261 57.8153 25.8728 56.5963 24.6538C55.3773 23.4348 53.724 22.75 52.0001 22.75C50.2762 22.75 48.6229 23.4348 47.4039 24.6538C46.1849 25.8728 45.5001 27.5261 45.5001 29.25Z" fill="#7375A6"/>
</svg>
