<svg width="735" height="194" viewBox="0 0 735 194" fill="none" xmlns="http://www.w3.org/2000/svg">
<path d="M183.84 60.5499H234.97V67.3199H191.38V94.6399H230.38V101.42H191.38V130.15H236.38V136.93H183.84V60.5499Z" fill="white"/>
<path d="M287.86 132.99C284.139 135.618 279.732 137.102 275.18 137.26C270.807 137.26 267.347 135.91 264.8 133.21C262.253 130.51 260.98 126.467 260.98 121.08V86.9899H252.78L252.68 81.3099H260.98V66.5599H268.3V81.3099L286.88 81.1999V86.9899H268.3V119.88C268.3 126.947 270.923 130.48 276.17 130.48C279.554 130.334 282.837 129.277 285.67 127.42L287.86 132.99Z" fill="white"/>
<path d="M353.25 85.41C357.15 89.41 359.1 94.8533 359.1 101.74V136.93H351.67V103.49C351.67 98.1033 350.177 93.88 347.19 90.82C344.203 87.76 340.05 86.23 334.73 86.23C328.397 86.2966 323.427 88.39 319.82 92.51C316.213 96.63 314.41 102.077 314.41 108.85V136.93H307.1V55.85H314.42V93.22C318.273 84.1933 325.833 79.6033 337.1 79.45C343.967 79.45 349.35 81.4366 353.25 85.41Z" fill="white"/>
<path d="M417.56 68.47C414.162 67.4674 410.642 66.9358 407.1 66.89C401.853 66.89 397.647 67.9267 394.48 70C393.009 70.8655 391.794 72.1052 390.958 73.593C390.121 75.0808 389.694 76.7635 389.72 78.47C389.602 81.2602 390.541 83.9921 392.35 86.12C394.133 88.117 396.331 89.7006 398.79 90.76C402.215 92.2088 405.717 93.4674 409.28 94.53C413.547 95.7349 417.719 97.2558 421.76 99.08C424.934 100.574 427.707 102.802 429.85 105.58C432.07 108.42 433.18 112.17 433.18 116.83C433.241 120.715 432.034 124.514 429.74 127.65C427.253 130.923 423.905 133.44 420.07 134.92C415.514 136.703 410.652 137.573 405.76 137.48C400.41 137.477 395.115 136.399 390.19 134.31C385.337 132.349 380.897 129.493 377.1 125.89L380.59 119.66C384.024 123.016 388.066 125.687 392.5 127.53C396.708 129.361 401.241 130.327 405.83 130.37C411.663 130.37 416.29 129.187 419.71 126.82C421.315 125.802 422.632 124.388 423.532 122.713C424.432 121.039 424.886 119.161 424.85 117.26C424.968 114.403 424.032 111.602 422.22 109.39C420.467 107.345 418.262 105.736 415.78 104.69C413.253 103.617 409.693 102.343 405.1 100.87C400.857 99.6144 396.696 98.0981 392.64 96.33C389.494 94.9096 386.746 92.7355 384.64 90C382.447 87.1933 381.353 83.5267 381.36 79C381.293 75.3398 382.447 71.7616 384.64 68.83C387.013 65.777 390.193 63.4491 393.82 62.11C398.181 60.4736 402.813 59.6796 407.47 59.77C415.817 59.8475 423.985 62.1946 431.1 66.56L427.82 73.01C424.632 71.0191 421.177 69.4905 417.56 68.47V68.47Z" fill="white"/>
<path d="M484.86 132.99C481.142 135.616 476.739 137.1 472.19 137.26C467.823 137.26 464.363 135.91 461.81 133.21C459.257 130.51 457.98 126.467 457.98 121.08V86.9899H449.79L449.68 81.3099H457.98V66.5599H465.3V81.3099L483.88 81.1999V86.9899H465.3V119.88C465.3 126.947 467.923 130.48 473.17 130.48C476.557 130.333 479.842 129.276 482.68 127.42L484.86 132.99Z" fill="white"/>
<path d="M539.49 136.93L539.39 127.31C537.209 130.595 534.14 133.192 530.54 134.8C526.572 136.504 522.287 137.343 517.97 137.26C514.434 137.331 510.932 136.564 507.75 135.02C504.939 133.663 502.575 131.529 500.939 128.871C499.304 126.212 498.464 123.141 498.52 120.02C498.437 117.749 498.918 115.493 499.919 113.453C500.921 111.413 502.412 109.653 504.26 108.33C508.08 105.497 513.36 104.08 520.1 104.08H539.33V99.7099C539.33 95.1899 537.997 91.6933 535.33 89.2199C532.663 86.7466 528.73 85.5066 523.53 85.4999C517.41 85.4999 511.257 87.7966 505.07 92.3899L501.79 87.3899C505.182 84.9238 508.88 82.907 512.79 81.3899C516.646 80.0509 520.708 79.4009 524.79 79.4699C531.71 79.4699 537.067 81.1999 540.86 84.6599C544.653 88.1199 546.583 92.9099 546.65 99.0299L546.76 136.95L539.49 136.93ZM532.23 127.58C535.755 125.23 538.301 121.674 539.39 117.58V109.71H520.92C515.887 109.71 512.063 110.547 509.45 112.22C508.178 113.008 507.141 114.124 506.448 115.451C505.755 116.777 505.431 118.265 505.51 119.76C505.456 121.333 505.769 122.897 506.423 124.329C507.077 125.761 508.055 127.021 509.28 128.01C511.8 130.09 515.133 131.13 519.28 131.13C523.856 131.278 528.369 130.04 532.23 127.58V127.58Z" fill="white"/>
<path d="M612.81 136.93L592.49 107.08L579.59 120.3V136.91H572.27V55.85H579.59V110.92L610.41 79.67H619.15L597.62 101.85L621.62 136.93H612.81Z" fill="white"/>
<path d="M679.24 87.9199C683.907 93.5666 686.057 101.16 685.69 110.7H637.94C638.447 116.82 640.707 121.757 644.72 125.51C648.739 129.269 654.079 131.292 659.58 131.14C663.066 131.16 666.521 130.48 669.74 129.14C672.799 127.88 675.554 125.981 677.82 123.57L681.98 127.72C679.184 130.724 675.773 133.092 671.98 134.66C667.898 136.349 663.517 137.196 659.1 137.15C653.947 137.247 648.86 135.984 644.35 133.49C640.093 131.092 636.592 127.552 634.24 123.27C631.835 118.655 630.58 113.529 630.58 108.325C630.58 103.121 631.835 97.9946 634.24 93.3799C636.591 89.0627 640.108 85.4935 644.39 83.0799C648.827 80.6042 653.839 79.3418 658.92 79.4199C667.813 79.4399 674.587 82.2733 679.24 87.9199ZM679.14 105.02C678.767 99.0199 676.767 94.2666 673.14 90.7599C669.513 87.2533 664.797 85.4866 658.99 85.4599C653.668 85.2984 648.494 87.2217 644.57 90.8199C640.632 94.5406 638.249 99.6139 637.9 105.02H679.14Z" fill="white"/>
<path d="M721.91 83C725.729 80.6294 730.145 79.3979 734.64 79.4499V86.3399C728.593 86.2733 723.73 88.04 720.05 91.64C716.37 95.24 714.277 100.137 713.77 106.33V136.93H706.45V79.67H713.77V93C715.424 88.9284 718.259 85.4455 721.91 83V83Z" fill="white"/>
<path d="M103.6 49.53L124.85 37.27V0L47.75 45.7L0.0999985 17.57V20.96L47.67 49.35V70.54L0.0999985 42.42V45.81V69.59H0V72.97L47.75 101.42L47.8 126.98L1.7 99.69L0.150002 98.69V133.56L47.49 161.81V193.28L124.85 148.1V62.28L103.6 49.53ZM93.43 128.99L72.68 116.54L93.6 104.66L93.43 128.99ZM22.51 59.08L2.59 71.08V47.28L22.51 59.08ZM4.98 72.47L24.91 60.47L47.74 74.08L47.79 97.78L4.98 72.47ZM69.59 118.3L92.26 131.89L47.61 158.24L3.22 132.08L26.74 118.08L47.86 130.69L69.59 118.3ZM2.59 103.62L24.25 116.55L2.59 129.55V103.62ZM76.85 90.54V64.94L100.59 51.26L122.1 64.08L76.85 90.54Z" fill="white"/>
</svg>
