<svg width="186" height="107" viewBox="0 0 186 107" fill="none" xmlns="http://www.w3.org/2000/svg">
<path d="M72.9323 38.547H83.5573V41.2669H76.1925V43.761H82.9824V46.3725H76.1958V48.9659H83.5786V51.6858H72.9323V38.547Z" fill="#050022"/>
<path d="M85.3861 38.547H97.1789V41.3572H92.8954V51.6858H89.6425V41.3572H85.3861V38.547Z" fill="#050022"/>
<path d="M108.296 38.547H111.548V51.6866H108.296V46.4636H102.485V51.6866H99.2227V38.547H102.485V43.6706H108.296V38.547Z" fill="#050022"/>
<path d="M114.505 38.547H125.133V41.2669H117.768V43.761H124.554V46.3725H117.768V48.9659H125.151V51.6858H114.505V38.547Z" fill="#050022"/>
<path d="M127.827 38.547H134.18C137.944 38.547 139.824 40.0712 139.818 43.1196C139.818 45.5652 138.547 47.0078 136.005 47.4475V47.6733C136.231 48.1189 136.577 48.4928 137.003 48.7532C137.493 48.9461 138.019 49.0301 138.544 48.9996C138.911 48.9996 139.381 48.9875 139.954 48.9634V51.4756C139.271 51.7242 138.545 51.8377 137.819 51.8098C136.695 51.88 135.578 51.5925 134.628 50.9886C133.651 50.0855 132.938 48.9322 132.569 47.6536H131.09V51.6842H127.829L127.827 38.547ZM131.089 41.3211V45.0084H133.936C134.62 45.0623 135.305 44.9095 135.901 44.5699C136.112 44.4021 136.278 44.1847 136.385 43.9371C136.491 43.6894 136.534 43.4193 136.511 43.1508C136.535 42.8842 136.492 42.6158 136.386 42.3702C136.279 42.1246 136.113 41.9098 135.901 41.7457C135.301 41.4158 134.618 41.2683 133.936 41.3211H131.089Z" fill="#050022"/>
<path d="M142.369 38.547H152.996V41.2669H145.63V43.761H152.418V46.3725H145.63V48.9659H153.013V51.6858H142.369V38.547Z" fill="#050022"/>
<path d="M155.599 38.547H158.897V46.1557C158.897 48.0653 159.834 49.0201 161.707 49.0201C163.581 49.0201 164.518 48.0653 164.519 46.1557V38.547H167.762V46.3002C167.818 47.0692 167.709 47.8413 167.442 48.5646C167.174 49.2878 166.755 49.9455 166.213 50.4934C164.879 51.4169 163.296 51.9117 161.674 51.9117C160.052 51.9117 158.469 51.4169 157.136 50.4934C156.597 49.9433 156.181 49.285 155.917 48.562C155.652 47.8391 155.543 47.0681 155.599 46.3002V38.547Z" fill="#050022"/>
<path d="M170.584 38.547H174.84L178.193 44.2135H178.455L181.817 38.547H186V51.6866H182.729V42.7353H182.304L178.898 48.3738H177.66L174.252 42.7353H173.828V51.6866H170.584V38.547Z" fill="#050022"/>
<path d="M79.8722 55.5545C80.9728 55.5205 82.0723 55.6515 83.1341 55.943V57.7776C82.1817 57.5921 81.2129 57.5043 80.2426 57.5156C78.7759 57.4059 77.3245 57.8746 76.1989 58.8214C75.3239 59.7803 74.8389 61.0315 74.8389 62.3296C74.8389 63.6278 75.3239 64.879 76.1989 65.8379C77.3316 66.7843 78.7889 67.2513 80.2607 67.1396C81.2365 67.1503 82.211 67.0656 83.1703 66.8866V68.7204C82.1026 69.0134 80.9969 69.1444 79.8903 69.1089C78.9262 69.1636 77.961 69.0238 77.052 68.6979C76.143 68.372 75.3089 67.8666 74.5992 67.2118C73.3652 65.8865 72.6792 64.1429 72.6792 62.3321C72.6792 60.5213 73.3652 58.7777 74.5992 57.4524C75.3057 56.7983 76.1367 56.2932 77.0427 55.9671C77.9486 55.6411 78.9109 55.5008 79.8722 55.5545V55.5545Z" fill="#050022"/>
<path d="M87.8273 57.4697C89.2216 56.2357 91.0192 55.5546 92.8811 55.5546C94.743 55.5546 96.5406 56.2357 97.9349 57.4697C99.1494 58.7976 99.8228 60.5319 99.8228 62.3313C99.8228 64.1308 99.1494 65.8651 97.9349 67.193C96.5409 68.4274 94.7432 69.1089 92.8811 69.1089C91.0191 69.1089 89.2214 68.4274 87.8273 67.193C86.6153 65.8639 85.9435 64.13 85.9435 62.3313C85.9435 60.5326 86.6153 58.7988 87.8273 57.4697V57.4697ZM89.3876 65.801C90.3476 66.6649 91.5933 67.1429 92.8848 67.1429C94.1763 67.1429 95.4221 66.6649 96.382 65.801C97.2074 64.8332 97.6607 63.6029 97.6607 62.3309C97.6607 61.059 97.2074 59.8286 96.382 58.8608C95.4221 57.9969 94.1763 57.5189 92.8848 57.5189C91.5933 57.5189 90.3476 57.9969 89.3876 58.8608C88.5623 59.8286 88.1089 61.059 88.1089 62.3309C88.1089 63.6029 88.5623 64.8332 89.3876 65.801Z" fill="#050022"/>
<path d="M103.65 55.7623H105.73V66.995H113.368V68.9011H103.65V55.7623Z" fill="#050022"/>
<path d="M117.301 57.4697C118.696 56.2357 120.493 55.5546 122.355 55.5546C124.217 55.5546 126.015 56.2357 127.409 57.4697C128.624 58.7973 129.298 60.5317 129.298 62.3313C129.298 64.131 128.624 65.8654 127.409 67.193C126.015 68.4274 124.217 69.1089 122.355 69.1089C120.493 69.1089 118.695 68.4274 117.301 67.193C116.089 65.8639 115.417 64.13 115.417 62.3313C115.417 60.5326 116.089 58.7988 117.301 57.4697V57.4697ZM118.856 65.7977C119.816 66.6616 121.061 67.1396 122.353 67.1396C123.644 67.1396 124.89 66.6616 125.849 65.7977C126.675 64.8301 127.129 63.5997 127.129 62.3276C127.129 61.0555 126.675 59.8251 125.849 58.8575C124.89 57.9937 123.644 57.5157 122.353 57.5157C121.061 57.5157 119.816 57.9937 118.856 58.8575C118.031 59.8254 117.577 61.0557 117.577 62.3276C117.577 63.5996 118.031 64.8299 118.856 65.7977V65.7977Z" fill="#050022"/>
<path d="M133.122 55.7623H136.546L140.36 62.6663H140.541L144.353 55.7623H147.742V68.9019H145.655V58.1479H145.08L141.105 65.1965H139.75L135.773 58.1479H135.203V68.9011H133.126L133.122 55.7623Z" fill="#050022"/>
<path d="M152.217 55.7623H158.605C161.677 55.7623 163.213 56.9281 163.215 59.2599C163.215 60.7654 162.585 61.7019 161.326 62.0693V62.3157C161.976 62.4619 162.55 62.844 162.935 63.3882C163.32 63.9324 163.49 64.6 163.412 65.2622C163.458 65.7871 163.372 66.3149 163.164 66.7989C162.956 67.2828 162.632 67.7079 162.22 68.0363C161.152 68.6871 159.908 68.9902 158.66 68.9035H152.217V55.7623ZM154.295 57.6141V61.3663H158.253C158.992 61.417 159.73 61.2639 160.388 60.9237C160.623 60.7602 160.811 60.5373 160.933 60.2777C161.054 60.0181 161.105 59.7309 161.079 59.4455C161.106 59.1726 161.059 58.8975 160.944 58.6488C160.828 58.4001 160.648 58.1869 160.422 58.0313C159.777 57.7112 159.058 57.5695 158.34 57.6207L154.295 57.6141ZM154.295 63.1812V67.0484H158.488C159.226 67.1023 159.965 66.9523 160.624 66.6148C160.853 66.4523 161.035 66.2324 161.153 65.9771C161.27 65.7218 161.318 65.4401 161.292 65.1604C161.318 64.8668 161.265 64.5717 161.14 64.305C161.014 64.0384 160.821 63.8096 160.578 63.6419C159.909 63.2896 159.155 63.1301 158.4 63.1812H154.295Z" fill="#050022"/>
<path d="M167.24 55.7623H169.319V68.9019H167.24V55.7623Z" fill="#050022"/>
<path d="M177.189 55.7623H181.336L185.999 68.9019H183.794L182.591 65.4593H175.857L174.646 68.9019H172.523L177.189 55.7623ZM178.634 57.6141L176.499 63.6239H181.94L179.817 57.6141H178.634Z" fill="#050022"/>
<path d="M49.7044 24.853L50.3351 22.3072C50.3443 22.2785 50.3515 22.2491 50.3565 22.2193C50.394 21.9766 50.5026 21.7504 50.6687 21.5695C50.8348 21.3885 51.0508 21.2608 51.2895 21.2026C51.5281 21.1445 51.7786 21.1584 52.0094 21.2426C52.2401 21.3268 52.4407 21.4776 52.5857 21.6758C52.7308 21.8741 52.8137 22.1109 52.8242 22.3563C52.8346 22.6017 52.772 22.8447 52.6443 23.0545C52.5166 23.2644 52.3295 23.4316 52.1068 23.5351C51.884 23.6386 51.6356 23.6737 51.3929 23.636L51.2138 24.7964C51.6841 24.8692 52.1655 24.8015 52.5975 24.6018C53.0295 24.4021 53.3929 24.0793 53.6421 23.6738C53.8913 23.2683 54.0152 22.7983 53.9982 22.3227C53.9813 21.8471 53.8242 21.387 53.5467 21.0004C53.2693 20.6137 52.8838 20.3175 52.4387 20.1491C51.9936 19.9807 51.5086 19.9475 51.0447 20.0536C50.5808 20.1598 50.1585 20.4006 49.831 20.7459C49.5034 21.0911 49.2851 21.5255 49.2035 21.9943L48.6721 24.1385C49.0214 24.3701 49.3655 24.6083 49.7044 24.853Z" fill="#FF6359"/>
<path d="M51.2137 83.6216L51.3928 84.782C51.5946 84.7506 51.801 84.7695 51.9938 84.837C52.1866 84.9045 52.3597 85.0185 52.4979 85.1689C52.6361 85.3193 52.735 85.5015 52.786 85.6993C52.8369 85.8971 52.8383 86.1044 52.7899 86.3028C52.7416 86.5012 52.6451 86.6847 52.5089 86.8369C52.3727 86.9891 52.2011 87.1054 52.0092 87.1754C51.8173 87.2454 51.6112 87.267 51.409 87.2383C51.2067 87.2096 51.0147 87.1315 50.8499 87.0108C50.7181 86.9148 50.6067 86.7935 50.5221 86.6541C50.4376 86.5147 50.3815 86.3599 50.3572 86.1986C50.3521 86.1689 50.345 86.1395 50.3359 86.1107L49.6386 83.2939C49.2995 83.5362 48.9529 83.7703 48.6039 84.0002L49.2042 86.4236C49.3018 86.983 49.5932 87.4901 50.0274 87.856C50.4615 88.222 51.0106 88.4234 51.5784 88.425C51.704 88.4248 51.8295 88.4151 51.9537 88.3962C52.5787 88.2892 53.1365 87.9408 53.5069 87.4261C53.8773 86.9115 54.0305 86.2719 53.9335 85.6452C53.8365 85.0186 53.4971 84.4552 52.9884 84.0767C52.4798 83.6981 51.8427 83.5347 51.2146 83.6216H51.2137Z" fill="#FF6359"/>
<path d="M17.3226 83.293L16.627 86.1032C16.6165 86.1336 16.6088 86.165 16.604 86.1968C16.5818 86.3603 16.5272 86.5176 16.4434 86.6598C16.3597 86.8019 16.2485 86.9259 16.1163 87.0245C15.9841 87.1231 15.8335 87.1945 15.6735 87.2343C15.5134 87.2741 15.347 87.2816 15.184 87.2564C15.021 87.2312 14.8646 87.1738 14.724 87.0875C14.5835 87.0012 14.4615 86.8877 14.3653 86.7538C14.269 86.6198 14.2004 86.468 14.1635 86.3072C14.1266 86.1465 14.1221 85.98 14.1502 85.8174C14.2018 85.4926 14.3796 85.2014 14.645 85.0071C14.9103 84.8129 15.2417 84.7313 15.5669 84.7802L15.7467 83.6198C15.1186 83.5329 14.4815 83.6963 13.9728 84.0749C13.4642 84.4535 13.1247 85.0168 13.0277 85.6434C12.9307 86.2701 13.0839 86.9097 13.4543 87.4244C13.8247 87.939 14.3826 88.2874 15.0076 88.3944C15.1321 88.4134 15.2578 88.423 15.3837 88.4232C15.9506 88.4216 16.499 88.2208 16.9328 87.8559C17.3667 87.4909 17.6584 86.9851 17.7571 86.4268L18.3582 83.9984C18.0075 83.7685 17.6618 83.5344 17.3226 83.293Z" fill="#FF6359"/>
<path d="M15.7466 24.7947L15.5667 23.6343C15.3241 23.6719 15.0757 23.6366 14.853 23.533C14.6304 23.4294 14.4435 23.2621 14.3159 23.0523C14.1883 22.8425 14.1259 22.5996 14.1363 22.3542C14.1468 22.1089 14.2298 21.8722 14.3748 21.674C14.5199 21.4758 14.7204 21.3251 14.951 21.2409C15.1817 21.1567 15.4321 21.1427 15.6707 21.2008C15.9093 21.2589 16.1253 21.3865 16.2914 21.5673C16.4575 21.7482 16.5663 21.9743 16.6039 22.2169C16.6087 22.2484 16.6161 22.2795 16.6261 22.3097L17.256 24.8555C17.5943 24.6108 17.9384 24.3724 18.2883 24.1402L17.7561 21.9903C17.6734 21.5218 17.4542 21.0883 17.1261 20.7439C16.798 20.3995 16.3755 20.1596 15.9117 20.0543C15.4478 19.949 14.9632 19.983 14.5185 20.152C14.0739 20.321 13.689 20.6175 13.4122 21.0043C13.1353 21.3911 12.9788 21.851 12.9623 22.3264C12.9457 22.8018 13.0699 23.2715 13.3192 23.6766C13.5685 24.0817 13.9318 24.4042 14.3636 24.6037C14.7954 24.8032 15.2765 24.8708 15.7466 24.798V24.7947Z" fill="#FF6359"/>
<path d="M34.0756 101.095V94.9691L43.491 81.7228L42.5334 81.0428L33.4885 93.7677L24.4443 81.0428L23.4875 81.7228L32.9013 94.9691V101.091C32.4399 101.205 32.0225 101.454 31.7013 101.804C31.38 102.155 31.169 102.592 31.0946 103.062V103.062C30.9975 103.695 31.1554 104.34 31.5337 104.857C31.9119 105.374 32.4796 105.719 33.1123 105.818C33.2349 105.837 33.3587 105.847 33.4827 105.847C34.0716 105.848 34.6405 105.633 35.0821 105.243C35.5238 104.853 35.8079 104.316 35.8809 103.731C35.954 103.147 35.811 102.556 35.4788 102.07C35.1466 101.583 34.6482 101.235 34.0773 101.091L34.0756 101.095ZM34.7071 103.626C34.6695 103.868 34.5608 104.094 34.3947 104.275C34.2286 104.456 34.0125 104.584 33.774 104.642C33.5354 104.7 33.2849 104.686 33.0543 104.602C32.8236 104.518 32.6231 104.367 32.4781 104.169C32.333 103.97 32.2501 103.734 32.2396 103.488C32.2291 103.243 32.2916 103 32.4191 102.79C32.5467 102.58 32.7336 102.413 32.9563 102.31C33.1789 102.206 33.4272 102.171 33.6699 102.208C33.8312 102.233 33.9859 102.289 34.1253 102.374C34.2648 102.459 34.3861 102.57 34.4825 102.702C34.5788 102.834 34.6482 102.983 34.6868 103.141C34.7253 103.3 34.7322 103.464 34.7071 103.626V103.626Z" fill="#EDBC00"/>
<path d="M42.4203 102.352L38.9079 88.1702L38.0111 89.4324L41.0751 101.807C41.529 101.974 41.9773 102.156 42.4203 102.352Z" fill="#5D69FF"/>
<path d="M25.8845 101.807L28.9534 89.4136L28.0558 88.1514L24.5393 102.351C24.9828 102.156 25.4312 101.974 25.8845 101.807Z" fill="#5D69FF"/>
<path d="M40.9281 85.3288L44.0832 98.0718C44.0935 98.102 44.1012 98.1331 44.1062 98.1646C44.1437 98.4073 44.2523 98.6335 44.4184 98.8144C44.5844 98.9954 44.8004 99.1231 45.039 99.1813C45.2776 99.2396 45.528 99.2257 45.7588 99.1416C45.9895 99.0574 46.1901 98.9068 46.3352 98.7086C46.4803 98.5104 46.5634 98.2737 46.5739 98.0283C46.5844 97.7829 46.522 97.54 46.3944 97.3301C46.2668 97.1202 46.0799 96.9529 45.8572 96.8493C45.6345 96.7457 45.3861 96.7104 45.1434 96.748L44.9627 95.5876C45.2787 95.5335 45.6022 95.5428 45.9145 95.615C46.2268 95.6872 46.5216 95.8207 46.7818 96.008C47.042 96.1952 47.2623 96.4324 47.4299 96.7056C47.5975 96.9788 47.7091 97.2826 47.7581 97.5994C47.8071 97.9161 47.7926 98.2395 47.7155 98.5506C47.6383 98.8617 47.5 99.1543 47.3087 99.4115C47.1173 99.6686 46.8766 99.8851 46.6008 100.048C46.3249 100.212 46.0193 100.318 45.7018 100.362C45.5779 100.381 45.4527 100.391 45.3274 100.391C44.7604 100.389 44.2121 100.189 43.7782 99.8236C43.3444 99.4587 43.0527 98.9528 42.954 98.3945L40.0321 86.591L40.9281 85.3288ZM21.2581 100.362C21.3823 100.381 21.5077 100.391 21.6334 100.391C22.2013 100.389 22.7506 100.188 23.1847 99.8219C23.6189 99.4557 23.9102 98.9483 24.0075 98.3888L26.9344 86.573L26.0368 85.3099L22.8759 98.0751C22.8666 98.1041 22.8595 98.1337 22.8545 98.1638C22.817 98.4065 22.7084 98.6327 22.5424 98.8136C22.3763 98.9946 22.1604 99.1223 21.9218 99.1805C21.6832 99.2388 21.4327 99.2249 21.2019 99.1408C20.9712 99.0566 20.7706 98.9059 20.6255 98.7078C20.4804 98.5096 20.3973 98.2729 20.3868 98.0275C20.3763 97.7821 20.4387 97.5391 20.5663 97.3293C20.6939 97.1194 20.8808 96.9521 21.1035 96.8485C21.3262 96.7448 21.5746 96.7096 21.8173 96.7472L21.998 95.5868C21.682 95.5327 21.3585 95.542 21.0462 95.6142C20.7339 95.6863 20.4391 95.8199 20.1789 96.0072C19.9188 96.1944 19.6985 96.4315 19.5308 96.7047C19.3632 96.978 19.2516 97.2818 19.2026 97.5986C19.1536 97.9153 19.1681 98.2387 19.2452 98.5498C19.3224 98.8609 19.4607 99.1535 19.6521 99.4107C19.8434 99.6678 20.084 99.8843 20.3599 100.047C20.6358 100.211 20.9414 100.317 21.2589 100.361L21.2581 100.362ZM39.4449 101.266L36.8991 90.9945L36.0023 92.2567L38.3839 101.881C38.4093 101.983 38.4613 102.076 38.5346 102.151C38.608 102.226 38.7 102.28 38.8011 102.307L38.9653 102.35C42.1458 103.241 45.0902 104.823 47.5882 106.984L48.3569 106.097C45.7709 103.86 42.7303 102.211 39.4449 101.265V101.266ZM30.0632 90.9764L27.5174 101.266C24.2331 102.212 21.1935 103.86 18.6088 106.097L19.3774 106.984C21.8732 104.825 24.8147 103.243 27.9921 102.351L28.1563 102.307C28.2574 102.279 28.3493 102.225 28.4226 102.151C28.496 102.076 28.548 101.983 28.5735 101.881L30.9608 92.2386L30.0632 90.9764Z" fill="#FF6359"/>
<path d="M25.5297 19.6636L25.1306 18.0524L23.0562 21.4925L20.3814 25.9271L6.58975 48.8015L3.91665 53.2362L1.69934 56.9169L3.86821 59.9702L7.55879 65.167L18.95 81.2055L22.6456 86.4039L24.9639 89.6682L25.3367 88.1646L14.4505 72.8397L15.4631 68.7533C15.4834 68.6712 15.4858 68.5857 15.47 68.5027C15.4543 68.4196 15.4208 68.3409 15.3719 68.272L7.26561 56.857L14.4924 44.867C14.5727 44.7337 14.5969 44.5739 14.5598 44.4228L13.41 39.7623L25.5313 19.6628L25.5297 19.6636ZM6.06088 56.581C6.00205 56.679 5.97305 56.792 5.97742 56.9062C5.9818 57.0204 6.01936 57.1309 6.08551 57.2241L14.2584 68.7319L13.5537 71.5766L3.10036 56.8578L12.551 41.1863L13.364 44.4712L6.06088 56.581Z" fill="#EDBC00"/>
<path d="M11.2069 88.9596V77.6037C10.8012 77.1142 10.4097 76.613 10.0325 76.1V79.3964C4.28026 72.1935 1.15605 63.2445 1.17561 54.0266C1.19517 44.8088 4.35734 35.8731 10.1401 28.6947V31.9188C10.5173 31.4058 10.9088 30.9035 11.3145 30.4119V27.3569L11.3317 27.338L11.3145 27.3224V19.0634H24.5198L25.13 18.0524L25.0897 17.8882H10.1393V26.9143C3.61811 34.4459 0.0198284 44.0697 8.17071e-05 54.0321C-0.019665 63.9946 3.54043 73.6326 10.0317 81.19V90.1298H24.8417L24.9567 89.6626L24.4549 88.9555L11.2069 88.9596Z" fill="#5D69FF"/>
<path d="M31.0929 4.02159C31.1637 4.49262 31.3735 4.9318 31.6954 5.28292C32.0172 5.63404 32.4365 5.88112 32.8996 5.99254V12.0778L24.3589 26.2366L25.3649 26.8427L33.4844 13.3745L41.6046 26.8427L42.6106 26.2366L34.0699 12.0778V5.98104C34.6693 5.82747 35.1867 5.44923 35.515 4.92465C35.8432 4.40007 35.9571 3.76934 35.8331 3.16309C35.7091 2.55685 35.3567 2.02152 34.8488 1.66797C34.3409 1.31443 33.7165 1.16976 33.1049 1.26391C32.4721 1.36262 31.9043 1.7083 31.526 2.22513C31.1478 2.74196 30.9899 3.38773 31.0872 4.02077L31.0929 4.02159ZM33.2905 2.42431C33.5332 2.38677 33.7816 2.42203 34.0042 2.52563C34.2268 2.62923 34.4138 2.79652 34.5413 3.00634C34.6689 3.21616 34.7314 3.45911 34.7209 3.70444C34.7104 3.94978 34.6274 4.1865 34.4824 4.38467C34.3374 4.58284 34.1369 4.73356 33.9062 4.81778C33.6756 4.90201 33.4251 4.91594 33.1865 4.85783C32.9479 4.79972 32.7319 4.67218 32.5658 4.49132C32.3997 4.31046 32.291 4.0844 32.2533 3.84174C32.2031 3.51626 32.2841 3.18413 32.4785 2.91835C32.673 2.65256 32.9651 2.47487 33.2905 2.42431V2.42431Z" fill="#EDBC00"/>
<path d="M41.0753 5.21409L37.8331 18.3069L38.6913 19.7293L42.4205 4.66962C41.9776 4.86507 41.5292 5.04656 41.0753 5.21409Z" fill="#5D69FF"/>
<path d="M24.5393 4.66876L28.2734 19.7498L29.1316 18.3274L25.8845 5.21405C25.4312 5.04652 24.9828 4.86476 24.5393 4.66876Z" fill="#5D69FF"/>
<path d="M65.0639 56.581L42.2018 18.6691L41.8297 18.0524L41.5399 19.221L41.4298 19.6644L53.5511 39.7648L52.4014 44.4244C52.3639 44.5755 52.3878 44.7352 52.4679 44.8687L59.6947 56.8586L51.5884 68.2736C51.5393 68.3425 51.5058 68.4212 51.4901 68.5043C51.4743 68.5874 51.4768 68.6729 51.4972 68.7549L52.509 72.8421L41.6294 88.1621L42.0014 89.665L44.3205 86.4006L48.016 81.2014L59.4065 65.1628L63.0979 59.9653L65.0442 57.2249C65.1098 57.1311 65.1465 57.0203 65.15 56.9059C65.1535 56.7915 65.1236 56.6786 65.0639 56.581V56.581ZM53.4066 71.5766L52.702 68.7319L60.8748 57.2241C60.941 57.1309 60.9785 57.0204 60.9829 56.9062C60.9873 56.792 60.9583 56.679 60.8995 56.581L53.5963 44.4704L54.4093 41.1855L63.86 56.857L53.4066 71.5766Z" fill="#EDBC00"/>
<path d="M56.8184 26.8954V17.889H41.872L41.8318 18.0533L41.9041 18.174L41.9509 18.2504L42.2038 18.67L42.4411 19.0642H55.6465V30.4127C56.0538 30.9055 56.4453 31.4078 56.8208 31.9197V28.6758C62.6148 35.8568 65.7837 44.8005 65.8034 54.0273C65.8231 63.2542 62.6924 72.2113 56.9292 79.417V76.1008C56.5525 76.6133 56.1611 77.1145 55.7549 77.6045V88.9596H42.5036L42.001 89.6667L42.1168 90.134H56.9268V81.2105C63.4285 73.6503 66.9949 64.0042 66.975 54.0328C66.9551 44.0614 63.3502 34.4296 56.8184 26.8954Z" fill="#5D69FF"/>
<path d="M30.1926 16.5686L31.0499 15.1462L28.5723 5.14118C28.5469 5.03968 28.495 4.94677 28.4218 4.872C28.3486 4.79723 28.2569 4.74332 28.1559 4.71579L27.9917 4.67144C24.8128 3.78019 21.8698 2.19808 19.3729 0.0380859L18.6042 0.925006C21.1893 3.16102 24.2288 4.80938 27.5129 5.75628L30.1926 16.5686Z" fill="#FF6359"/>
<path d="M36.7729 16.5479L39.4444 5.75613C42.7291 4.80964 45.769 3.16092 48.3538 0.924035L47.5852 0.0371094C45.0891 2.19672 42.147 3.77856 38.9689 4.66965L38.8046 4.71482C38.7037 4.74224 38.612 4.79614 38.5389 4.87093C38.4659 4.94573 38.4141 5.0387 38.3891 5.14021L35.9164 15.1255L36.7729 16.5479Z" fill="#FF6359"/>
<path d="M45.6981 6.65873C45.0734 6.56331 44.4361 6.71609 43.9226 7.08442C43.4091 7.45274 43.0601 8.00736 42.9502 8.62968L39.7606 21.5106L40.618 22.933L44.0794 8.95242C44.0896 8.92188 44.0973 8.89057 44.1024 8.8588C44.1336 8.65696 44.214 8.46592 44.3367 8.3026C44.4593 8.13929 44.6204 8.00875 44.8055 7.92255C44.9907 7.83635 45.1942 7.79715 45.3981 7.80842C45.6021 7.8197 45.8001 7.88109 45.9746 7.98718C46.1491 8.09327 46.2948 8.24077 46.3987 8.4166C46.5025 8.59244 46.5614 8.79118 46.5701 8.99523C46.5789 9.19928 46.5371 9.40233 46.4486 9.58638C46.3601 9.77044 46.2275 9.92982 46.0627 10.0504C45.9314 10.1475 45.7821 10.2175 45.6235 10.2561C45.4648 10.2948 45.3 10.3013 45.1388 10.2754L44.9598 11.4358C45.2757 11.4899 45.5993 11.4806 45.9116 11.4084C46.2239 11.3362 46.5187 11.2026 46.7788 11.0154C47.039 10.8282 47.2593 10.591 47.4269 10.3178C47.5946 10.0446 47.7061 9.74077 47.7551 9.42401C47.8042 9.10725 47.7897 8.7839 47.7125 8.4728C47.6354 8.16169 47.4971 7.86905 47.3057 7.61192C47.1143 7.35478 46.8737 7.1383 46.5978 6.97508C46.322 6.81186 46.0164 6.70516 45.6989 6.6612L45.6981 6.65873Z" fill="#FF6359"/>
<path d="M27.2005 21.5286L24.0067 8.63529C23.9252 8.16654 23.7072 7.7323 23.3798 7.38705C23.0524 7.0418 22.6304 6.80091 22.1667 6.69463C21.7029 6.58836 21.2181 6.62142 20.7731 6.78966C20.328 6.95791 19.9426 7.25384 19.6651 7.64034C19.3877 8.02683 19.2306 8.48666 19.2135 8.96212C19.1964 9.43759 19.3201 9.90751 19.5691 10.3129C19.8181 10.7183 20.1813 11.0412 20.6132 11.2409C21.045 11.4406 21.5262 11.5084 21.9963 11.4357L21.8173 10.2753C21.5746 10.313 21.3261 10.2779 21.1034 10.1744C20.8806 10.0709 20.6936 9.90368 20.5659 9.69385C20.4382 9.48402 20.3756 9.24103 20.386 8.99562C20.3964 8.75021 20.4794 8.51341 20.6244 8.31516C20.7695 8.11692 20.97 7.96615 21.2008 7.88192C21.4315 7.79769 21.682 7.78378 21.9207 7.84197C22.1593 7.90015 22.3754 8.0278 22.5414 8.20878C22.7075 8.38975 22.8162 8.61592 22.8537 8.85867C22.8588 8.88807 22.8656 8.91714 22.8742 8.94571L26.3431 22.9534L27.2005 21.5286Z" fill="#FF6359"/>
<path d="M10.5616 58.2722L33.4804 90.4733L56.3992 58.2722L33.4804 71.9094L10.5616 58.2722ZM32.1295 74.1777C32.1394 74.1834 32.15 74.1867 32.1599 74.1924V84.0595L19.9811 66.9509L32.1295 74.1777ZM46.9797 66.9509L34.801 84.0619V74.1949C34.8108 74.1892 34.8215 74.1859 34.8313 74.1801L46.9797 66.9509Z" fill="#050022"/>
<path d="M56.3991 55.1588L33.4803 17.0826L10.5615 55.1588L33.4803 68.7969L56.3991 55.1588ZM34.8008 64.9372V48.0856L50.7392 55.4536L34.8008 64.9372ZM16.2214 55.4536L32.1598 48.0864V64.938L16.2214 55.4536ZM34.8008 45.1768V24.3998L52.1287 53.1846L34.8008 45.1768ZM32.1598 24.3998V45.1768L14.8319 53.1854L32.1598 24.3998Z" fill="#050022"/>
<path d="M46.5785 25.9281C50.5028 28.4001 53.794 31.7563 56.1889 35.7282C58.5837 39.7001 60.0157 44.1773 60.3702 48.8017L63.0425 53.2363L63.0786 52.2911C63.3157 45.9925 61.7082 39.7617 58.4536 34.3638C55.199 28.966 50.4389 24.6361 44.7579 21.9057L43.9038 21.4951L46.5785 25.9281Z" fill="#050022"/>
<path d="M59.4023 65.1613C57.5358 71.6455 53.5189 77.3018 48.0119 81.2007L44.3164 86.399L45.4292 85.8365C50.1291 83.4623 54.1791 79.9776 57.2281 75.6845C60.277 71.3914 62.2329 66.4195 62.9262 61.1997L63.0905 59.9678L59.4023 65.1613Z" fill="#050022"/>
<path d="M3.91688 53.2305L6.58997 48.7959C6.94475 44.172 8.37684 39.6953 10.7717 35.724C13.1665 31.7527 16.4576 28.397 20.3816 25.9255L23.0564 21.4909L22.2023 21.9015C16.5212 24.6318 11.7611 28.9617 8.50644 34.3596C5.25182 39.7574 3.6444 45.9882 3.88156 52.2869L3.91688 53.2305Z" fill="#050022"/>
<path d="M18.9484 81.2008C13.4409 77.3018 9.42375 71.6452 7.55716 65.1606L3.86658 59.9639L4.03082 61.1957C4.72389 66.4156 6.67969 71.3876 9.72867 75.6807C12.7776 79.9738 16.8277 83.4585 21.5279 85.8325L22.6406 86.395L18.9484 81.2008Z" fill="#050022"/>
</svg>
