<?xml version="1.0" encoding="UTF-8"?>
<svg data-bbox="44.91 34.058 452.379 510.951" viewBox="0 0 548.411 595.276" xmlns="http://www.w3.org/2000/svg" data-type="ugc">
    <g>
        <path d="M471.005 425.096l-4.13.168c-.39-5.512-2.745-11.565-7.523-17.513-8.197-29.66-26.574-53.006-41.226-67.852-8.457-20.014-17.004-36.486-22.315-46.176.285-.061.49-.09.598-.095l.512-.016c7.49-.305 14.588-3.16 19.984-8.035 2.927-2.643 5.3-5.537 7.082-8.632 9.503-5.796 12.05-12.923 12.454-18.06 1.159-14.744-14.034-25.22-17.037-27.135-.08-.052-7.253-4.678-19.932-10.853L415.39 92.564c.748-6.032-1.185-11.985-5.304-16.33-27.593-29.13-63.138-43.671-102.792-42.055-33.038 1.347-58.946 13.452-63.805 15.865-5.752 2.858-9.836 8.355-10.925 14.705l-22.981 134.146c-28.306 7.405-42.584 17.404-44.79 31.264-1.268 7.953 1.922 15.946 9.064 23.052-7.213 10.8-11.655 19.726-13.439 23.545-14.565 9.825-19.063 26.722-18.28 39.873.953 15.979 9.009 28.807 20.668 33.781l-.668 27.11c-2.933.288-5.874.493-8.819.614-21.541.878-38.91-3.002-48.092-5.685l9.398-40.424c14.832-7.077 27.36-25.308 32.665-48.127 3.962-17.04 3.198-34.232-2.093-47.166-1.558-3.813-4.802-6.535-8.715-7.442-1.187-4.184-4.452-7.468-8.782-8.506a11.988 11.988 0 0 0-3.276-.32c-.947.04-1.874.19-2.766.444a11.936 11.936 0 0 0-5.385-2.781 11.967 11.967 0 0 0-3.107-.282c-3.263.133-6.282 1.603-8.492 4.052a12.436 12.436 0 0 0-3.349-.315 12.514 12.514 0 0 0-7.775 3.14c-10.457 9.274-18.727 24.366-22.689 41.406-5.305 22.82-2.104 44.707 8.083 57.6l-1.358 5.841a12.386 12.386 0 0 0-2.099-.093c-2.326.095-6.77.994-10.393 5.948-4.294 5.871-5.1 12.803-4.633 18.77a16.497 16.497 0 0 0-3.384 5.298L46.08 387.129a16.576 16.576 0 0 0 .503 13.372 16.49 16.49 0 0 0 10.177 8.58c.742.217 1.477.413 2.204.587l-7.761 33.382c-2.099 3.055-2.852 6.778-2.088 10.379a18.27 18.27 0 0 0 2.743 10.5c.245.393.511.783.795 1.165a10.135 10.135 0 0 0 5.708 5.078 18.21 18.21 0 0 0 4.889 1.91 18.21 18.21 0 0 0 9.866-.434l1.22 29.912c.298 7.307 3.96 13.998 9.698 18.222l.038.614c2.37 1.698 5.257 2.977 8.339 3.986l24.82.014 6.854-.004 8.312.011h26.329l-.028-.028 234.088-.036-1.934 5.047 6.465 5.24c1.45 1.174 14.968 11.434 42.897 10.295 8.276-.337 17.133-1.65 26.327-3.901l4.427-1.085 2.475-3.83c.41-.636 3.519-5.539 6.484-12.658A23.678 23.678 0 0 0 490.67 517c4.521-4.721 6.864-10.914 6.599-17.438l-2.112-51.785c-.534-13.108-11.633-23.338-24.152-22.681z" fill="#ffffff"/>
        <path d="M470.65 433.39l-15.77.643a100.819 100.819 0 0 0-.232-3.708 7.005 7.005 0 0 0 1.77-1.716c4.115-5.657-2.84-14.49-4.275-16.204l-.346.29c-7.68-30.731-27.65-54.79-40.95-68.038-11.663-27.867-23.723-49.13-26.866-54.524 4.628-3.516 9.492-4.945 12.104-5.023 5.695-.145 11.01-2.237 15.031-5.87 2.924-2.64 5.04-5.479 6.395-8.477 6.491-3.383 9.982-7.609 10.373-12.59.796-10.128-11.784-18.46-13.2-19.364-.27-.175-9.222-5.883-24.484-12.93l16.671-134.407c.436-3.51-.674-6.958-3.046-9.461-64.019-67.58-147.382-29.044-156.677-24.428a11.789 11.789 0 0 0-6.343 8.547l-23.917 139.604c-27.745 6.54-42.133 14.998-43.84 25.709-1.427 8.97 6.713 16.393 12.065 20.226-11.479 15.787-17.356 29.076-17.872 30.265l.447.194c-13.609 7.413-17.894 22.328-17.202 33.948.867 14.55 8.722 25.685 19.546 27.708.438.081.868.148 1.296.208l1.48 19.264 6.896 1.625c.416.145.843.25 1.279.3l4.863 1.147v.013l.089.007.528.125.014-.08 5.8.486c.098.553-1.978 13.135-5.858 14.92-47.785 12.047-85.953-1.711-91.302-3.804l12.15-52.26c13.883-4.221 26.492-21.574 31.66-43.805 3.574-15.37 2.96-30.693-1.683-42.042a4.01 4.01 0 0 0-3.469-2.493 4.066 4.066 0 0 0-3.829 2.039l-.163.282-1.9 7.999.504-14.843c.037-1.926-1.075-3.491-2.764-3.896-1.706-.408-3.418.484-4.26 2.223l-5.841 15.567 1.614-16.34.011-.207c.01-1.932-1.132-3.49-2.843-3.875-1.696-.381-3.381.533-4.214 2.308l-6.083 13.523 1.825-8.027-.022-.326a4.071 4.071 0 0 0-2.536-3.519 4.01 4.01 0 0 0-4.212.708c-9.175 8.137-16.485 21.618-20.058 36.987-5.169 22.231-1.508 43.366 9.087 53.279l-5.681 24.437c-1.28-3.819-3.087-7.106-5.594-7.712-1.265-.305-3.154-.142-4.994 2.376-4.027 5.506-3.328 13.069-2.357 17.673-.097.037-.2.052-.296.093a7.988 7.988 0 0 0-4.33 4.431l-10.997 27.639a8.083 8.083 0 0 0 .244 6.52 8 8 0 0 0 4.936 4.165c3.343.976 6.395 1.406 9.094 1.296.413-.017.795-.081 1.19-.123l-10.41 44.779c-1.487 1.385-2.227 3.544-1.3 5.726a9.76 9.76 0 0 0 1.343 6.822c.306.491.656.944 1.034 1.367.114.652.549 1.245 1.367 1.45.117.03.223.037.338.062a9.826 9.826 0 0 0 3.388 1.505 9.785 9.785 0 0 0 7.433-1.231 9.778 9.778 0 0 0 4.383-6.128l8.215-35.331c.504.37 1.075.771 1.687 1.192a2.461 2.461 0 0 0 1.783 1.186c10.118 6.53 31.587 17.16 68.74 21.615-.268.269-.533.54-.81.805l.282.295-60.887 2.482c-8.448.345-15.035 7.492-14.691 15.932l1.49 36.566a15.288 15.288 0 0 0 9.429 13.535c.016.39.031.77.055 1.16l24.941.014 6.87-.004 8.301.011h5.986a.028.028 0 0 1-.01-.024l266.886-.043a346.918 346.918 0 0 0-3.52 8.787l-.775 2.025 1.685 1.366c.6.486 12.033 9.44 37.22 8.413 7.102-.29 15.3-1.374 24.655-3.664l1.155-.283.645-.998c.3-.465 4.374-6.856 7.442-15.662.123-.003.248-.005.37-.01a15.178 15.178 0 0 0 10.414-4.697c2.914-3.042 4.424-7.026 4.253-11.234l-2.111-51.785c-.344-8.44-7.492-15.027-15.932-14.683zm-278.961-32.74c-.637.048-1.268.082-1.915.16-.04-.14-.084-.299-.129-.466.668.105 1.349.208 2.044.306zm-26.873 45.12l10.592-.344-10.672.435.08-.09zm283.382-19.792l-.206.004-.264-.704c.127-.03.251-.077.374-.129.037.275.061.554.096.83z" fill="#ffffff"/>
        <path d="M328.53 209.808l-42.403-6.465-32.427-1.019-28.27 14.809-20.86 5.142-11.042 6.693-.065 17.561-11.408 16.853-6.456 13.92 28.778-2.344 29.58 7.768 11.225 7.346 3.79 8.533c3.496 2.609 6.18 6.341 8.38 10.087l23.579-12.664-18.561-19.571-.436-25.306 6.193-10.787 15.916-11.574 17.87-1.9 14.246 4.883 12.147 10.82 8.879 16.806-5.892 18.188 25.272-2.2 31.077-32.092 10.4-10.471-69.512-23.016z" fill="#a26549"/>
        <path d="M339.863 277.238l3.633 2.973-6.21 10.398-9.15-4.309-14.468 8.784-19.398 2.741-13.013-3.371-27.618 11.66 4.762 11.512-1.997 18.03-10.836 11.757-1.407 13.323-5.67 23.642-7.902 16.71-13.579 11.479-17.648 7.352-15.75-5.893-5.925-1.758-16.127 34.157 272.228-9.14s-14.059-86.437-53.947-146.07l8.268-7.75 12.075-.492 11.09-5.525 3.062-11.05-1.24-11.265-10.715-14-11.861-3.808-21.63-4.19-29.027 44.103z" fill="#a26549"/>
        <path fill="#a26549" d="M81.188 414.007l38.009 20.691 43.923 7.866 14.323-29.116-9.367-7.226.764-9.981 6.32-2.891 7.103-5.216-48.816 1.67-39.901-8.422-12.358 32.625z"/>
        <path d="M176.832 449.906l3.834-8.932c2.585-6.02 7.676-9.875 13.347-10.107l66.916-2.728c5.793-.236 11.28 3.344 14.306 9.335l4.458 8.824" fill="#cb884e"/>
        <path fill="#a26549" d="M55.754 393.096l3.697 4.532 14.62-.304 9.712-12.979-.434-17.833-13.093-5.319-14.502 31.903z"/>
        <path fill="#a26549" d="M71.413 358.598l1.508-16.389 6.111-.834 3.24 9.299-1.762 12.589-9.097-4.665z"/>
        <path d="M486.592 448.333c-.344-8.44-7.491-15.027-15.931-14.683l-20.773.847.011-.13-5.732.225-.01.138-57.81 2.357a.568.568 0 0 0-.085-.11l-.076-.086-6.13.25.179.195-215.748 8.796.185-.438-6.252.247-.184.445-62.333 2.542c-8.448.344-15.036 7.491-14.692 15.932l1.491 36.566a15.285 15.285 0 0 0 9.34 13.495c1.36.54 2.748.906 4.158 1.202l309.862-.048.008.186 5.701.003a12.116 12.116 0 0 1 .136-3.027c.17-1.014.457-1.96.81-2.843 1.158-2.89 3.076-5.055 4.302-6.242 11.763 4.865 21.502 6.092 28.969 5.788a50.493 50.493 0 0 0 3.594-.285c4.099-.468 7.343-1.363 9.656-2.213a84.763 84.763 0 0 1-.01 2.949 73.221 73.221 0 0 1-.104 2.838c-.049.985-.108 1.93-.184 2.842l-.016.22 5.726.002.015-.228 8.73.001c.22 0 .43-.009.641-.018a15.178 15.178 0 0 0 10.415-4.696c2.913-3.042 4.424-7.027 4.252-11.234l-2.11-51.785z" fill="#643a2f"/>
        <path d="M459.238 507.442a84.76 84.76 0 0 1-.01 2.949 73.154 73.154 0 0 1-.104 2.838c-.049.985-.108 1.93-.184 2.842l-.016.22-47.153-.027a12.107 12.107 0 0 1 .136-3.027c.17-1.014.457-1.96.81-2.843 1.158-2.89 3.076-5.055 4.302-6.241 11.763 4.864 21.502 6.091 28.969 5.787a50.512 50.512 0 0 0 3.594-.285c4.099-.468 7.343-1.363 9.656-2.213z" fill="#d8723b"/>
        <path d="M122.49 508.258a51.837 51.837 0 0 1-6.066 2.188c-9.424 2.699-15.896 1.322-18.688.38l.009-.39a58.9 58.9 0 0 1 .149-3.116 43.176 43.176 0 0 1 3.637-13.581l3.357 6.855 3.252 6.649.38.772 2.018-6.871c2.341-5.935 5.025-10.21 7.019-12.915.062-.076.123-.167.176-.243l3.376 8.106 4.475 10.748a63.213 63.213 0 0 1-3.093 1.418z" fill="#643a2f"/>
        <path d="M451.094 503.705c-6.857 1.14-17.353 1.049-31.083-4.458l4.822-14.595 4.171-12.62c2.282 2.384 5.585 6.31 8.965 11.938a82.355 82.355 0 0 1 3.053 5.56l2.565 6.547.318-.784 6.634-16.562.538-1.338c2.313 3.747 5.458 9.962 7.08 18.066.357 2.015.61 4.02.78 5.986-1.508.678-4.149 1.647-7.843 2.26z" fill="#643a2f"/>
        <path d="M483.028 500.349a9.546 9.546 0 0 1-2.676 7.069 9.477 9.477 0 0 1-6.767 2.956c-.064.002-.129.013-.186.007l-8.462.004a79.15 79.15 0 0 0 .007-3.2 69.045 69.045 0 0 0-.08-2.587l.023-.017-.084-1.654a62.417 62.417 0 0 0-1.02-8.299c-1.76-9.909-5.464-18.285-10.97-24.647-.153-.18-.256-.306-.298-.345l-3.05-3.506-1.652 4.12-1.946 4.854-2.454 6.143c-.264-.501-.553-1.017-.85-1.55a62.424 62.424 0 0 0-2.456-4.041c-2.786-4.215-6.439-8.541-10.781-11.068l-3.06-2.369-.182.535-1.164 3.532-6.174 18.679-4.7 14.209c-1.686 1.449-5.716 5.398-7.322 11.221l-271.175.043a20.646 20.646 0 0 0-4.034-4.124l-10.65-25.586-1.234-2.963-2.879 2.684c-4.214 3.014-7.292 8.378-9.214 12.639l-5.386-11.004-2.745 3.79-.015.026-.016.017-.192.275c-.069.1-.145.226-.244.368-3.698 5.307-5.96 12.002-6.66 19.738a53.96 53.96 0 0 0-.18 2.127 9.628 9.628 0 0 1-3.722-7.23l-1.491-36.567c-.217-5.31 3.929-9.808 9.247-10.025l374.758-15.278c5.31-.216 9.808 3.929 10.025 9.24l2.11 51.784z" fill="#643a2f"/>
        <path d="M97.745 510.434c-.003.131-.008.263-.01.395 2.794.939 9.263 2.32 18.69-.385l-18.408.003c-.092 0-.181-.01-.272-.013z" fill="#643a2f"/>
        <path fill="#56585a" d="M101.53 493.739l3.355 6.852-3.355-6.852z"/>
        <path d="M424.832 484.648l-4.824 14.596c13.733 5.514 24.231 5.605 31.086 4.463l-.556-24.973-6.635 16.563-.313.78-2.564-6.545a82.696 82.696 0 0 0-3.06-5.565l-13.134.681z" fill="#56585a"/>
        <path d="M429.003 472.03l-4.17 12.618 13.133-.68c-3.38-5.628-6.681-9.554-8.963-11.938z" fill="#56585a"/>
        <path d="M450.538 478.734l.556 24.973c3.694-.615 6.334-1.587 7.844-2.264a69.158 69.158 0 0 0-.784-5.982c-1.616-8.106-4.762-14.323-7.08-18.066l-.536 1.339z" fill="#56585a"/>
        <path d="M117.557 488.232c-1.997 2.705-4.68 6.98-7.019 12.912l-2.02 6.868-.377-.77-3.256-6.651-3.355-6.852a43.223 43.223 0 0 0-3.635 13.585 53.713 53.713 0 0 0-.15 3.11c.091.002.18.013.272.013l18.409-.003a51.792 51.792 0 0 0 6.065-2.186c-1.646-6.985-3.628-14.887-4.934-20.026z" fill="#56585a"/>
        <path d="M122.491 508.258a59.151 59.151 0 0 0 3.09-1.418l-4.472-10.748-3.373-8.106c-.057.076-.12.167-.18.246 1.307 5.14 3.289 13.04 4.935 20.026z" fill="#56585a"/>
        <path d="M403.252 494.773c-.802-2.987-1.68-6.385-2.449-9.3h-.011l-.189-.71c.84-.701 1.695-1.247 2.348-1.98 1.048-1.188 1.393-2.68 1.329-4.253-.307-7.736-.599-15.48-.955-23.213-.154-3.396-2.006-5.4-5.354-6.027-.122-.027-.239-.095-.355-.148l-19.264.786c.03.348.078.703.092 1.06l1.467 35.99 1.33-.068-1.331.069.604 14.792.055 1.345 9.08-.37-.661-16.235-.054-1.338c.778-.032 1.452-.027 2.123-.095.59-.059.865.157 1.038.652h-.025c1.251 5.063 2.74 10.722 4.019 15.778.357 1.412.353 1.388 1.79 1.375 1.683-.015 3.365.018 5.048.03l2.53-.102c-.736-2.68-1.485-5.355-2.205-8.038zm-14.575-16.898l-.838-20.554c2.035-.083 4.028-.188 6.033-.222.22 0 .54.312.664.558.133.271.123.629.136.945l.714 17.513c.057 1.394-.037 1.487-1.431 1.544l-5.278.216z" fill="#ffffff"/>
        <path d="M313.428 490.428c-.495-12.146-.99-24.293-1.488-36.438-.019-.452-.09-.901-.137-1.351l-7.588.31c.029.32.072.641.085.963.379 9.239.755 18.477 1.132 27.716l.055 1.36c-.248-.429-.373-.59-.443-.772a36832.15 36832.15 0 0 1-10.82-28.302c-.067-.175-.087-.369-.128-.553l-7.589.309 1.545 38.074.46 11.334c.009.217.067.43.126.788l7.52-.307-.498-12.21-.625-15.35c.253.225.363.48.468.737l5.844 14.318 4.398 10.774c.748 1.832.749 1.847 2.756 1.789 1.77-.051 3.54-.14 5.457-.218l-.052-1.265-.478-11.706z" fill="#ffffff"/>
        <path d="M250.657 461.716c-.13-3.064-2.073-5.293-5.063-5.979-.501-.115-1.005-.225-1.507-.338l-18.68.762c.03.354.075.707.09 1.061l1.537 37.687.328 8.03.054 1.317c.55.02.998.055 1.446.05 3.178-.038 6.356-.08 9.533-.13 2.656-.042 5.322.027 7.966-.18 3.54-.278 5.893-2.994 5.757-6.485-.051-1.298-.108-2.597-.16-3.894a10267.12 10267.12 0 0 0-1.3-31.901zm-9.488 35.503c-1.612.046-3.222.127-4.886.195l-.121-2.978-1.29-31.609c1.918-.078 3.757-.19 5.598-.21.742-.009 1.18.475 1.218 1.25.01.195.018.389.026.583l1.208 29.635.048 1.199c.064 1.568-.254 1.89-1.8 1.935z" fill="#ffffff"/>
        <path d="M217.623 456.478l-8.95.365c.134 2.914.277 5.828.402 8.743.157 3.662.3 7.325.45 10.988l.046 1.118-7.358.3-.054-1.314c-.247-6.06-.492-12.122-.745-18.183-.018-.451-.09-.9-.136-1.35l-8.756.356c-.013.388-.05.777-.034 1.164.512 12.652 1.028 25.304 1.544 37.956l.273 6.701c.016.38.03.76.054 1.32l8.918-.363-.33-8.12-.47-11.494 7.378-.3.465 11.411.357 8.75 8.861-.36c.005-.158.025-.38.016-.6l-.338-8.251c-.53-12.946-1.061-25.891-1.593-38.837z" fill="#ffffff"/>
        <path d="M335.355 460.743c-.461 5.681-.91 11.363-1.364 17.044-.24 2.998-.478 5.995-.889 9.006-.278-1.685-.562-3.369-.833-5.055-1.016-6.331-2.035-12.662-3.04-18.995-.567-3.58-1.11-7.165-1.664-10.747l-9.146.373c.06.383.104.77.184 1.15 1.966 9.286 3.932 18.573 5.905 27.86.594 2.793 1.186 5.588 1.781 8.382.917 4.304 1.838 8.607 2.744 12.914.11.528.255.789.855.778 2.496-.045 4.993-.059 7.489-.05.67.004.944-.178 1.026-.912.366-3.285.815-6.56 1.228-9.84l.455-3.606c.999-7.927 1.994-15.854 2.998-23.78.59-4.66 1.199-9.317 1.799-13.975l-8.756.357c-.258 3.032-.526 6.063-.772 9.096z" fill="#ffffff"/>
        <path d="M372.064 495.439c-1.943.07-3.89.069-5.835.118-1.314.033-2.628.103-3.937.157l-.318-7.805-.308-7.54 8.837-.36c-.065-1.59-.115-3.108-.194-4.625-.043-.837.17-2.04-.282-2.412-.52-.43-1.647-.161-2.508-.135-2.033.061-4.064.159-6.138.243l-.605-14.835 10.88-.443-.31-7.59-20.042.816c.02.29.045.582.057.873.497 12.16.992 24.32 1.488 36.482l.551 13.506.055 1.346 19.998-.171c-.09-2.228-.225-4.39-.244-6.555-.008-.884-.342-1.1-1.145-1.07z" fill="#ffffff"/>
        <path d="M271.268 496.819c-.802.042-1.15-.106-1.177-1.015-.03-1.04-.075-2.082-.113-3.122-.115-3.11-.247-6.218-.37-9.326-.012-.283.012-.568.02-.87l8.779-.357-.286-7.013-8.759.357-.567-13.91 10.804-.44-.292-7.16-19.847.81c-.013.387-.05.776-.035 1.163.503 12.405 1.01 24.81 1.517 37.214l.394 9.66c.015.375.07.748.114 1.2l19.816-.177-.303-7.425c-3.29.134-6.494.244-9.695.41z" fill="#ffffff"/>
        <path d="M186.49 457.747l-22.572.92c.045 1.815.082 3.63.14 5.444.04 1.257.052 1.259 1.334 1.208 1.805-.072 3.61-.147 5.524-.225l.056 1.37a1377250.035 1377250.035 0 0 0 1.404 34.433c.04.973.124 1.946.106 2.918-.015.788.306 1.01 1.05.948.773-.065 1.556-.002 2.334-.028 1.866-.065 3.73-.149 5.715-.23l-.295-7.223-1.325-32.505 6.804-.277-.275-6.753z" fill="#ffffff"/>
        <path d="M470.892 439.325L96.134 454.603c-5.318.217-9.464 4.715-9.247 10.025l1.49 36.566a9.628 9.628 0 0 0 3.723 7.23c.043-.724.112-1.433.18-2.126.7-7.736 2.962-14.43 6.66-19.738.1-.142.176-.267.244-.368l.192-.275.016-.017.015-.025 2.745-3.791 5.386 11.004c1.922-4.261 5-9.625 9.214-12.639l2.88-2.684 1.233 2.963 10.65 25.586a20.647 20.647 0 0 1 4.034 4.124l271.175-.043c.018-.064.044-.122.063-.186a3.8 3.8 0 0 0 2.094-.021l1.542-.453c1.269-.373 2.226-1.542 2.51-2.834 1.098-1.317 1.125-3.406.15-4.806l.967-2.925-.967 2.925a3.294 3.294 0 0 0-1.033-.96 24.77 24.77 0 0 1 1.997-1.961l.676-2.045c1.26.113 2.515-.444 3.175-2.015l1.662-3.955 14.796-22.59c2.183 2.155 4.125 4.626 5.751 7.087a62.421 62.421 0 0 1 2.455 4.042c.298.532.587 1.048.851 1.549l2.454-6.143 1.946-4.854 1.652-4.12 3.05 3.506c.042.039.145.164.298.345 5.506 6.362 9.21 14.738 10.97 24.647.496 2.603.86 5.366 1.02 8.3l.092 1.652h-.008l-.024.018c.043.859.07 1.719.081 2.587.02 1.096.015 2.16-.007 3.2l8.462-.004c.057.006.122-.005.186-.007a9.477 9.477 0 0 0 6.767-2.956 9.547 9.547 0 0 0 2.676-7.07l-2.111-51.784c-.217-5.31-4.714-9.455-10.025-9.239zm-311.32 65.537c-6.608.058-13.2.108-19.882.169l-1.847-45.298 19.848-.81.268 6.576-10.743.438.526 12.9 8.748-.357.26 6.356-8.733.356.538 13.192c3.572-.04 7.128-.072 10.748-.114l.269 6.592zm27.193-40.359l-6.802.278 1.62 39.728c-1.987.08-3.852.165-5.717.225-.779.023-1.56-.034-2.338.03-.744.063-1.062-.16-1.045-.948.017-.975-.063-1.947-.103-2.92l-1.46-35.804-5.53.226c-.502.02-.81.033-1-.04-.025-.008-.05-.015-.066-.03a.737.737 0 0 1-.084-.07.126.126 0 0 1-.051-.063.243.243 0 0 1-.036-.08.748.748 0 0 1-.05-.209c-.03-.177-.032-.405-.045-.713-.057-1.816-.09-3.634-.14-5.443l22.572-.92.275 6.753zm32.786 39.067c.01.219-.006.439-.016.593l-8.862.362-.821-20.156-7.37.3.8 19.613-8.92.364-1.874-45.98c-.016-.389.017-.78.034-1.162l8.756-.357c.043.445.118.896.137 1.35.255 6.057.494 12.121.74 18.178l.054 1.313 7.362-.3-.045-1.11c-.15-3.665-.29-7.33-.448-10.995-.127-2.91-.27-5.828-.405-8.738l8.95-.365c.528 12.94 1.064 25.888 1.592 38.836l.336 8.254zm32.404-9.954c.053 1.297.114 2.594.16 3.892.142 3.494-2.216 6.213-5.754 6.488-2.647.205-5.306.135-7.968.178-3.173.057-6.355.097-9.53.129-.445.01-.894-.029-1.447-.047l-1.917-47.033c-.015-.357-.061-.712-.092-1.06l18.68-.762c.5.11 1.008.22 1.508.337 2.993.682 4.935 2.917 5.06 5.974.458 10.636.883 21.274 1.3 31.904zm27.644-32.491l-10.807.44.567 13.905 8.764-.357.286 7.013-8.78.358c-.013.301-.034.586-.022.87.127 3.113.253 6.219.372 9.324.034 1.046.085 2.084.111 3.122.029.909.376 1.057 1.178 1.016 3.202-.163 6.405-.277 9.697-.411l.302 7.426c-6.592.058-13.16.123-19.816.175-.043-.445-.099-.825-.114-1.198l-1.911-46.87a3.518 3.518 0 0 1-.004-.293c0-.195.017-.39.025-.585l.013-.285 19.848-.81.291 7.16zm34.355 42.275c-1.913.078-3.68.167-5.457.215-2.003.057-2.004.049-2.753-1.788-1.461-3.587-2.932-7.182-4.394-10.769l-5.846-14.323c-.108-.255-.216-.51-.469-.736l1.124 27.558-7.524.307c-.055-.355-.113-.572-.122-.783l-.462-11.335c-.517-12.696-1.026-25.385-1.544-38.074l7.59-.31c.04.186.063.38.127.556 3.6 9.428 7.21 18.864 10.818 28.3.073.184.193.341.446.77l-1.185-29.075c-.014-.324-.06-.647-.088-.963l7.588-.31c.043.446.118.897.137 1.351l2.014 49.41zm29.128-38.13c-1.001 7.918-1.993 15.852-2.994 23.778-.154 1.2-.308 2.4-.454 3.6-.419 3.282-.862 6.557-1.231 9.845-.084.734-.353.916-1.027.91-2.494-.011-4.994.01-7.486.046-.6.016-.75-.246-.86-.777-.906-4.3-1.82-8.607-2.744-12.915l-1.779-8.381c-1.97-9.284-3.94-18.567-5.903-27.86-.08-.378-.128-.766-.184-1.145l9.145-.373c.552 3.584 1.096 7.167 1.664 10.742 1.006 6.334 2.027 12.667 3.04 19.001.273 1.687.552 3.364.832 5.05.413-3.013.649-6.003.892-9.002.45-5.687.9-11.366 1.36-17.045.25-3.031.516-6.063.774-9.095l8.756-.357c-.598 4.654-1.212 9.316-1.801 13.977zm28.574-7.468l-10.88.444.605 14.837c2.075-.085 4.11-.184 6.137-.25.86-.02 1.986-.292 2.507.141.454.372.243 1.574.285 2.409.078 1.515.124 3.04.19 4.63l-8.83.36.625 15.34c1.305-.054 2.618-.124 3.933-.153 1.946-.055 3.896-.053 5.834-.124.803-.025 1.136.189 1.148 1.074.015 2.16.152 4.322.243 6.552-6.714.062-13.314.112-19.996.173l-2.093-51.338c-.011-.284-.04-.575-.06-.867l20.043-.817.31 7.59zm31.271 45.114c-1.682-.013-3.364-.05-5.044-.03-1.438.01-1.437.034-1.795-1.38-1.278-5.057-2.572-10.104-3.826-15.17l-.088-.377c-.166-.676-.437-.949-1.117-.88-.67.067-1.345.062-2.123.094l.716 17.57-9.08.37-2.126-52.125c-.014-.357-.061-.712-.092-1.06l19.264-.786c.116.053.233.12.355.148 3.348.627 5.2 2.63 5.354 6.027.356 7.733.648 15.477.955 23.213.064 1.573-.281 3.065-1.33 4.252-.651.734-1.506 1.28-2.347 1.98.097.37.202.755.298 1.125.769 2.917 1.548 5.898 2.352 8.886.718 2.683 1.469 5.357 2.204 8.04l-2.53.103z" fill="#f595a8"/>
        <path d="M240.47 462.617c-1.84.02-3.68.132-5.597.21l1.289 31.609.121 2.978c1.664-.068 3.274-.149 4.886-.195 1.547-.045 1.865-.367 1.801-1.935l-.048-1.199-1.208-29.635a71.78 71.78 0 0 0-.026-.583c-.039-.775-.476-1.259-1.217-1.25z" fill="#f595a8"/>
        <path d="M394.534 457.654c-.124-.243-.44-.56-.666-.555-1.997.036-3.994.136-6.033.22l.838 20.557c1.8-.073 3.541-.142 5.282-.215 1.398-.06 1.489-.155 1.433-1.549-.236-5.836-.474-11.672-.717-17.508-.013-.321 0-.679-.137-.95z" fill="#f595a8"/>
        <path fill="#e6e6e6" d="M423.726 435.4l20.44-.808-.01.138-20.447.834.017-.163z"/>
        <path d="M121.109 496.092l-3.373-8.106c-.057.076-.12.167-.18.246 1.307 5.14 3.289 13.04 4.935 20.026a59.151 59.151 0 0 0 3.09-1.418l-4.472-10.748z" fill="#e6e6e6"/>
        <path d="M470.89 439.324l-21.455.875c9.67 5.025 27.078 20.963 24.149 70.176a9.5 9.5 0 0 0 6.768-2.956 9.563 9.563 0 0 0 2.679-7.072l-2.111-51.78c-.217-5.314-4.716-9.46-10.03-9.243z" fill="#cc667e"/>
        <path d="M187.636 294.926c-2.536-3.859-7.642-3.255-11.907-2.96a7.785 7.785 0 0 0-.694-.905c-.034-.216-.038-.411.021-.56 1.759-4.413-4.055-7.69-6.6-3.506l-1.18 1.941c-.193.055-.383.087-.577.156-5.713 2.036-9.557 9.304-10.984 14.568-2.821 10.409-2.362 28.55 9.932 33.109 2.44 3.285 5.7 5.333 9.518 3.313 1.695.11 3.378-.147 4.925-.791.019.036.033.072.053.109 1.713 3.163 5.79 1.526 6.787-1.17 2.987-8.083 3.226-16.446 1.019-24.389 1.297-5.493 2.916-14.002-.313-18.915z" fill="#d8aea1"/>
        <path d="M252.984 303.073a59.17 59.17 0 0 0-1.956-7.357c-.848-2.498-3.651-4.747-5.438-3.93-1.637.068-3.402 1.333-3.852 2.812-1.072-.646-1.734.776-3.127 1.527-3.99 2.154-8.004 3.576-12.382 4.357-.35-1.603-1.573-3.088-3.617-3.254-5.878-.479-11.569 1.519-15.82 5.662-1.96 1.912-3.545 4.136-4.599 6.673-.323.778-2.42 8.708-2.134 8.886-1.615-1.002-4.295-.221-5.053 1.547-1.439 3.36-2.126 6.663-2.192 9.826-.604 1.667-.382 3.314.412 4.907 2.626 13.78 17.307 23.52 32.68 20.711-.004.018-.005.037-.009.055 4.859-.798 9.732-1.5 14.598-2.251a10.738 10.738 0 0 0-.761-3.25c-.055-.136-.13-.255-.198-.38a31.274 31.274 0 0 0 5.095-4.75c2.283-.09 4.387-1.249 5.796-3.059a6.479 6.479 0 0 0 1.405-2.726 8.54 8.54 0 0 0 .367-2.278c9.132-3.735 5.165-22.163.785-33.728z" fill="#d8aea1"/>
        <path d="M202.717 315.604s-.219 22.694 19.44 22.228c11.402-.27 31.811-4.515 31.53-35.328l5.25 13.93-3.351 18.28-6.953 6.526-3.065 6.173-16.77 4.976-20.506-.53-11.622-7.525-2.777-15.494-.568-9.146" fill="#967060"/>
        <path d="M210.817 334.832s-15.584-16.191 4.852-35.314c17.427-16.307-16.098-7.245-16.098-7.245l-10.205 26.022 18.27 21.056" fill="#967060"/>
        <path d="M186.913 300.652s2.014 24.83-14.054 25.485c-16.068.655-18.229-12.864-18.229-12.864l4.322 19.87 11.706 8.827 16.566-4.42 5.779-16.185" fill="#967060"/>
        <path d="M252.292 338.551c-5.645 3.814-9.846 9.102-11.5 15.805-2.248 9.112-.216 18.093-4.343 26.942-4.042 8.666-11.122 15.141-19.97 18.69-.736.295-1.487.55-2.235.811-8.506 1.015-14.716-2.94-23.222-1.926-.468-1.62-2.475-3.221-4.206-3.228l-8.338-.033c-.584-.003-1.128.172-1.616.448-2.067-.602-5.01.044-5.252 2.507-.676.862-1.877 3.605-1.315 4.8.823 1.75 2.95 2.364 3.773 4.113.16.34.36.625.578.885l.137.273c.717 1.43 2 1.903 3.266 1.734.85.224 1.797.292 2.871.125a7.056 7.056 0 0 0 1.467-.4c1.293 1.058 2.003 4.038 3.377 3.082 5.227 3.211 11.558 4.672 17.94 3.269.056.021.102.052.16.071 14.042 4.732 24.675-1.313 32.885-11.031a4.05 4.05 0 0 0 .878-.907l.872-1.262a76.65 76.65 0 0 0 3.784-5.408c.931-.175 1.778-.779 2.275-1.981 7.082-17.131 11.622-34.924 13.39-53.387.287-2.998-2.671-6.008-5.656-3.992z" fill="#d8aea1"/>
        <path d="M255.73 336.972c-2.878 1.085-8.51 6.823-11.388 7.908-1.648.622-2.537 1.985-2.594 3.711-.509 15.328-4.56 29.83-11.91 43.28-.238.437-.35.918-.388 1.404-1.601.996-2.519 3.002-1.127 5 2.143 3.078 2.234 7.268-.838 9.84-1.56 1.304-2.297 3.295-1.131 5.162.102.164.233.316.37.464 1.75-.931 3.609-1.628 5.482-2.266.606-.207 1.241.068 1.623.533 1.155-1.429 2.068-2.986 2.652-4.64.489-.21.96-.554 1.378-1.094 13.678-17.634 20.706-38.912 19.986-61.242-.075-2.33.163-8.92-2.116-8.06z" fill="#967060"/>
        <path d="M129.825 244.68c-1.006.614 1.063 1.71 1.148 3.211.137 2.436-2.821 4.818-3.34 7.158l-1.175-1.247c-.557-.59-1.346-.892-2.165-.956l-.345-.237c1.327-4.288 1.149-13.342 2.476-17.63 1.431-4.626-4.288-1.44-5.775 3.073l-.693 2.1c-.055.169-.075.325-.107.485l-3.247 10.493c-.825-1.798-2.913-2.196-4.611-1.533 1.483-4.462 2.872-8.956 4.09-13.512.911-3.41-2.748-5.207-5.261-4.107a81.47 81.47 0 0 1-2.551 7.176c-.527 1.291-1.208 2.587-1.825 3.904-.022.274-.061.544-.062.82 0 .644-.347 1.067-.793 1.298-.17.53-.335 1.06-.503 1.59a9.862 9.862 0 0 0-.176.987c-.116.982-.94 1.266-1.686 1.061-.261.255-.525.507-.778.767a3.65 3.65 0 0 0-1.15-.748c.231-.516.478-1.027.719-1.54-.001-.075-.027-.138-.017-.217.06-.514.172-1.008.304-1.494-.457-.176-.787-.579-.732-1.245.276-3.356.86-7.633 1.8-10.826-1.547-.52-3.215.892-4.22 2.738-.343.63-.663 1.271-.997 1.906-.09.025-.175.068-.263.1-1.413-.243-2.966.2-3.954 1.698-7.96 12.073-12.113 26.006-12.5 40.05a119.999 119.999 0 0 0-1.612 24.777c.062 1.576.88 2.59 1.948 3.09.009.426.005.85.018 1.277.058 1.944 1.315 3.038 2.778 3.347.765 2.25 1.946 4.278 3.628 5.913.23 2.846.496 5.692.833 8.539.065.551.217 1.036.431 1.46a3.538 3.538 0 0 0 .577 2.077c.028.415.116.801.267 1.149l-7.042 24.291c-.204.704-.191 1.33-.047 1.886-.088.05-.184.085-.268.144-1.715 1.207-2.18 3.35-1.13 5.162l.31.535c.065.113.154.207.233.31.086 1.276.914 2.329 2 2.937.698 2.376 1.089 4.738 1.143 7.186-.244.4-.413.891-.476 1.485a258.85 258.85 0 0 1-1.415 10.951c-1.135.179-2.16.92-2.85 1.945l-7.844 11.65c-1.517.022-1.63.929-2.092 2.832-2.714 11.175-6.304 22.379-7.88 33.772-.776 5.62-4.965 18.881 1.026 23.141 4.828 3.434 8.71-.488 10.01-5.017 1.477-5.146 2.562-10.49 3.529-15.871.439-.406.81-.919 1.047-1.582 6.425-17.986 10.804-36.486 13.174-55.407a3.82 3.82 0 0 0 .772-1.635l9.4-42.93 3.276-12.239.097-.103c1.322.831 2.902.05 4.222-.848.811-.553 1.15-1.591 1.725-2.387.948.059 1.94-.246 2.806-1.072a58.314 58.314 0 0 0 11.236-14.807 3.905 3.905 0 0 0 1.975-.994c6.646-6.249 8.147-15.53 8.772-24.264.82-11.455.595-23.046.8-34.526.074-4.109-5.346-4.463-6.988-1.497z" fill="#c2c0c0"/>
        <path d="M126.909 264.905c-.27-2.542-4.278-3.274-4.743-.446-1.56 9.483-10.522 54.907-27.41 38.95a1.08 1.08 0 0 0-.763-.28c-.038-.1-.078-.192-.115-.295-.218-.624-1.1-.443-1.116.197-.008.326.033.63.06.94a1.016 1.016 0 0 0-.023.344c.462 4.387 2.906 6.308 5.993 6.702.276.095.545.202.834.278 5.374 1.416 10.354-1.788 14.012-5.467 10.533-10.593 14.817-26.352 13.27-40.923z" fill="#989492"/>
        <path d="M134.886 243.877c.013.017.016.043.044.041.096-.003.09-.153-.006-.149-.04.002-.05.034-.056.064-.162-.369-.74-2.964-.911-3.328-.402-.848-1.32 1.893-1.259 2.752 1.108 15.646 2.65 30.274-2.604 45.485-2.543 7.359-6.129 14.884-11.431 20.673-6.34 6.92-13.578 8.656-22.455 10.155-.79.134-1.256 1.243-.38 1.67 1.37.67 2.731 1.12 4.08 1.399-.583 1.197-.718 2.782-.992 3.956-.176.752-.385 1.565-.577 2.398-2.378 4.974-3.06 11.382-4.16 16.072a3381.312 3381.312 0 0 0-8.618 37.654c-.327 1.466-1.625 2.333-1.95 3.8-1.487 1.327-1.559 3.56-2.49 5.231-1.1 1.979-3.803 2.548-4.524 4.708-2.294 1.497-3.404 4.984-5.98 5.916-1.015.367-.799 1.976.34 1.914 3.766-.204 7.29-1.203 10.52-3.08-1.415 6.41-2.84 12.818-4.248 19.23l-3.826 17.413c-1.598 7.272-2.002 20.208-11.703 20.916-2.104.153-1.987 1.301.101 1.827 9.57 2.413 12.947-5.31 14.752-12.86 3.22-13.48 5.952-27.095 8.92-40.633.81-3.696 1.617-7.393 2.426-11.09 1.262-1.437 2.276-3.031 2.679-4.736.264-1.117-.349-1.866-1.174-2.139 1.648-7.56 3.285-15.122 4.885-22.692 1.434-6.785 2.788-13.588 4.176-20.383.65-3.18 1.018-6.766 1.7-10.244.332-.12.637-.368.858-.792.944-1.81 1.147-4.145 1.304-6.286.622-1.318 1.375-2.551 2.322-3.65.892-1.036-.364-2.642-1.562-1.864-.118.077-.22.17-.334.25-.013-.177-.044-.346-.074-.516 12.953.35 24.234-15.295 28.89-25.577 7.19-15.883 10.537-36.998 3.317-53.505z" fill="#989492"/>
        <path d="M425.725 366.308l-3.565-7.471a8.489 8.489 0 0 1-1.108-.698c.03 1.437-1.976 2.107-2.747.837-.695-1.143-1.286-2.333-1.847-3.536-1.655-1.738-2.908-4.054-4.147-6.031-.833-1.33-1.585-2.696-2.17-4.124-.516.014-1.046-.188-1.298-.652-.653-1.238-1.623-2.338-2.725-3.195a1.178 1.178 0 0 1-.358-.474c-3.471-1.735-7.197-2.92-10.893-4.182 10.893 24.975 32.189 64.003 27.143 98.154l17.748-.756c.405-.016.711.122.954.321l-14.987-68.193z" fill="#834e3b"/>
        <path d="M400.676 339.63c2.16 1.218 4.143 2.668 6.117 4.121l-26.062-54.62-7.647 9.822s5.87 13.863 12.759 34.896c4.988 1.837 10.202 3.172 14.833 5.781z" fill="#834e3b"/>
        <path d="M180.158 396.316l7.404-11.007-26.214 5.865c-4.076 15.572-9.108 27.449-13.524 34.298-19.45 2.932-37.469-.592-55.667-8.823 2.457-11.139 4.698-23.046 5.006-34.188.047-1.667-3.759-2.148-4.226-.784-3.443 10.053-5.64 18.856-7.2 29.669-.53-.264.63 2.548.098 2.277-1.2-.611-2.417 1.018-1.38 1.946.81.725 1.666 1.395 2.515 2.074-.156 1.13-.762.157-.911 1.269-.383 2.854 4.562 5.108 5.227 2.2.097-.42-.149.08-.053-.344 8.193 5.454 17.758 9.072 27.73 10.856.003.915.53 1.793 1.758 2.073 1.152.263 2.31.541 3.469.825.291.917 1.053 1.703 2.266 1.762 1.973.095 3.947.183 5.92.277 6.336 1.561 12.754 2.96 19.207 3.361l12.406 2.412 5.654-7.254 6.806-24.238-7.833-6.935 3.858-8.253 7.684.662z" fill="#834e3b"/>
        <path fill="#834e3b" d="M429.132 435.524l-118.041 4.52 103.889-15.4"/>
        <path d="M212.84 221.745a1.62 1.62 0 0 0-.54-.072c-.06.004-.118.02-.18.027-.357-.076-.712-.155-1.077-.22-.29-1.068-1.798-1.87-2.904-.864-.17.155-.348.292-.529.422a4.29 4.29 0 0 0-.552.052c-4.284-.087-8.687.928-11.811 3.774-4.365 3.975-4.184 10.788-2.595 16.004.286.94 1.654 1.602 2.5.903a8.35 8.35 0 0 0 1.368-1.457c.456-.054.884-.303 1.136-.872.357-.807.81-1.558 1.31-2.281.382-.01.766-.184 1.088-.602l1.238-1.607c.971-.814 2.318-1.312 3.319-1.905a38.425 38.425 0 0 0 3.93-2.665c2.315-1.792 4.402-3.81 6.319-6.023 1.158-1.337-.506-3.652-2.02-2.614z" fill="#834e3b"/>
        <path d="M414.372 253.853c.175-1.67-2.08-2.387-2.722-1.194l-.204-.878a1.363 1.363 0 0 0-.31-.607 26.963 26.963 0 0 0-.31-4.515c-.297-1.862-3.264-1.763-2.964.121.151.946-1.732-3.557-1.686-2.623-4.13-5.477-8.265-3.76-15.119-4.881l14.202-.805c-63.823-40.352-152.766-35.368-152.766-35.368l-27.112 12.82c77.225-9.097 119.122 11.77 134.485 22.016-.34.99-.754 1.947-1.296 2.848-1.33 2.213-3.228 4.984-4.7 7.038-.488.681-.406.623.633.506 2.513-.285 4.643-2.131 6.217-4.117l5.25-1.726c.533.458.798.713.798.713l14.277-1.868c.247.3 1.915-.062 2.386-.02 10.939.986 18.664 7.828 23.517 17.193-1.274 3.796-3.512 7.263-6.647 10.158-.742.685-.47 1.555.147 2.044-.872 2.023-.921 4.61.996 6.082 2.105 1.619 1.34 3.588 2.99 2.033.207-.195 4.813-3.081 5-3.296 2.312-1.144 3.864-4.044 4.248-6.592.143-.948 3.641-4.582 3.132-5.244.954-4.035-2.86-5.852-2.442-9.838z" fill="#834e3b"/>
        <path fill="#a26549" d="M404.432 525.931l23.19-48.499 12.67-12.435 8.871 2.485 8.77 6.959 2.492 18.042 8.651-10.303 3.744 5.7-4.39 35.88-4.376 7.495-30.604 3.004-17.112-3.4-11.906-4.928"/>
        <path d="M247.184 62.743L221.63 205.121s56.89-9.136 96.352.162 67.675 21.328 67.675 21.328l18.006-137.98s-25.22-38.964-79.85-41.282c-54.629-2.317-76.63 15.394-76.63 15.394z" fill="#3c3c45"/>
        <path d="M238.132 205.388c-.612.244-8.375 2.484-8.988 2.71-.775-.345-1.639-.493-2.469-.344l-26.231 4.706c-2.609.468-6.003 1.4-5.127 3.315-3.942.842-4.706 3.54-7.923 5.93-1.986-.083-4.04 1.22-5.367 2.843-5.251 6.426-6.939 12.983-1.379 18.67.63.644 4.323 3.379 5.047 3.446l.022.049c2.013 4.287 9.162 2.076 7.119-2.279l-2.542-5.415a3.84 3.84 0 0 0 .044-1.017 12.351 12.351 0 0 1 .098-3.05c.043-.224.09-.455.14-.693.644-2.947.66-6.894 3.408-8.587 1.044-.644 3.669-2.233 3.79-3.159 5.075-1.764 10.64.083 15.764-.803 4.975-.86 9.371-2.331 13.346-4.97 2.14-.643 4.155-2.93 6.264-3.772 4.436-1.772 9.466-9.37 4.984-7.58z" fill="#424244"/>
        <path d="M412.39 241.705c-.182-1.34-1.027-2.575-2.714-3.008l-1.416-.363c-3.825-.982-7.816-.124-5.38 2.449 3.997 4.221 15.244 14.874 13.085 21.476-1.496 4.577 5.797 6.23 7.28 1.692 2.924-8.94-4.774-16.218-10.855-22.246z" fill="#4a4a4b"/>
        <path fill="#bae1e0" d="M332.76 262.602c0 19.296-15.642 34.938-34.938 34.938-19.296 0-34.938-15.642-34.938-34.938 0-19.296 15.642-34.938 34.938-34.938 19.296 0 34.938 15.642 34.938 34.938z"/>
        <path d="M231.224 277.658c-11.901-5.282-25.53-4.449-38.154-3.2-8.712.862-20.123 2.209-17.568 13.409.625 2.743 4.8 4.88 6.535 2.863l1.077-1.251c.165.089.318.191.473.292l2.47 2.953c1.173 1.403 2.768 1.738 4.132 1.382l.132.1c-.425 3.134-.27 6.276.494 9.684.04.18.101.34.162.499l-.008.033c-2.262 2.029-3.454 4.818-1.722 7.984-.258 1.904.326 3.76 1.729 4.294.99 2.236 5.297 2.393 7.108.596 1.097-1.09 1.7-2.652 2.679-4.206a8.804 8.804 0 0 0 1.634-2.305 8.23 8.23 0 0 0 .44-1.154c1.254-2.458 2.647-3.818 2.95-6.504 1.33-.225 2.046-1.659 3.376-1.884l-.002-.008c.33-.056.646-.095.989-.165 1.503-.307 2.283-1.475 2.466-2.79a25.029 25.029 0 0 1 3.532-.739l2.17-.22c1.795-.182 2.878-1.338 3.272-2.688.242-.096.482-.21.726-.29 1.599.794 3.285 2.456 4.993 3.495 3.04 1.85 6.105 1.586 9.294-.364 9.26-5.664 1.696-16.677-5.379-19.816z" fill="#643b30"/>
        <path d="M225.48 360.069c-2.25-6.783-14.096-7.357-19.635-7.288-2-.953-2.862 2.19-3.257 4.973-1.166 8.204-2.01 3.194-7.506 9.413 4.896-5.541-9.243 20.03-1.03 18.137 6.82-1.572 16.285-1.854 23.25-1.134 2.136.221 3.816-.662 4.486-2.794 1.802-5.733 5.697-15.26 3.691-21.307z" fill="#56585a"/>
        <path d="M228.299 386.794c-3.004-4.439-26.124-1.748-30.157-.64-7.251 1.99-11.016 1.282-16.476 6.388-3.519 3.29 1.212 7.48 4.71 4.21.076-.072.16-.134.236-.205 7.63.645 29.91 2.376 36.774-1.067 3.71-1.86 8.42-3.505 4.913-8.686z" fill="#f27e80"/>
        <path d="M197.65 348.23c-.36-1.076-1.167-1.879-2.13-2.328-.269-1.318-1.243-2.377-2.403-2.916 1.41-4.487-5.819-6.08-7.448-1.612a4.69 4.69 0 0 0-2.066-1.048 5.176 5.176 0 0 0-4.465.22c-2.102-1.416-5.293-1.048-5.613 2.086-.826 8.07 2.346 5.8 1.52 13.869a4.11 4.11 0 0 0 .084 1.296c-.805 5.63 5.854 7.385 10.765 5.775.198-.065.274-.322.398-.498 1.36 1.932 4.28 2.367 6.088.061 1.674 1.801 4.738 2.225 5.982-.651 2.771-6.412 1.545-2.486 4.317-8.898 1.536-3.553-2.356-6.543-5.03-5.356z" fill="#fddbb6"/>
        <path d="M334.74 269.022c-3.628 19.336-25.363 31.518-44.683 27.892-11.943-2.242-21.36-10.19-25.965-20.508a35.498 35.498 0 0 0 18.243 9.45c19.32 3.625 37.937-9.095 41.566-28.43a35.38 35.38 0 0 0-2.49-21.094c10.357 5.573 15.617 20.505 13.33 32.69z" fill="#6fa5d8"/>
        <path d="M226.89 171.032s102.6-24.375 162.846 24.966l-2.863 30.258s-49.533-23.44-105.15-23.806c-55.615-.367-62.072 6.335-62.072 6.335l7.24-37.753" fill="#f595a8"/>
        <path d="M349.935 173.915l16.078-116.061c-2.08-.767-4.207-4.709-6.27-5.516l-57.93-7.785c-1.709.746-3.44 1.434-5.223 1.996l-15.577 115.9c23.282.339 46.822 4.148 68.922 11.466z" fill="#40414e"/>
        <path d="M280.612 165.432l-4.818 35.85 69.213 9.302 4.525-33.667c-22.093-7.348-45.642-11.19-68.92-11.485z" fill="#e07b94"/>
        <path d="M333.89 169.437l15.895-118.265-40.457-5.437L293.6 162.767c13.61 1.005 27.257 2.512 40.291 6.67z" fill="#4e4c60"/>
        <path d="M293.203 165.715l-5.027 37.403 40.457 5.437 4.854-36.12c-13.028-4.197-26.669-5.722-40.284-6.72z" fill="#c96783"/>
        <path d="M330.378 258.663s-5.56 41.749-48.697 34.96l9.059 4.63 20.09-1.753 11.288-7.408 7.806-9.647 3.918-13.595-3.464-7.187z" fill="#ffffff"/>
        <path fill="#ffffff" d="M318.243 283.105c.97 1.241-.309 3.864-2.859 5.858-2.55 1.994-5.404 2.604-6.375 1.362s.309-3.864 2.859-5.858c2.55-1.994 5.404-2.604 6.375-1.362z"/>
        <path fill="#ffffff" d="M320.33 281.577c.443.497-.025 1.637-1.045 2.547s-2.206 1.245-2.649.749c-.443-.497.025-1.637 1.045-2.547s2.206-1.245 2.649-.749z"/>
        <path d="M173.278 348.07s8.542 1.843 13.496-1.704c0 0 1.819 6.878 16.065 8.481l1.097-5.535-13.298-13.44-12.442 5.13-5.253.345.335 6.723z" fill="#bb9266"/>
        <path d="M220.421 355.071s-.445 21.38-6.312 28.204l17.052 1.939 6.303-17.669 1.712-15.433" fill="#484849"/>
        <path d="M230.602 386.508c-3.135-6.268-15.721-5.748-21.65-5.505-8.409.343-16.23 2.365-22.681 7.908-2.206 1.895 3.317 6.934 5.495 5.064 4.503-3.869 10.455-5.044 16.222-5.455 2.464-.175 14.82-.983 16.321 2.02 2.148 4.293 8.43.238 6.293-4.032z" fill="#f27e80"/>
        <path d="M227.795 384.27c-3.246-.747-6.512-1.278-9.806-1.654a14.66 14.66 0 0 0-4.375-.415c-.899.054-2.517-1.092-3.06-.68-3.849-1.26-7.043-.363-11.221-.063-2.673.192-3.762 2.604-3.368 4.638 9.577.137 21.607 1.577 26.824 9.821.038.06.04.12.068.18.413-.28.78-.636 1.076-1.044 1.75-.16 3.436-1.607 3.641-3.45 3.517-.557 4.378-6.377.221-7.333z" fill="#d7686e"/>
        <path d="M362.862 176.258c-9.58-9.696-26.92-13.056-39.848-15.136-15.347-2.468-31.855-4.396-47.403-3.897-1.542.05-1.789 2.393-.256 2.72 14.824 3.157 30.26 3.206 45.213 5.73 6.806 1.148 13.61 2.606 20.192 4.705 7.153 2.281 13.672 6.108 20.804 8.333 1.454.454 2.233-1.509 1.298-2.455z" fill="#3c3c45"/>
        <path d="M341.022 279.352c-1.011-2.958-5.389-2.767-7.9-3.16-1.318-.205-2.388.658-2.417 2.003l-.123 5.703c-.027 1.244.906 1.829 1.87 1.814.04.092.054.181.102.274 1.308 2.507 4.682 2.454 6.527.577 1.597-1.625 2.692-5.014 1.94-7.21z" fill="#6fa5d8"/>
        <path d="M469.717 511.7c.221-1.214 2.242-3.367 2.399-4.425 1.18-7.947.654-16.345-2.201-23.936-.517-1.374-3.671.097-3.725 1.53-.262 6.996.242 13.897-.83 20.857-.47 3.046-1.55 5.82-2.59 8.59-7.77 2.578-15.835 3.97-24.12 3.948-10.74-.027-20.155-4.09-30.49-5.196-.187.68-.359 1.362-.588 2.027.139.089.252.214.341.357a22.2 22.2 0 0 0 1.853 1.352l-1.757-.504c-.008.024-.005.046-.015.07-.644 1.487-1.215 3.006-2.201 4.31-.024.031-.05.055-.076.082.128.1.266.193.424.272l2.305 1.141c-.078.18-.137.366-.172.56-.06.068-.122.134-.175.206l-.045.07c-.746 1.064-2.504 2.596-1.145 3.34.258.217 2.296.333 2.652.414.125.029.25.053.375.081l.7.289c.052.02.104.026.155.043a.947.947 0 0 0 .261.346c4.236 3.488 11.35 6.506 16.86 4.483 8.337.864 17.062-.742 25.428-2.05.79-.122 2.363 1.408 2.726.888 2.92-.27 4.838-2.473 7.758-2.742 1.929-.177 2.547-2.143 1.934-3.476.074-.314.122-.651.106-1.044-.03-.741.936-1.086.627-1.542.288-.396-.596-1.008-.308-1.403.03-.04.046-.081.072-.122.916-.446 1.296-1.217 1.266-1.985.106-.188.214-.377.312-.574a85.516 85.516 0 0 0 3.268-1.305c2.945-1.267 1.536-5.988-1.384-4.952z" fill="#834e3b"/>
        <path d="M257.889 365.56c-.337-1.46-1.44-.898-2.16.318-3.938 6.659-3.103 13.905-5.555 21.22-3.049 9.093-9.965 18.078-18.302 23.334-7.9 4.98-17.228 7.033-26.538 7.153-5.053.066-10.07-.426-15.047-1.264-4.543-.765-8.209-5.103-12.817-4.523-.982.123-1.78 1.333-.874 2.112 6.96 5.982 19.864 9.495 28.788 9.475 10.286-.022 20.811-2.514 29.525-7.971 8.176-5.12 13.89-12.559 17.54-21.285 3.37-8.052 7.454-19.823 5.44-28.57z" fill="#834e3b"/>
        <path d="M399.179 273.6c.953-3.133-.245-5.921-2.412-8.228.04-1.088-.556-2.162-1.958-2.482l-.693-.158c-.763-1.92-1.827-3.63-3.237-4.263-1.173-.526-2.478-.276-3.614.201a48.6 48.6 0 0 0-1.251.55 20.878 20.878 0 0 0-1.987-.482c-1.222-.221-2.15.295-2.669 1.087l-2.95-.673c-1.7-.387-2.9.83-3.103 2.201-1.466.442-2.901 1.194-4.265 2.312-1.108.907-.81 3.07.92 2.924 4.773-.402 9.396-.777 13.34 2.546 3.807 3.206 4.42 7.516 5.882 11.935.98 2.962 4.776 3.222 4.928.344.04-.765 2.636.937 2.545.16.164.251 2.124-.729 2.293-.48.96 1.405-.656-1.675-.858-3.557-.142-1.323-.474-2.638-.911-3.937z" fill="#834e3b"/>
        <path d="M258.202 203.304c-8.394-3.436-19.399-5.055-29.544-5.106l3.24-21.934c1.636-.704 3.286-1.38 4.978-1.978 4.79-1.695 9.175-3.056 14.547-4.639 1.07-.315.813-1.892-.343-1.937-4.614-.178-9.547.767-14.388 2.317a1.36 1.36 0 0 1-1.193.788c-.442.026-.88.049-1.32.073-.525.192-1.053.381-1.574.585l.074-.502c-2.507.135-4.983.272-7.451.456-2.002 11.645-5.516 22.96-6.656 34.816l7.861-1.515c1.32.107 2.64.203 3.967.27 2.273.112 4.613.467 6.821-.187.962-.284 1.073-1.277.627-1.948.31.032.622.051.931.086 6.333.706 12.765.544 19.145.403.736-.016 1.015.254.278-.048z" fill="#f9bfcf"/>
        <path d="M284.688 49.352c-7.67.517-15.216 4.044-22.078 7.315-1.908.91-3.882 1.856-5.855 2.863l.204-1.38-13.47 2.975-1.521 8.677c-.232.245-.486.472-.708.725-.514.585-.313 1.538.232 1.987l-16.842 96.005c5.389-.78 10.707-1.065 16.211-1.37l.334-1.463c.426-.026.851-.056 1.277-.069 5.096-.155 10.439.09 15.434-.747.828-.138.768.828-.086.365-4.385-2.374-9.729-3.232-14.628-3.205-.543.003-1.095.01-1.648.02l14.416-97.137c2.103-1.312 4.227-2.586 6.433-3.704 7.429-3.764 15.628-5.957 22.912-9.9.938-.509.4-2.026-.617-1.957z" fill="#504e5b"/>
        <path d="M386.82 229.484c.65-6.273 1.13-12.556 1.85-18.824.38-3.312.393-6.821.745-10.244-.623-.31-.063-1.498-.626-1.965-1.785-1.479-3.485-2.768-5.264-4.211l-.983-1.193c-.79-.571-.955-.656-1.72-1.229-3.882-2.904-8.714-3.94-12.654-6.763-1.175-.842-2.271-.522-1.1.454 3.923 3.27 7.553 7.373 11.55 10.552 1.104.877 2.028 2.195 3.141 3.102l-2.46 18.908c-6.172-1.285-12.907-1.507-18.344-1.789-1.33-.069-1.513 2.083-.219 2.327 5.161.975 10.276 2.022 15.378 3.274.86.211 1.727.456 2.597.707l-.389 2.992 8.499 3.902z" fill="#f9bfcf"/>
        <path d="M393.815 173.001c1.332-11.226 2.723-22.424 3.694-33.69.843-9.77 2.686-19 4.967-28.51 2.237-9.324 3.092-20.142-1.305-28.79l-5.467-2.622-.106.818c-4.643-6.344-10.365-11.903-16.255-15.92-1.05-.717-1.95.882-1.205 1.7 5.42 5.948 10.711 11.907 14.988 18.752.54.865 1.048 1.745 1.54 2.631l-12.56 96.548c-.259-.08-.519-.162-.776-.243-4.441-1.395-8.957-3.051-13.609-3.492l-.001.018c-.844-.188-1.542 1.036-.603 1.596 2.988 1.782 6.321 2.922 9.625 4.036.337-.133.736-.106 1.15.187l.54.387c.105.036.21.07.316.107.96.33.079 1.857 1.045 2.193l1.7-.084c1.914 1.414 3.792 2.872 5.569 4.46 1.615 1.442 2.922 2.251 4.916 2.936.638-7.666.93-15.37 1.837-23.018z" fill="#504e5b"/>
        <path d="M98.257 233.4c-10.399 11.717-16.668 29.404-18.056 44.67-.367 4.038-.6 8.98-.44 14.039-.559.286.231.67-.334.984-1.711.951-.552 3.175 1.036 3.29.305.022.22.322.52.324.795 9.528 3.806 18.703 10.575 23.822.152.116.325.198.508.255-5.665 14.205-8.733 30.305-12.474 44.933-.599 2.341 2.997 3.152 3.64.846 4.462-15.988 10.576-33.17 12.18-49.707.078-.81-1.065-1.453-1.475-.552-.117.256-.213.527-.328.784-3.156-7.337-5.106-14.651-6.008-22.211 6.842-3.495 11.324-12.317 11.322-19.503-.001-4.265-1.303-10.235-4.964-12.966-1.116-.833-2.319-1.308-3.467-1.393 2.594-8.806 6.329-17.165 10.052-25.995.59-1.402-1.156-2.895-2.287-1.62z" fill="#ffffff"/>
        <path d="M102.319 253.162c-2.3.194-3.553 2.57-4.204 4.516a9.99 9.99 0 0 0-.5 2.377c-.18 1.208.027 2.421.857 3.259 1.574 1.586 3.998.99 5.346-.54 1.327-1.507 2.123-3.915 2.059-5.915-.064-1.989-1.387-3.88-3.558-3.697z" fill="#ffffff"/>
        <path d="M64.822 445.768c-.3-.534-.895-.895-1.724-.687a6.652 6.652 0 0 0-1.637.653c-3.128.73-5.507 4.274-3.563 7.698.936 1.65 2.412 2.491 3.97 2.692 1.489.388 2.989-.05 4.14-.998 1.308-.875 2.304-2.252 2.54-4.028.336-2.514-1.193-5.038-3.726-5.33z" fill="#ffffff"/>
        <path d="M430.143 439.013c-3.305-67-50.862-146.508-51.341-147.303l3.685-2.225c.485.804 48.597 81.222 51.957 149.316l-4.3.212z" fill="#643b30"/>
        <path d="M414.544 271.52l-1.05-3.917c6.318-2.753 8.994-5.994 9.276-9.574.473-6.023-7.68-12.61-10.86-14.639-.219-.141-20.833-13.392-52.939-24.35-29.564-10.092-75.217-20.25-124.8-11.348-44.314 7.96-54.931 17.89-56.035 24.818-1.234 7.75 9.555 15.397 13.816 17.69l-2.039 3.79c-.735-.395-17.99-9.832-16.028-22.156 1.951-12.253 21.422-21.535 59.525-28.378 50.544-9.078 97.002 1.272 127.076 11.552 32.575 11.134 53.545 24.627 53.753 24.762.541.346 13.593 8.79 12.822 18.597-.416 5.29-4.628 9.715-12.517 13.153z" fill="#643b30"/>
        <path d="M388.848 230.332l-4.016-1.174 16.949-138.06c.244-1.978-.367-3.907-1.679-5.292-61.478-64.9-141.709-27.802-150.656-23.359a6.63 6.63 0 0 0-3.563 4.81L221.322 210.63l-4.244-.727L241.639 66.53a10.95 10.95 0 0 1 5.892-7.938c9.237-4.589 92.09-42.89 155.697 24.253 2.198 2.322 3.228 5.523 2.824 8.783l-17.204 138.704z" fill="#643b30"/>
        <path d="M296.6 299.9c-9.41 0-18.341-3.485-25.302-9.907-7.342-6.774-11.61-16.005-12.017-25.991-.407-9.986 3.095-19.534 9.863-26.883 6.766-7.35 15.988-11.621 25.965-12.028 20.59-.832 38.036 15.249 38.878 35.866.84 20.615-15.233 38.071-35.829 38.91-.52.022-1.041.033-1.559.033zm.049-71.611c-.468 0-.936.009-1.407.028-9.117.371-17.541 4.274-23.724 10.989-6.183 6.715-9.383 15.44-9.01 24.565.372 9.125 4.27 17.56 10.98 23.75 6.708 6.188 15.421 9.379 24.538 9.021 18.817-.767 33.503-16.717 32.735-35.554-.75-18.365-15.915-32.8-34.112-32.8z" fill="#643b30"/>
        <path d="M304.48 299.01l-.31-3.214c17.985-1.728 31.506-17.015 30.78-34.802-.67-16.46-13.793-30.143-30.524-31.825l.324-3.213c18.32 1.842 32.69 16.849 33.427 34.907.795 19.499-14.007 36.255-33.697 38.147z" fill="#643b30"/>
        <path d="M146.995 392.092c-32.274 0-54.247-9.245-54.553-9.376l1.702-3.955c.419.18 42.402 17.784 95.393 3.368l1.13 4.153c-15.746 4.284-30.56 5.81-43.672 5.81z" fill="#643b30"/>
        <path d="M162.037 445.034c-57.387-5.867-79.165-26.435-80.064-27.308l2.999-3.088-1.5 1.544 1.496-1.548c.212.204 21.795 20.422 77.506 26.117l-.437 4.283z" fill="#643b30"/>
        <path d="M219.966 356.408c-.309 0-.62-.003-.931-.008-10.106-.167-17.754-3.375-22.732-9.532-8.938-11.057-5.835-27.458-5.698-28.15l4.223.831-2.112-.416 2.113.414c-.03.15-2.841 15.157 4.835 24.631 4.14 5.109 10.68 7.773 19.442 7.918 12.187.196 22.783-3.885 29.898-11.508 3.307-3.544 8.8-11.024 8.413-21.295-.36-9.55-5.7-19.147-15.876-28.525l2.917-3.165c11.05 10.183 16.857 20.79 17.26 31.528.446 11.828-5.803 20.361-9.568 24.395-7.77 8.326-19.173 12.882-32.184 12.882z" fill="#643b30"/>
        <path d="M174.861 343.676a25.4 25.4 0 0 1-4.664-.455c-10.44-1.95-18.021-12.775-18.865-26.935-.77-12.94 4.754-30.064 22.864-35.74l1.288 4.108c-15.741 4.934-20.534 19.985-19.855 31.376.713 11.961 7.028 21.403 15.358 22.96 4.994.933 9.047.13 12.049-2.386 6.574-5.507 6.547-17.484 6.546-17.605l4.305-.044c.006.573.059 14.109-8.073 20.937-3 2.518-6.67 3.784-10.953 3.784z" fill="#643b30"/>
        <path fill="#643b30" d="M185.69 365.962l-12.231-2.947-1.468-19.797 3.229.08 1.53 17.189 6.393 1.54 6.08-28.893 3.174.594-6.707 32.234z"/>
        <path fill="#643b30" d="M186.109 365.98l-.133-3.225 12.008-.49 4.287-10.701 3.083.955-4.962 12.879-14.283.582z"/>
        <path d="M182.798 394.768l-2.655-1.837c.176-.256 18.064-25.382 52.124-7.553l-1.497 2.861c-31.47-16.475-47.313 5.582-47.972 6.529z" fill="#643b30"/>
        <path d="M207.267 417.802c-16.038 0-30.472-4.585-31.483-4.913-5.408-1.755-9.02-6.9-8.784-12.512l.012-.257c.172-2.946 1.836-5.558 4.453-6.996 2.701-1.482 5.911-1.48 8.587.012 3.25 1.81 28.558 5.811 38.452 2.94 19.395-5.63 20.13-47.005 20.135-47.422l4.305.053c-.023 1.834-.813 44.993-23.24 51.503-11.029 3.199-37.313-.844-41.746-3.314a4.54 4.54 0 0 0-4.42.001c-1.33.73-2.142 1.994-2.227 3.466l-.01.193c-.156 3.69 2.234 7.077 5.811 8.238.4.13 40.128 12.755 59.489-4.167 23.47-20.513 19.113-73.768 19.067-74.303l4.288-.376c.2 2.275 4.596 55.967-20.522 77.92-8.757 7.655-20.86 9.934-32.167 9.934z" fill="#643b30"/>
        <path d="M187.693 387.116l-1.594-3.999c6.029-2.401 7.258-17.748 7.214-17.964l4.214-.873c.632 3.045-2.358 19.858-9.834 22.836z" fill="#643b30"/>
        <path d="M374.842 300.489l-3.908-1.806c6.062-13.118 18.566-18.28 25.023-18.454 4.448-.119 8.61-1.733 11.724-4.545 8.027-7.248 8.57-15.721 1.662-25.904-3.69-5.44-8.704-8.798-14.904-9.977-17.314-3.298-38.495 10.964-38.707 11.108l-2.426-3.557c.925-.63 22.868-15.409 41.94-11.78 7.362 1.401 13.304 5.368 17.66 11.79 8.092 11.927 7.283 22.826-2.34 31.515-3.873 3.5-9.02 5.507-14.493 5.654-4.578.122-15.791 4.184-21.231 15.956z" fill="#643b30"/>
        <path d="M399.343 281.672c-.64-11.63-3.653-18.788-8.955-21.274-8.469-3.971-20.603 4.926-20.724 5.016l-2.572-3.453c.578-.432 14.312-10.516 25.112-5.466 6.855 3.206 10.702 11.597 11.438 24.94l-4.299.237z" fill="#643b30"/>
        <path d="M190.754 322.053l-4.905-5.315.116-.984c.013-.12 1.412-12.2.775-18.69-.076-.776-.374-1.322-.967-1.767-2.242-1.688-7.502-1.19-9.17-.882l-1.616.298-.715-1.48c-3.854-8 1.168-17.076 1.384-17.458l.43-.764.843-.245c37.215-10.83 65.647 9.298 66.839 10.16l.812.587.074 1c.817 11.255-8.996 15.808-14.298 16.643l-.98.155-.755-.646c-4.254-3.642-8.258-4.94-11.89-3.857-9.52 2.833-14.7 20.215-14.751 20.39l-.39 1.336-10.836 1.52zm-.405-6.786l2.04 2.21 5.886-.825c1.53-4.536 7.123-18.957 17.22-21.968 4.865-1.452 9.943-.098 15.097 4.025 2.591-.652 9.763-3.153 9.803-10.863-4.875-3.143-30.082-17.89-61.364-9.203-.858 1.852-2.788 6.784-1.435 11.29 2.683-.283 7.66-.41 10.759 1.919 1.553 1.165 2.476 2.823 2.67 4.792.577 5.89-.343 15.51-.676 18.623z" fill="#643b30"/>
        <path d="M171.969 284.24l-4.506-.676c.279-.643 29.066-65.504 85.27-82.312l1.234 4.124c-54.262 16.227-81.727 78.239-81.998 78.863z" fill="#643b30"/>
        <path d="M67.313 401.634c-2.82 0-5.661-.582-8.045-1.278a7.16 7.16 0 0 1-4.418-3.728 7.246 7.246 0 0 1-.221-5.845l10.997-27.639a7.159 7.159 0 0 1 3.882-3.97 7.16 7.16 0 0 1 5.558-.035c5.998 2.456 9.788 6.22 10.96 10.882 2.513 9.985-3.571 23.88-10.482 29.17-2.36 1.807-5.285 2.443-8.23 2.443zm2.313-36.898L58.63 392.374a2.891 2.891 0 0 0 .09 2.365 2.81 2.81 0 0 0 1.753 1.485c3.211.935 9.097 2.122 12.455-.451 5.715-4.375 10.955-16.633 8.925-24.702-1.043-4.147-5.153-6.611-8.417-7.948a2.907 2.907 0 0 0-3.809 1.613z" fill="#643b30"/>
        <path d="M71.17 362.157c-.194-.534-4.677-13.156 1.169-21.15 1.636-2.236 3.261-2.394 4.34-2.136 4.396 1.063 6.578 11.963 7.312 16.6l-3.189.505c-1.212-7.643-3.666-13.89-4.89-13.968-.065.002-.422.16-.967.906-4.826 6.597-.782 18.028-.74 18.142l-3.036 1.1z" fill="#643b30"/>
        <path d="M160.062 449.864l-2.976-3.108c15.194-14.55 18.05-34.558 18.078-34.759l4.267.571c-.117.878-3.05 21.671-19.369 37.296z" fill="#643b30"/>
        <path d="M191.799 247.593c-.271-.604-6.562-14.904.267-23.622 4.51-5.758 13.42-7.476 26.493-5.1l-.77 4.236c-11.37-2.067-18.888-.883-22.334 3.518-5.244 6.696.217 19.082.272 19.207l-3.928 1.761z" fill="#643b30"/>
        <path d="M389.085 199.563c-60.097-50.818-162.434-26.618-163.46-26.367l-1.02-4.182c.26-.064 26.603-6.373 60.091-6.197 31.046.175 74.84 6.122 107.168 33.458l-2.78 3.288z" fill="#643b30"/>
        <path fill="#643b30" d="M337.823 292.665l-9.686-6.365 2.935-2.79 5.412 3.298 4.26-6.589-7.69-4.61 2.214-3.692 11.508 6.9-8.953 13.848z"/>
        <path d="M435.5 433.114c-6.55.267-16.013-2.01-28.88-6.89-72.019-27.315-71.089-130.996-71.015-135.396l7.236-.01c-.018 1.039-.113 102.908 67.706 128.629 23.034 8.735 27.147 7.514 27.902 6.91 1.13-.898.506-3.466-.08-4.64l6.675-2.395c.372.725 3.493 7.206-1.586 11.288-1.901 1.526-4.53 2.364-7.959 2.504z" fill="#834e3b"/>
        <path fill="#643b30" d="M370.711 263.647a2.166 2.166 0 1 1-4.332 0 2.166 2.166 0 0 1 4.332 0z"/>
        <path fill="#643b30" d="M375.061 299.586a2.173 2.173 0 1 1-4.346 0 2.173 2.173 0 0 1 4.346 0z"/>
        <path fill="#643b30" d="M356.752 249.046a2.117 2.117 0 1 1-4.234 0 2.117 2.117 0 0 1 4.234 0z"/>
        <path d="M138.085 510.403l-42.522.173s-4.122-.612-5.013-3.307c-.89-2.695 3.03-30.948 3.03-30.948l26.684-1.088 17.821 35.17z" fill="#f595a8"/>
        <path d="M221.075 246.29c.11-.139.22-.278.318-.478.76-1.44-.074-3.407-1.866-4.383-1.346-.715-2.833-.712-3.836-.051-.085.049-.167.118-.24.176-2.626 1.881-5.51 5.324-7.831 9.651-2.135 3.94-3.35 7.852-3.645 11.014-.056.298-.047.552-.067.821-.024.09.009.2-.02.323.027.92.536 1.91 1.404 2.627.242.196.47.383.757.537 1.837.935 3.931.575 4.72-.881.098-.2.142-.348.19-.528.062-.172.061-.33.069-.502.5-2.886 1.655-6.254 3.509-9.69 1.83-3.4 3.975-6.236 6.098-8.238a2.75 2.75 0 0 0 .44-.398" fill="#643b30"/>
        <path d="M297.476 247.375a2.12 2.12 0 0 0 .3-.508c.737-1.573-.26-3.611-2.236-4.555-1.467-.674-3.017-.585-4.064.136a1.241 1.241 0 0 1-.241.192c-2.678 2.133-5.533 5.946-7.759 10.609-2.202 4.677-3.322 9.275-3.31 12.74l.002.32c.11 1.244 1.037 2.508 2.466 3.192.118.07.262.123.406.176 1.877.71 3.862.127 4.536-1.34a1.96 1.96 0 0 0 .182-.577c.032-.109.024-.257.028-.318-.006-.099.036-.17.017-.245.366-3.051 1.408-6.707 3.156-10.425 1.766-3.722 3.895-6.817 6.032-9.061.219-.047.37-.196.485-.336" fill="#643b30"/>
        <path d="M143.81 164.074v.013l.804-.06-.803.047z" fill="#fefbdf"/>
        <path d="M140.928 210.77c-.003-.124.022-.232.038-.346-2.006-2.931-5.416-4.803-9.217-4.61-.73.036-1.438.147-2.119.324a10.075 10.075 0 0 0-.542-6.127c.342-1.11.489-2.282.428-3.476a10.025 10.025 0 0 0-3.312-6.976 10.025 10.025 0 0 0-7.276-2.59 10.08 10.08 0 0 0-3.415.776 10.076 10.076 0 0 0-3.476-.428 10.024 10.024 0 0 0-6.976 3.313 10.025 10.025 0 0 0-2.59 7.276c.06 1.194.325 2.344.776 3.414a10.081 10.081 0 0 0-.427 3.476 10.024 10.024 0 0 0 3.312 6.976c2 1.808 4.584 2.727 7.276 2.591a10.078 10.078 0 0 0 3.415-.777c1.11.341 2.281.488 3.475.428a10.21 10.21 0 0 0 1.754-.25 10.515 10.515 0 0 0-.31 3.126c.294 5.813 5.263 10.302 11.076 10.008 2.947-.15 5.54-1.513 7.353-3.568.55-1.577.923-3.248 1.254-4.892.11-.133.21-.28.277-.483.805-2.47.57-4.988-.774-7.184z" fill="#ffffff"/>
        <path d="M181.225 169.13c.043-.151.089-.304.123-.446.751-3.104.037-6.372-1.952-8.955-7.018-9.142-14.01-18.257-20.785-27.097-2.194-2.858-4.88-3.872-6.747-4.219a8.669 8.669 0 0 0-.148-.026l-.117-.02a8.44 8.44 0 0 0-2.337-.061l-.549.062a8.397 8.397 0 0 0-1.395.28l-.278.08a8.409 8.409 0 0 0-1.034.376c-1.693.742-4.022 2.299-5.52 5.51-3.441 7.416-6.934 14.932-10.355 22.296l-3.827 8.236a10.505 10.505 0 0 0-7.325-2.482c-5.812.295-10.302 5.264-10.007 11.077.294 5.813 5.263 10.302 11.076 10.007a10.487 10.487 0 0 0 6.24-2.468c.399 1.328 1.12 2.763 2.375 4.155 6.002 6.659 11.957 13.269 17.768 19.724.055.06.12.09.17.163.036.051.076.098.112.15l1.628 1.807c-.035.03-.067.061-.1.092.241.271.488.536.733.803 1.811 3.315 4.718 5.999 8.694 6.227 3.279.188 6.062-1.468 7.469-4.202.042.017.085.03.127.047 1.699-4.167 3.63-8.247 5.492-12.351 1.459-3.216 3.131-6.347 5.222-9.146l1.407-2.538 2.644-4.769c.4-.718.812-1.46 1.224-2.212 1.727-3.18 1.716-6.953-.028-10.1z" fill="#ffffff"/>
        <path d="M201.499 187.123a10.02 10.02 0 0 0-7.211-2.774 9.903 9.903 0 0 0-3.438.692 10.09 10.09 0 0 0-3.46-.512c-.044 0-.088.007-.133.01a1.433 1.433 0 0 0-1.149-.04c-4.978 1.839-6.74 7.47-4.003 11.912.004.133-.01.262-.037.39-5.433 2.454-3.88 12.099 1.43 14.177.354.138.674.118.97.038 1.232.438 2.548.642 3.872.575a10.12 10.12 0 0 0 3.197-.69c1.182.396 2.438.573 3.7.509a10.038 10.038 0 0 0 6.808-3.132 10.027 10.027 0 0 0 2.768-7.208 10.105 10.105 0 0 0-.692-3.433c.367-1.102.543-2.27.512-3.464a10.018 10.018 0 0 0-3.134-7.05z" fill="#ffffff"/>
        <path d="M177.912 149.974a10.507 10.507 0 0 0 7.073-3.247 10.012 10.012 0 0 0 2.775 4.657 10.134 10.134 0 0 0 7.462 2.764c1.11-.056 2.188-.29 3.197-.689 1.182.395 2.438.573 3.7.51a10.038 10.038 0 0 0 6.809-3.133 10.027 10.027 0 0 0 2.767-7.208 10.097 10.097 0 0 0-.692-3.433c.367-1.102.543-2.27.512-3.464a10.018 10.018 0 0 0-3.134-7.05 10.02 10.02 0 0 0-7.214-2.774 9.99 9.99 0 0 0-3.435.692 10.08 10.08 0 0 0-3.459-.512c-2.707.049-5.205 1.184-7.061 3.142a10.116 10.116 0 0 0-1.727 2.468c-2.054-2.467-5.195-3.982-8.641-3.808-5.813.295-10.302 5.263-10.008 11.076s5.263 10.303 11.076 10.009zm-.851-16.796a6.27 6.27 0 0 1 6.571 5.936 6.27 6.27 0 0 1-5.937 6.571 6.27 6.27 0 0 1-6.571-5.937 6.27 6.27 0 0 1 5.937-6.57z" fill="#ffffff"/>
        <path d="M196.567 158.546c-5.813.294-10.302 5.264-10.008 11.077.295 5.813 5.263 10.302 11.076 10.007s10.303-5.263 10.009-11.076-5.264-10.303-11.077-10.008z" fill="#ffffff"/>
        <path d="M163.064 161.435l2.517.818-12.61-16.438c.483 4.218.976 8.544 1.459 12.815 2.886.936 5.797 1.883 8.634 2.805z" fill="#fefbdf"/>
        <path d="M148.902 146.167l-8.843 19.029c3.385-2.007 6.878-4.078 10.323-6.116-.498-4.304-.996-8.666-1.48-12.913z" fill="#fefbdf"/>
        <path fill="#fefbdf" d="M139.885 170.042l12.352 5.43-1.362-11.943-10.99 6.513z"/>
        <path fill="#fefbdf" d="M156.312 174.972l10.552-8.01-11.91-3.875 1.358 11.885z"/>
        <path d="M165.654 181.6l-8.104 6.089.81 7.069 7.294-13.158z" fill="#fefbdf"/>
        <path d="M144.233 184.046l10.068 11.175c-.266-2.331-.537-4.713-.802-7.067-3.088-1.366-6.214-2.754-9.266-4.108z" fill="#fefbdf"/>
        <path d="M134.788 172.261l4.447 1.955a9874.48 9874.48 0 0 1 14.391 6.333 2.515 2.515 0 0 0 1.28.218c.423-.047.832-.222 1.218-.518a499.508 499.508 0 0 1 3.501-2.668l12.699-9.637c.168-.126.676-.511.851-1.237.156-.644.004-1.27-.45-1.858-7.018-9.143-14.012-18.26-20.785-27.097-.321-.419-.788-.918-1.612-1.071l-.117-.02-.55.063-.277.08c-.805.353-1.143 1.078-1.27 1.351-3.776 8.134-7.612 16.389-11.349 24.432l-3.104 6.68c-.295.635-.343 1.229-.14 1.766.14.367.471.878 1.267 1.228zm18.183-26.446l12.61 16.438-2.517-.818c-2.837-.922-5.748-1.87-8.634-2.805-.483-4.27-.976-8.597-1.459-12.815zm3.34 29.157l-1.356-11.885 11.91 3.875-10.553 8.01zm-5.88-15.477l.834-.097-.834.11v-.013zm-1.53-13.328c.485 4.247.983 8.61 1.48 12.913-3.444 2.038-6.937 4.108-10.322 6.116l8.843-19.03zm1.974 17.362l1.362 11.943-12.352-5.43 10.99-6.513z" fill="#f595a8"/>
        <path d="M170.714 172.686l-5.683 4.274c-3.26 2.452-6.603 4.967-9.907 7.456-4.492-1.998-9.055-4.023-13.471-5.982l-2.903-1.29c-.53-.236-1.076-.48-1.62-.713a2.065 2.065 0 0 0-1.845.091 2.018 2.018 0 0 0-1.013 1.503c-.125.934.427 1.548.636 1.78 6.889 7.641 13.73 15.235 20.333 22.571.214.238.659.734 1.408.974l.174.056.86-.112.126-.06c.644-.305.98-.816 1.175-1.172a42632.82 42632.82 0 0 1 11.047-19.928l2.652-4.784c.39-.698.79-1.42 1.18-2.135.349-.64.351-1.391.008-2.008a2.035 2.035 0 0 0-1.672-1.035c-.656-.038-1.142.255-1.485.514zm-12.355 22.072l-.81-7.07c2.7-2.025 5.43-4.077 8.105-6.088l-7.295 13.158zm-4.86-6.604c.265 2.354.536 4.736.802 7.067l-10.068-11.175c3.052 1.354 6.179 2.742 9.266 4.108z" fill="#f595a8"/>
        <path d="M197.21 171.232a2.147 2.147 0 1 0-.217-4.288 2.147 2.147 0 0 0 .217 4.288z" fill="#f595a8"/>
        <path d="M132.392 218.5a2.147 2.147 0 1 0-.217-4.288 2.147 2.147 0 0 0 .217 4.288z" fill="#f595a8"/>
        <path d="M113.676 196.147a1.681 1.681 0 1 0-2.255 2.496l2.372 2.143 2.255-2.495-2.372-2.144z" fill="#f9e976"/>
        <path d="M118.66 205.184c.345.312.783.454 1.213.432s.851-.207 1.163-.552a1.681 1.681 0 0 0-.12-2.375l-2.373-2.143-2.255 2.495 2.373 2.143z" fill="#f9e976"/>
        <path d="M111.77 205.533a1.679 1.679 0 0 0 2.375-.12l2.143-2.372-2.495-2.255-2.143 2.372a1.681 1.681 0 0 0 .12 2.375z" fill="#f9e976"/>
        <path d="M120.686 198.173a1.681 1.681 0 1 0-2.495-2.254l-2.143 2.372 2.495 2.255 2.143-2.373z" fill="#f9e976"/>
        <path fill="#f9e976" d="M116.047 198.291l2.495 2.255-2.254 2.495-2.496-2.255 2.255-2.495z"/>
        <path d="M195.689 135.955a1.68 1.68 0 1 0-2.316 2.439l2.32 2.2 2.315-2.438-2.32-2.201z" fill="#f9e976"/>
        <path d="M200.451 145.11c.347.33.799.483 1.243.46a1.681 1.681 0 0 0 1.072-2.9l-2.319-2.2-2.315 2.44 2.319 2.2z" fill="#f9e976"/>
        <path d="M193.554 145.29c.348.33.8.483 1.243.46a1.673 1.673 0 0 0 1.134-.522l2.201-2.318-2.44-2.315-2.2 2.318a1.681 1.681 0 0 0 .062 2.377z" fill="#f9e976"/>
        <path d="M202.648 138.152a1.681 1.681 0 1 0-2.44-2.315l-2.2 2.319 2.44 2.315 2.2-2.32z" fill="#f9e976"/>
        <path fill="#f9e976" d="M198.007 138.156l2.44 2.315-2.315 2.44-2.44-2.316 2.315-2.44z"/>
        <path d="M188.806 193.396a1.68 1.68 0 1 0-2.315 2.44l2.32 2.2 2.314-2.438-2.32-2.202z" fill="#f9e976"/>
        <path d="M193.568 202.552c.348.33.8.483 1.243.46a1.681 1.681 0 0 0 1.072-2.9l-2.318-2.2-2.315 2.44 2.318 2.2z" fill="#f9e976"/>
        <path d="M193.565 197.912l2.2-2.318a1.681 1.681 0 1 0-2.439-2.316l-2.2 2.32 2.439 2.314z" fill="#f9e976"/>
        <path d="M188.81 198.037l-2.2 2.319a1.681 1.681 0 1 0 2.439 2.315l2.2-2.32-2.439-2.314z" fill="#f9e976"/>
        <path fill="#f9e976" d="M191.125 195.598l2.44 2.315-2.315 2.44-2.44-2.316 2.315-2.44z"/>
        <path fill="#f9e976" d="M179.522 139.322a2.147 2.147 0 1 1-4.288.218 2.147 2.147 0 0 1 4.288-.218z"/>
        <path d="M119.622 175.35a2.147 2.147 0 1 0-.217-4.288 2.147 2.147 0 0 0 .217 4.289z" fill="#f9e976"/>
        <path d="M435.754 535.92c-22.076 0-32.12-7.865-32.678-8.317l-1.212-.983.559-1.46c2.406-6.28 23.97-61.391 39.686-62.032 12.375-.503 17.758 14.476 19.706 22.406l2.212-2.86c.449-.673 2.587-3.602 5.623-2.949 3.161.681 5.086 4.672 6.24 12.94 2.562 18.333-9.839 37.782-10.368 38.602l-.465.718-.831.204c-11.111 2.721-20.565 3.73-28.472 3.73zm-28.692-10.82c4.637 2.787 22.036 11.045 55.282 3.115 2.15-3.597 11.362-20.076 9.284-34.954-1.186-8.488-2.894-9.328-2.91-9.335-.17.06-.784.638-1.123 1.158l-.11.157-8.254 10.668-.722-5.033c-.034-.24-3.602-23.988-16.226-23.446-9.491.387-26.336 34.906-35.221 57.67z" fill="#643b30"/>
        <path fill="#ffffff" d="M302.064 235.617c4.185 6.377-.14 16.612-9.66 22.86-9.52 6.247-20.63 6.142-24.815-.236-4.185-6.377.14-16.612 9.66-22.86 9.52-6.247 20.63-6.141 24.815.236z" opacity=".47"/>
        <path fill="#ffffff" d="M290.737 235.552c2.303 3.51-.077 9.142-5.315 12.579-5.239 3.438-11.352 3.38-13.655-.13-2.303-3.508.077-9.14 5.315-12.578 5.239-3.438 11.352-3.38 13.655.13z" opacity=".9"/>
        <path d="M216.2 299.189c5.54-.564 9.834-3.115 9.551-5.668-.283-2.588-4.992-4.216-10.532-3.653-5.583.59-9.85 3.133-9.559 5.694.274 2.58 4.992 4.2 10.54 3.627" fill="#4c2a23"/>
        <path d="M183.414 294.224c3.694 2.692 7.75 3.522 9.02 1.851 1.288-1.692-.664-5.233-4.359-7.926-3.737-2.7-7.772-3.521-9.04-1.84-1.289 1.683.674 5.223 4.379 7.915" fill="#4c2a23"/>
        <path d="M450.243 430.605c.154-.388-.965-.949-1.137-1.413-.314-.851 2.753 1.443 1.366-2.255 1.16-.281-.521-2.888-.844-4.22a190.817 190.817 0 0 0-3.729-13.197c.308-.482.408-1.077.127-1.727-1.315-3.04-2.624-6.081-3.939-9.12-1.112-2.9-2.282-5.78-3.52-8.636.726-.743 1-1.868.075-2.793l-3.295-4.292c-.199-.424-.395-.848-.598-1.27l-.071-.166c.457-.665.576-1.523.009-2.294-.642-.873-1.294-1.738-1.938-2.609-.102-.602-.496-1.248-1.442-1.878l-15.14-20.13c-.4-1.183-1.181-1.712-1.986-1.802a1323.683 1323.683 0 0 1-8.662-11.93c-1.502-2.099-4.782-.297-3.975 1.835a33.227 33.227 0 0 0-1.763-1.421c.757-.098 1.328-.972.834-1.689-1.928-2.797-5.813-4.044-8.878-5.214-2.464-.94-5.332-2.07-8.062-1.98a67.909 67.909 0 0 0-5.82-1.848c-.975-.261-1.612 1.324-.633 1.692.368.138.724.305 1.09.45 7.384 5.429 14.477 9.715 20.422 17.085 5.845 7.245 9.658 15.74 14.795 23.404l1.906 3.706c-.38.465-.549 1.117-.307 1.925 2.952 9.846 5.894 19.694 8.86 29.536-1.404.373-2.341 1.824-1.417 3.369 1.576 2.634 3.138 5.275 4.707 7.913.078.32.154.624.233.957l-.304-.09c-1.158-.345-2.019.098-2.497.843-1.001.696-1.556 2.097-.752 3.188l2.718 3.689c-.539.355-.832.968-.922 1.585-.771 1.01-.813 2.467.512 3.183.306.414.77.808 1.472 1.326.596.44-.673.675-.094.635.197.236-.056.442.244.597 6.556-.245 15.528-.536 22.08-.899.054-.35.042-.725-.058-1.12-.258-1.02.61-1.91.333-2.925z" fill="#834e3b"/>
        <path d="M449.777 434.885c-1.988-57.027-53.654-96.521-54.173-96.852l2.124-3.743c1.02.557 14.567 11.057 28.195 28.827 12.264 15.992 27.103 41.398 28.157 71.617l-4.303.15z" fill="#643b30"/>
        <path d="M360.763 425.282l8.728.247a2.333 2.333 0 0 1 2.108 1.484l4.794 12.623c2.048 1.292 4.126 2.14 5.553 1.485l-11.985-31.153a2.333 2.333 0 0 0-3.022-1.326 2.333 2.333 0 0 0-1.326 3.022l2.304 5.908a2.333 2.333 0 0 1-2.24 3.18l-4.782-.135a2.334 2.334 0 0 0-.132 4.665z" fill="#643a2f"/>
        <path d="M364.56 435.728l5.344 1.866a31.044 31.044 0 0 1 4.948-2.017l-3.253-8.564a2.333 2.333 0 0 0-2.108-1.484l-8.728-.247a2.333 2.333 0 1 1 .132-4.665l4.782.135a2.333 2.333 0 0 0 2.24-3.18l-2.304-5.908a2.333 2.333 0 0 1 2.214-3.18l-10.963-7.62 5.54 14.88-16.518 1.189 18.674 18.795z" fill="#834e3b"/>
        <path d="M447.801 431.36c-6.326 0-17.447-2.516-37.587-10.66-29.71-12.017-51.462-39.365-62.903-79.09-8.586-29.816-8.395-56.473-8.392-56.739l4.305.047c-.003.26-.18 26.38 8.255 55.604 7.717 26.743 24.453 61.669 60.349 76.186 34.63 14.006 39.766 10.068 40.444 9.136 1.279-1.758-1.536-6.866-4.059-9.877l2.442-3.612c1.366 1.63 8.847 10.867 5.099 16.021-1.119 1.537-3.157 2.983-7.953 2.984z" fill="#643b30"/>
        <path fill="#643b30" d="M398.582 335.878a2.283 2.283 0 1 1-4.566 0 2.283 2.283 0 0 1 4.566 0z"/>
        <path d="M312.686 186.47c-.65 3.309-1.005 6.66-1.732 9.951-.522 2.365-1.465 3.182-4.041 3.244a22.881 22.881 0 0 1-6.692-.81c-1.765-.486-2.545-1.566-2.559-3.312-.006-.852.042-1.699.127-2.545a761.905 761.905 0 0 1 1.788-16.174c.11-.901.232-1.803.49-2.684.51-1.734 1.537-2.493 3.737-2.596a24.217 24.217 0 0 1 7.95.949c2.05.605 2.82 1.889 2.597 3.841-.39 3.405-1.18 6.75-1.665 10.136zm-5.372-.682h.004c.393-2.69.812-5.38 1.23-8.068.252-1.597-.027-1.874-1.964-1.937-.945-.028-1.21.145-1.329.946a648.272 648.272 0 0 0-2.261 16.83c-.166 1.368-.405 1.657 1.737 1.816 1.049.082 1.25-.09 1.383-1.073a825.67 825.67 0 0 1 1.2-8.514z" fill="#a14360"/>
        <path d="M286.885 198.036a181.631 181.631 0 0 0-5.795-.111c-.33 0-.506-.02-.493-.406.082-2.236.128-4.475.222-6.712.072-1.64.86-3.027 2.073-4.267a254.73 254.73 0 0 1 5.57-5.52c.786-.756 1.14-1.654 1.208-2.64.06-.832.196-1.659.133-2.494-.066-.912-.397-1.258-1.518-1.33-1.122-.072-2.254-.05-3.385-.058a64.979 64.979 0 0 0-2.263.01c-.324.01-.472-.035-.448-.352.085-1.11.144-2.224.194-3.333.011-.246.08-.38.404-.4 3.2-.216 6.418-.354 9.523.302 2.176.464 3.153 1.657 3.17 3.643a28.883 28.883 0 0 1-.625 6.235c-.33 1.563-1.399 2.747-2.603 3.87-1.632 1.519-3.206 3.076-4.804 4.602-.816.778-1.246 1.647-1.249 2.696a17.057 17.057 0 0 1-.089 1.718c-.038.369.095.472.493.48 2.065.05 4.117.17 6.173.26.526.022.623.175.573.621a49.674 49.674 0 0 0-.238 3.097c-.018.324-.134.385-.463.364-1.917-.128-3.837-.21-5.763-.275z" fill="#a14360"/>
        <path d="M319.992 201.669a171.13 171.13 0 0 0-5.577-.967c-.322-.05-.481-.102-.412-.477.397-2.184.766-4.368 1.174-6.552.308-1.65 1.296-2.935 2.685-4a277.22 277.22 0 0 1 6.143-4.602c.871-.632 1.344-1.473 1.555-2.435.186-.85.453-1.683.502-2.558.039-.724-.185-1.079-.982-1.329-1.134-.352-2.335-.455-3.51-.645a59.497 59.497 0 0 0-2.255-.331c-.32-.04-.445-.11-.378-.418.242-1.085.462-2.176.673-3.267.047-.243.14-.358.452-.333 3.129.26 6.265.594 9.179 1.703 2.041.778 2.81 2.102 2.533 4.07a29.667 29.667 0 0 1-1.521 6.074c-.546 1.5-1.76 2.514-3.09 3.445-1.801 1.262-3.552 2.57-5.319 3.844-.903.649-1.441 1.446-1.599 2.484a17.61 17.61 0 0 1-.336 1.686c-.092.361.032.477.41.545 1.986.353 3.958.766 5.927 1.17.427.09.599.19.475.643-.27 1-.489 2.013-.684 3.029-.073.375-.218.408-.575.33a159.269 159.269 0 0 0-5.47-1.109z" fill="#a14360"/>
        <path d="M340.025 182.937c-1.24-.004-2.468-.015-3.689.036-.379.014-.474-.063-.5-.38a61.3 61.3 0 0 0-.333-2.922c-.038-.274.022-.373.361-.417 2.075-.25 4.154-.498 6.243-.72.248-.027.473.012.704.073 1.138.305 1.875.594 3.019.865.57.138.579.328.444.74-2.298 7.064-4.102 14.214-6.2 21.32-.147.499-.094.717.485.84.768.168 1.514.442 2.276.645.328.088.459.183.34.534a66.99 66.99 0 0 0-.954 3.128c-.086.314-.219.342-.519.25a190.273 190.273 0 0 0-10.685-2.881c-.35-.085-.424-.19-.335-.52.282-1.036.535-2.077.772-3.121.075-.333.204-.41.558-.313.861.234 1.734.426 2.593.66.293.076.452.083.542-.255a674.115 674.115 0 0 1 4.868-17.367c.015-.048.007-.106.01-.195z" fill="#a14360"/>
        <path d="M314.486 184.634c-.65 3.308-1.006 6.658-1.733 9.95-.521 2.366-1.465 3.182-4.04 3.244a22.881 22.881 0 0 1-6.693-.81c-1.764-.486-2.545-1.566-2.558-3.312-.006-.852.042-1.699.127-2.545a761.728 761.728 0 0 1 1.787-16.174c.11-.901.232-1.803.491-2.683.51-1.735 1.536-2.494 3.737-2.597a24.218 24.218 0 0 1 7.949.949c2.05.605 2.82 1.889 2.598 3.841-.39 3.405-1.181 6.75-1.665 10.137zm-5.372-.682h.004c.393-2.691.811-5.38 1.23-8.069.252-1.597-.027-1.873-1.965-1.937-.945-.027-1.209.146-1.328.946a648.262 648.262 0 0 0-2.262 16.831c-.165 1.367-.405 1.657 1.738 1.816 1.048.08 1.25-.09 1.383-1.074.386-2.838.784-5.677 1.2-8.513z" fill="#ffffff"/>
        <path d="M288.684 196.2a181.633 181.633 0 0 0-5.794-.112c-.331.001-.507-.02-.493-.406.081-2.236.127-4.475.222-6.712.071-1.64.859-3.027 2.073-4.266 1.82-1.856 3.67-3.7 5.569-5.52.787-.757 1.14-1.655 1.209-2.641.059-.831.196-1.659.133-2.494-.067-.912-.398-1.258-1.518-1.33-1.123-.072-2.255-.05-3.386-.058a64.94 64.94 0 0 0-2.263.01c-.324.01-.472-.035-.448-.351.086-1.111.144-2.225.194-3.334.012-.246.081-.379.404-.4 3.201-.216 6.418-.354 9.524.303 2.175.463 3.153 1.656 3.17 3.642a28.882 28.882 0 0 1-.625 6.236c-.33 1.562-1.399 2.746-2.603 3.87-1.632 1.518-3.206 3.075-4.805 4.6-.815.78-1.245 1.648-1.248 2.698a17.057 17.057 0 0 1-.09 1.718c-.038.368.095.47.493.48 2.065.05 4.118.17 6.174.259.525.023.623.176.573.621a49.675 49.675 0 0 0-.238 3.098c-.018.323-.135.384-.463.363-1.917-.128-3.838-.21-5.764-.275z" fill="#ffffff"/>
        <path d="M321.792 199.832a171.09 171.09 0 0 0-5.577-.967c-.323-.05-.481-.102-.413-.477.398-2.184.767-4.368 1.175-6.551.308-1.65 1.295-2.936 2.684-4.002a277.22 277.22 0 0 1 6.143-4.601c.872-.632 1.344-1.473 1.555-2.435.187-.85.453-1.682.503-2.557.038-.725-.186-1.08-.982-1.33-1.134-.352-2.335-.455-3.51-.645a59.537 59.537 0 0 0-2.255-.331c-.32-.04-.446-.11-.379-.418.243-1.085.462-2.176.673-3.267.048-.243.14-.358.453-.333 3.129.26 6.265.594 9.178 1.703 2.042.778 2.81 2.102 2.534 4.07a29.667 29.667 0 0 1-1.522 6.075c-.545 1.499-1.759 2.513-3.089 3.444-1.802 1.262-3.553 2.57-5.32 3.844-.902.65-1.44 1.446-1.598 2.484-.086.568-.195 1.13-.336 1.686-.092.361.032.477.41.545 1.986.353 3.957.766 5.927 1.17.427.09.598.19.474.643-.27 1-.488 2.013-.683 3.029-.073.375-.218.409-.576.33a159.232 159.232 0 0 0-5.47-1.109z" fill="#ffffff"/>
        <path d="M341.824 181.1c-1.24-.003-2.467-.015-3.688.036-.38.014-.474-.063-.5-.379-.086-.976-.2-1.95-.334-2.923-.037-.273.023-.373.362-.416 2.074-.252 4.153-.5 6.243-.72.247-.028.472.011.703.072 1.139.305 1.876.594 3.02.865.57.139.578.328.443.74-2.298 7.064-4.102 14.214-6.2 21.32-.146.499-.093.717.485.841.769.167 1.514.44 2.277.644.327.088.458.183.34.534a66.953 66.953 0 0 0-.954 3.128c-.087.314-.22.342-.52.25a190.286 190.286 0 0 0-10.684-2.881c-.351-.085-.424-.19-.336-.52.282-1.036.536-2.077.772-3.12.075-.334.204-.412.559-.314.861.234 1.734.426 2.593.66.292.076.452.083.541-.255a674.098 674.098 0 0 1 4.869-17.367c.015-.048.007-.106.01-.195z" fill="#ffffff"/>
        <path fill="#ffffff" d="M156.75 484.836l-.26-6.356-8.748.357-.526-12.9 10.743-.438-.268-6.575-19.848.809 1.847 45.298 19.882-.17-.269-6.59-10.748.113-.538-13.192 8.733-.356z"/>
        <path d="M102.54 322.216c-1.145 10.161-3.94 19.967-6.454 29.852-.314 1.238 1.599 1.766 1.914.527 2.558-10.062 5.359-20.037 6.525-30.38.143-1.266-1.843-1.256-1.984 0z" fill="#989492"/>
        <path d="M67.324 463.675c-.7 0-1.407-.08-2.105-.244a9.157 9.157 0 0 1-5.738-4.105 9.155 9.155 0 0 1-1.153-6.959l12.39-53.29 3.145.73-12.39 53.292a5.943 5.943 0 0 0 .75 4.52 5.947 5.947 0 0 0 3.727 2.668 5.949 5.949 0 0 0 4.52-.75 5.95 5.95 0 0 0 2.668-3.727l30.912-132.96.968-.234c12.824-3.087 25.228-20.07 30.163-41.299 3.396-14.608 2.85-29.081-1.497-39.708-.014-.034-.04-.099-.159-.106a.228.228 0 0 0-.138.025l-2.974 12.514-.118.204c-.897 1.554-2.511 2.277-4.03 1.8-1.579-.498-2.53-2.103-2.367-3.995l.61-17.997-6.635 17.711c-.83 2.079-2.58 2.75-3.937 2.513l-.174-.04c-1.33-.388-2.596-1.762-2.426-3.957l1.863-18.859-7.425 16.5c-.657 1.693-2.212 2.716-3.856 2.463-1.568-.24-2.702-1.604-2.822-3.393l-.016-.236 2.851-12.541a.25.25 0 0 0-.112-.084c-.11-.045-.163.001-.19.025-8.59 7.62-15.464 20.368-18.86 34.976-4.935 21.228-1.296 41.94 8.85 50.37l.766.636-10.352 44.526-3.144-.731 9.905-42.609c-10.64-9.652-14.332-30.719-9.17-52.924 3.544-15.244 10.783-28.606 19.863-36.66a3.386 3.386 0 0 1 3.56-.595 3.449 3.449 0 0 1 2.148 2.979l.014.234-2.866 12.61c.032.151.081.224.1.24-.006-.02.195-.125.354-.534l7.874-17.504c.7-1.494 2.11-2.268 3.504-1.953 1.417.319 2.363 1.629 2.355 3.259l-.008.15-1.97 19.938a1.06 1.06 0 0 0 .05.46c.073-.072.171-.2.26-.424l7.075-18.866c.71-1.467 2.14-2.224 3.548-1.888 1.397.334 2.314 1.65 2.285 3.274l-.65 19.124c-.043.52.09.704.125.726-.011-.011.055-.056.147-.176l2.99-12.583.117-.204a3.445 3.445 0 0 1 3.244-1.726 3.388 3.388 0 0 1 2.93 2.105c4.595 11.232 5.197 26.417 1.653 41.663-5.163 22.205-17.769 39.482-31.577 43.449L76.282 456.542a9.159 9.159 0 0 1-4.105 5.736 9.154 9.154 0 0 1-4.853 1.397z" fill="#643b30"/>
    </g>
</svg>
