<svg width="512" height="512" viewBox="0 0 512 512" fill="none" xmlns="http://www.w3.org/2000/svg">
<g clip-path="url(#clip0_53_248)">
<path d="M84.2566 225.289C84.0231 210.454 88.8472 195.981 97.9353 184.253L191.223 277.542C179.465 286.572 165.012 291.39 150.187 291.22C132.724 291.148 115.996 284.179 103.647 271.83C91.2983 259.481 84.3287 242.753 84.2566 225.289Z" fill="#ffffff"/>
<path d="M361.795 291.151C370.529 291.187 379.184 289.495 387.262 286.17C395.339 282.847 402.679 277.958 408.857 271.784C415.037 265.612 419.934 258.277 423.266 250.203C426.598 242.129 428.3 233.476 428.273 224.742C428.436 209.917 423.62 195.467 414.594 183.706L321.032 277.267C332.662 286.365 347.03 291.258 361.795 291.151Z" fill="#ffffff"/>
<path d="M433.953 164.756C448.336 181.644 456.239 203.1 456.249 225.283C456.232 250.23 446.309 274.149 428.662 291.784C411.015 309.418 387.088 319.323 362.14 319.323C340.073 319.348 318.707 311.572 301.818 297.369L256.542 342.645L211.266 297.369C194.365 311.597 172.968 319.376 150.875 319.323C138.493 319.368 126.225 316.97 114.772 312.265C103.319 307.56 92.9076 300.641 84.1334 291.905C75.3593 283.168 68.395 272.788 63.6401 261.355C58.8854 249.923 56.4332 237.665 56.4244 225.283C56.442 203.203 64.2121 181.829 78.3787 164.892L57.245 143.758L37.0694 123.241C12.7651 163.201 -0.0608323 209.084 0.000216925 255.855C-0.00877398 289.472 6.60731 322.761 19.4699 353.82C32.3325 384.879 51.1896 413.099 74.9636 436.866C98.7376 460.634 126.962 479.483 158.024 492.338C189.088 505.192 222.378 511.799 255.995 511.781C323.836 511.763 388.898 484.823 436.895 436.879C484.891 388.933 511.899 323.901 511.99 256.059C512.412 209.296 499.711 163.353 475.331 123.446L433.953 164.756Z" fill="#ffffff"/>
<path d="M441.409 79.3359C417.536 54.2367 388.805 34.2591 356.964 20.6197C325.123 6.9804 290.839 -0.035219 256.2 0.000132942C221.554 -0.016631 187.266 7.0071 155.416 20.645C123.567 34.2829 94.8213 54.2506 70.9237 79.3359C64.6999 86.1752 58.6134 93.0146 52.9368 100.333L255.995 303.323L459.053 100.127C453.692 92.7715 447.795 85.8221 441.409 79.3359ZM256.2 255.926L98.8966 98.6228C119.463 77.8369 143.968 61.3608 170.978 50.1575C197.988 38.9544 226.96 33.2493 256.2 33.3759C285.446 33.2148 314.428 38.9042 341.443 50.1093C368.457 61.3145 392.958 77.8091 413.504 98.6228L256.2 255.926Z" fill="#ffffff"/>
</g>
<defs>
<clipPath id="clip0_53_248">
<rect width="512" height="512" fill="white"/>
</clipPath>
</defs>
</svg>
