<svg width="16" height="16" viewBox="0 0 16 16" fill="none" xmlns="http://www.w3.org/2000/svg">
<path d="M6.5 4.25C6.49985 5.29298 6.81035 6.31237 7.39192 7.17816C7.97348 8.04395 8.79975 8.7169 9.76533 9.11118C10.7309 9.50546 11.7921 9.6032 12.8134 9.39194C13.8348 9.18068 14.7701 8.66999 15.5 7.925V8C15.5 12.1423 12.1423 15.5 8 15.5C3.85775 15.5 0.5 12.1423 0.5 8C0.5 3.85775 3.85775 0.5 8 0.5H8.075C7.57553 0.988344 7.17886 1.57172 6.90836 2.21576C6.63786 2.8598 6.49902 3.55146 6.5 4.25ZM2 8C1.99945 9.33873 2.44665 10.6392 3.27042 11.6945C4.09419 12.7497 5.24723 13.4992 6.54606 13.8236C7.84489 14.148 9.21491 14.0287 10.4381 13.4847C11.6614 12.9407 12.6675 12.0033 13.2965 10.8215C12.1771 11.0852 11.0088 11.0586 9.90262 10.744C8.79639 10.4295 7.78888 9.83756 6.97566 9.02434C6.16244 8.21112 5.57048 7.20361 5.25596 6.09738C4.94144 4.99116 4.91477 3.82292 5.1785 2.7035C4.21818 3.2151 3.41509 3.97825 2.85519 4.91123C2.2953 5.84422 1.99968 6.91191 2 8Z" fill="#16161A"/>
</svg>
