<?xml version="1.0" encoding="UTF-8" standalone="no"?>
<svg xmlns:rdf="http://www.w3.org/1999/02/22-rdf-syntax-ns#" style="enable-background:new" xmlns="http://www.w3.org/2000/svg" xmlns:osb="http://www.openswatchbook.org/uri/2009/osb" height="512" width="512" version="1.1" xmlns:cc="http://creativecommons.org/ns#" xmlns:xlink="http://www.w3.org/1999/xlink" viewBox="0 0 511.99999 511.99998" xmlns:dc="http://purl.org/dc/elements/1.1/">
<defs>
<linearGradient id="a" y2="771.51" gradientUnits="userSpaceOnUse" x2="527.72" gradientTransform="translate(-50.017 -515.51)" y1="771.51" x1="84.315">
<stop stop-color="#fff" offset="0"/>
</linearGradient>
</defs>
<g transform="translate(-50.017 -515.51)">
<path d="m256 0-221.7 128v256l221.7 128 221.7-128v-256l-221.7-128zm-22.889 30.838c13.554 10.001 32.045 10.001 45.6 0l160.74 92.807c-0.32193 2.8543-0.32126 5.7336 0 8.5879l-160.74 92.807c-13.554-10.001-32.043-10.001-45.598 0l-160.74-92.81c0.32125-2.8543 0.32126-5.7356 0-8.5898l160.74-92.802zm221.79 127.03c2.3112 1.7054 4.8069 3.146 7.4395 4.2949v185.61c-15.438 6.7378-24.683 22.751-22.799 39.49l-160.74 92.805c-2.3113-1.7054-4.8069-3.144-7.4394-4.293l-0.17969-184.58c15.438-6.7378 24.683-22.749 22.799-39.488l160.92-93.842zm-397.81 1.0332 160.74 92.805c-1.884 16.739 7.3625 32.75 22.801 39.488v185.61c-2.6325 1.1489-5.1282 2.5896-7.4394 4.2949l-160.73-92.8c1.884-16.739-7.3606-32.75-22.799-39.488v-185.61c2.6325-1.1489 5.1262-2.5896 7.4375-4.2949z" transform="translate(50.017 515.51)" fill="url(#a)"/>
</g>
<g transform="translate(0 -196.66)">
<path d="m477.7 128-221.7 128v256l221.7-128v-256zm-22.801 29.865c2.3112 1.7054 4.8069 3.146 7.4395 4.2949v185.61c-15.438 6.7378-24.683 22.751-22.799 39.49l-160.74 92.805c-2.3113-1.7054-4.8069-3.144-7.4394-4.293l-0.17969-184.58c15.438-6.7378 24.683-22.749 22.799-39.488l160.92-93.842z" fill-opacity=".25098" transform="translate(0 196.66)"/>
<path d="m34.297 128v256l221.7 128v-256l-221.7-128zm22.799 30.898 160.74 92.805c-1.884 16.739 7.3625 32.75 22.801 39.488v185.61c-2.6325 1.1489-5.1282 2.5896-7.4394 4.2949l-160.74-92.8c1.884-16.739-7.3606-32.75-22.799-39.488v-185.61c2.6325-1.1489 5.1262-2.5896 7.4375-4.2949z" fill-opacity=".039216" transform="translate(0 196.66)"/>
<path d="m256 0-221.7 128 221.7 128l221.7-128-221.7-128zm-22.889 30.838c13.554 10.001 32.045 10.001 45.6 0l160.74 92.807c-0.32193 2.8543-0.32126 5.7336 0 8.5879l-160.74 92.807c-13.554-10.001-32.043-10.001-45.598 0l-160.74-92.81c0.32125-2.8543 0.32126-5.7356 0-8.5898l160.74-92.802z" fill-opacity=".13018" transform="translate(0 196.66)"/>
</g>
</svg>
