<?xml version="1.0" encoding="utf-8"?>
<!-- Generator: Adobe Illustrator 26.0.3, SVG Export Plug-In . SVG Version: 6.00 Build 0)  -->
<svg version="1.1" id="Livello_1" xmlns="http://www.w3.org/2000/svg" xmlns:xlink="http://www.w3.org/1999/xlink" x="0px" y="0px"
	 viewBox="0 0 900 900" style="enable-background:new 0 0 900 900;" xml:space="preserve">
<style type="text/css">
	.st0{fill:#00FFC2;stroke:#000000;stroke-width:2;stroke-miterlimit:10;}
	.st1{fill:#F99BC1;stroke:#000000;stroke-width:2;stroke-miterlimit:10;}
	.st2{clip-path:url(#SVGID_00000009555209866637583170000008522055596112689040_);}
	.st3{fill:#FFFFFF;stroke:#000000;stroke-width:2;stroke-miterlimit:10;}
	.st4{fill:#FDA8C5;}
</style>
<path class="st0" d="M450,664.7c-1.8,0-3.5-0.5-5-1.3L259.8,555.8c-4.7-3-6-9.1-3.1-13.8c2.8-4.4,8.5-5.9,13.1-3.5L455,646
	c4.8,2.8,6.4,8.9,3.6,13.7C456.8,662.7,453.6,664.6,450,664.7L450,664.7z"/>
<path class="st0" d="M635.2,557.2c-3.5,0-6.7-1.8-8.5-4.8L441.5,250.6c-2.9-4.7-1.4-10.9,3.3-13.8c4.7-2.9,10.9-1.4,13.8,3.3
	l185.2,301.8c2.9,4.7,1.4,10.9-3.3,13.8C638.9,556.6,637,557.2,635.2,557.2L635.2,557.2z"/>
<path class="st1" d="M450,664.7c-5.5,0-10-4.4-10-10c0-3.6,1.9-6.9,5-8.7l185.2-107.5c4.7-3,10.8-1.6,13.8,3.1s1.6,10.8-3.1,13.8
	c-0.2,0.2-0.5,0.3-0.7,0.4L455,663.3C453.5,664.2,451.8,664.7,450,664.7z"/>
<g>
	<defs>
		<path id="SVGID_1_" d="M643.2,553.1c0.1-0.1,0.2-0.3,0.3-0.4s0.2-0.3,0.3-0.4l0.2-0.4c0.1-0.1,0.2-0.3,0.2-0.4s0.1-0.3,0.2-0.4
			s0.1-0.3,0.2-0.5s0.1-0.3,0.2-0.5s0.1-0.3,0.1-0.5s0.1-0.3,0.1-0.5s0.1-0.3,0.1-0.5s0-0.3,0.1-0.5s0-0.3,0-0.5s0-0.3,0-0.5
			s0-0.3,0-0.5s0-0.3,0-0.5c0-0.2,0-0.3,0-0.5c0-0.2,0-0.3-0.1-0.5s-0.1-0.3-0.1-0.5s-0.1-0.3-0.1-0.5s-0.1-0.3-0.2-0.5
			s-0.1-0.3-0.2-0.5s-0.1-0.3-0.2-0.5l-0.2-0.4c-0.1-0.1-0.1-0.2-0.2-0.4l-0.1-0.1v-0.1L458.5,240.1c0-0.1-0.1-0.1-0.1-0.2l-0.4-0.5
			c-0.1-0.1-0.2-0.2-0.2-0.3c-0.1-0.1-0.2-0.3-0.4-0.4l-0.3-0.4l-0.3-0.3l-0.4-0.4l-0.3-0.2c-0.2-0.1-0.4-0.3-0.6-0.4l-0.2-0.1
			l-0.1-0.1l-0.6-0.3l-0.3-0.2c-0.2-0.1-0.3-0.1-0.5-0.2l-0.4-0.2c-0.1,0-0.3-0.1-0.4-0.1c-0.2-0.1-0.4-0.1-0.5-0.2l-0.3-0.1
			l-0.6-0.1H451h-0.5c-0.2,0-0.4,0-0.6,0h-0.4c-0.2,0-0.5,0-0.8,0.1h-0.2c-0.3,0-0.5,0.1-0.8,0.1h-0.2l-0.7,0.2l-0.3,0.1
			c-0.2,0.1-0.4,0.1-0.5,0.2l-0.4,0.2l-0.4,0.2l-0.5,0.3l-0.1,0.1c-0.1,0-0.2,0.1-0.2,0.1c-0.2,0.1-0.4,0.2-0.5,0.4l-0.3,0.3
			c-0.1,0.1-0.3,0.2-0.4,0.4s-0.2,0.2-0.4,0.3s-0.2,0.2-0.3,0.3c-0.1,0.1-0.3,0.3-0.4,0.4c-0.1,0.1-0.2,0.2-0.2,0.3
			c-0.1,0.2-0.2,0.4-0.4,0.5s-0.1,0.1-0.1,0.2L256.3,541.9v0.1l-0.1,0.1c-0.1,0.1-0.1,0.2-0.2,0.3s-0.2,0.3-0.2,0.5
			s-0.1,0.3-0.2,0.5c-0.1,0.3-0.2,0.6-0.3,0.9c0,0.2-0.1,0.3-0.1,0.5s-0.1,0.3-0.1,0.5s-0.1,0.3-0.1,0.5c0,0.2,0,0.3,0,0.5
			c0,0.2,0,0.3,0,0.5s0,0.3,0,0.5s0,0.3,0,0.5s0,0.3,0,0.5s0,0.3,0.1,0.5s0,0.3,0.1,0.5s0.1,0.3,0.1,0.5s0.1,0.3,0.1,0.4
			c0,0.2,0.1,0.3,0.1,0.5c0,0.1,0.1,0.3,0.2,0.4s0.1,0.3,0.2,0.5l0.2,0.4c0.1,0.2,0.2,0.3,0.2,0.5c0.1,0.1,0.2,0.3,0.2,0.4
			c0.1,0.1,0.2,0.3,0.3,0.4l0.3,0.4c0.1,0.1,0.2,0.3,0.3,0.4s0.2,0.2,0.4,0.4s0.2,0.2,0.4,0.3s0.3,0.2,0.4,0.3l0.4,0.3l0.4,0.3
			c0.1,0.1,0.2,0.1,0.3,0.2l0.1,0c0,0,0.1,0,0.1,0.1L445,663.3l0,0c0.3,0.2,0.5,0.3,0.8,0.4l0.4,0.2l0.5,0.2
			c1.1,0.4,2.2,0.6,3.3,0.6l0,0c1.1,0,2.2-0.2,3.3-0.6l0.5-0.2l0.4-0.2c0.3-0.1,0.5-0.2,0.8-0.4l0,0l185.3-107.5l0.1-0.1l0.1,0
			l0.3-0.2c0.2-0.1,0.3-0.2,0.4-0.3l0.4-0.3c0.1-0.1,0.3-0.2,0.4-0.3l0.3-0.3c0.1-0.1,0.2-0.2,0.3-0.4s0.2-0.2,0.3-0.4
			S643.2,553.2,643.2,553.1z"/>
	</defs>
	<clipPath id="SVGID_00000048486943902073556140000009864237954560499598_">
		<use xlink:href="#SVGID_1_"  style="overflow:visible;"/>
	</clipPath>
	<g style="clip-path:url(#SVGID_00000048486943902073556140000009864237954560499598_);">
		<path class="st0" d="M542.5,720.2c-1.5,0-3-0.3-4.4-1c-39.8-19.7-58.1-38.2-61.4-62.1c-3-22,8-45.3,21.9-74.7
			c6.8-14.3,14.4-30.5,21.6-48.9c5.8-14.9,10.9-34.6,1.8-43.5c-14.7-14.4-64.3-6.6-129.6,20.4c-27.8,11.5-49.8,11.8-65.4,1
			c-22.1-15.2-21.4-46.2-21.4-47.5c0.2-5.4,4.6-9.7,10-9.7h0.3c5.5,0.2,9.8,4.8,9.7,10.3c0,0.5-0.2,21.6,12.8,30.5
			c12.1,8.3,31.9,2.9,46.4-3.1c53.9-22.3,123.9-43.1,151.3-16.2c13.6,13.3,14.5,35.2,2.8,65.1c-7.4,19-15.3,35.5-22.2,50.1
			c-12.5,26.4-22.4,47.3-20.2,63.4c1.5,10.9,8.6,26.2,50.5,46.9c5,2.4,7,8.4,4.6,13.4C549.9,718.1,546.4,720.3,542.5,720.2
			L542.5,720.2z"/>
		<path class="st3" d="M520,750.8c-1.6,0-3.2-0.4-4.6-1.2c-39.4-20.6-50-43.4-52.5-50.5c-12.2-18.6-12-40.4,0.7-65
			c10.6-20.4,28.1-40.3,45.1-59.6c25.5-29,49.5-56.3,37.5-71.6c-7.7-9.8-16.2-13.4-28.2-11.9c-12.6,1.6-27.4,8.3-44.6,16.1
			c-26,11.8-55.5,25.2-90,26.6c-24,0.9-41.9-6-53.2-20.6c-22.5-29-8.4-77.2-7.8-79.2c1.6-5.3,7.2-8.3,12.5-6.7
			c5.3,1.6,8.3,7.2,6.7,12.5l0,0c-2.1,7.8-3.4,15.8-3.9,23.8c-0.7,11.3,0.2,27,8.4,37.5c7.1,9.2,19.4,13.5,36.6,12.9
			c30.5-1.2,58.1-13.7,82.4-24.8c17.9-8.1,34.8-15.8,50.4-17.8c19.1-2.4,34.3,4,46.4,19.4c10.4,13.2,10.1,29.8-0.9,49.3
			c-8.5,15.2-22.5,31.1-37.3,47.9c-37.2,42.4-62.1,74.5-43.4,101.3c0.7,1,1.2,2,1.5,3.2c0.5,1.4,7.5,21.1,43,39.7
			c4.9,2.5,6.8,8.6,4.3,13.5C527.3,748.7,523.8,750.8,520,750.8z"/>
		<path class="st3" d="M492,789.8c-1.5,0-3-0.3-4.4-1c-36.4-17.7-45.9-49-47.2-54.1c-15.3-44.3,23.6-77.4,61.2-109.4
			c31.2-26.5,63.4-54,69.6-88.3c1.4-7.5,1.9-17.5-3-22.5c-8.9-8.9-34.8-2.9-46.2,1.5c-32.2,14.7-65.6,29.9-95.1,37.5
			c-34.1,8.8-60.1,6.8-81.9-6.1c-21.4-12.7-28.3-41.2-20.5-84.7c3.7-19.7,9.1-38.9,16.3-57.6c2.1-5.1,7.9-7.6,13-5.6s7.6,7.9,5.6,13
			l0,0c-6.7,17.5-11.8,35.5-15.2,53.9c-4.2,23.6-5.7,53.8,11.1,63.8c37.9,22.6,93.9-3,158.7-32.5c0.2-0.1,0.3-0.1,0.5-0.2
			c4.8-1.9,47.3-17.7,67.9,2.9c8.9,8.9,11.8,22.4,8.6,40.2c-7.5,41.3-44,72.5-76.3,99.9c-35.5,30.2-66.2,56.4-55.1,88
			c0.1,0.4,0.2,0.7,0.3,1.1c0.2,1,6.7,26.7,36.6,41.2c5,2.4,7,8.4,4.6,13.4C499.3,787.6,495.8,789.8,492,789.8L492,789.8z"/>
		<path class="st1" d="M471,818.8c-1.7,0-3.4-0.5-5-1.3c-37.1-21.2-45.9-62.6-46.8-67.6c-5.4-21.7,1.6-41.1,21.3-59.2
			c16-14.7,38.9-27,61.1-39c23-12.4,46.7-25.2,62.2-40.2c16-15.5,20.8-30.6,15.5-49c-2-6.9-7.5-14.8-32.4-14.2
			c-20.6,0.5-47,6.5-75,12.9c-46.4,10.6-94.4,21.6-123.4,7.6c-10.6-5.1-18.2-14-22.5-26.3c-8.4-24.1-3.9-62.2,13.3-113.1
			c7.9-23.2,17.1-45.9,27.5-68c2.4-5,8.4-7,13.4-4.6c5,2.4,7,8.4,4.6,13.4l0,0c-15.8,32.5-53.9,125.5-39.9,165.8
			c2.5,7.2,6.5,12.1,12.3,14.9c22.7,10.9,69.2,0.3,110.2-9.1c29-6.6,56.3-12.9,79-13.4c28.9-0.7,46.4,9,52.1,28.7
			c7.3,25.3,0.3,48.5-20.9,68.9c-17.4,16.9-42.4,30.3-66.6,43.4c-22.1,11.9-43,23.2-57.1,36.2s-19,25.4-15.3,39.8
			c0.1,0.3,0.1,0.5,0.2,0.8s6.8,36.7,37.1,54c4.8,2.7,6.5,8.8,3.7,13.6C477.9,816.9,474.6,818.8,471,818.8L471,818.8z"/>
		<path class="st0" d="M466.9,364.5V231.8c0-2.3-1.8-4.1-4.1-4.1c0,0,0,0,0,0H431c-2.3,0-4.1,1.9-4.1,4.1v0v132.7
			c0,2.3-1.8,4.1-4.1,4.1H414c-2.3,0-4.1,1.9-4.1,4.1v0v64.7c0,2.3,1.9,4.1,4.1,4.1h7.7c2.3,0,4.1-1.9,4.1-4.1v-11.7
			c0-2.3,1.9-4.1,4.1-4.1h0h4.7c2.3,0,4.1,1.8,4.1,4.1c0,0,0,0,0,0v11.7c0,2.3,1.9,4.1,4.1,4.1h7.7c2.3,0,4.1-1.9,4.1-4.1v-11.7
			c0-2.3,1.9-4.1,4.1-4.1h0h4.7c2.3,0,4.1,1.8,4.1,4.1c0,0,0,0,0,0v11.7c0,2.3,1.9,4.1,4.1,4.1h7.7c2.3,0,4.1-1.9,4.1-4.1v-64.7
			c0-2.3-1.8-4.1-4.1-4.1c0,0,0,0,0,0H471C468.7,368.6,466.9,366.8,466.9,364.5z"/>
		<path class="st3" d="M472.9,364.5V231.8c0-2.3-1.8-4.1-4.1-4.1c0,0,0,0,0,0H437c-2.3,0-4.1,1.9-4.1,4.1v0v132.7
			c0,2.3-1.8,4.1-4.1,4.1H420c-2.3,0-4.1,1.9-4.1,4.1v0v64.7c0,2.3,1.9,4.1,4.1,4.1h7.7c2.3,0,4.1-1.9,4.1-4.1v-11.7
			c0-2.3,1.9-4.1,4.1-4.1h0h4.7c2.3,0,4.1,1.8,4.1,4.1c0,0,0,0,0,0v11.7c0,2.3,1.9,4.1,4.1,4.1h7.7c2.3,0,4.1-1.9,4.1-4.1v-11.7
			c0-2.3,1.9-4.1,4.1-4.1h0h4.7c2.3,0,4.1,1.8,4.1,4.1c0,0,0,0,0,0v11.7c0,2.3,1.9,4.1,4.1,4.1h7.7c2.3,0,4.1-1.9,4.1-4.1v-64.7
			c0-2.3-1.8-4.1-4.1-4.1c0,0,0,0,0,0H477C474.7,368.6,472.9,366.8,472.9,364.5z"/>
		<path class="st0" d="M635.2,557.2c-3.5,0-6.7-1.8-8.5-4.8L441.5,250.6c-2.9-4.7-1.4-10.9,3.3-13.8c4.7-2.9,10.9-1.4,13.8,3.3
			l185.2,301.8c2.9,4.7,1.4,10.9-3.3,13.8C638.9,556.6,637,557.2,635.2,557.2L635.2,557.2z"/>
	</g>
</g>
<path class="st1" d="M264.8,557.2c-5.5,0-10-4.5-10-10c0-1.8,0.5-3.7,1.5-5.2l185.2-301.8c2.9-4.7,9-6.2,13.8-3.3
	c4.7,2.9,6.2,9,3.3,13.8L273.3,552.4C271.5,555.4,268.3,557.2,264.8,557.2z"/>
<path class="st4" d="M234.5,540c0.9,0.3,1.9,0.3,2.9,0.1c1.5-0.4,2.6-1.7,3.3-3.8c0.3-0.9,0.4-1.8,0.4-2.7c0.1-1.4-0.8-2.8-2.2-3.2
	c-0.8-0.4-1.8-0.3-2.5,0.2c-0.9,0.8-1.6,1.6-2.1,2.6l-1.4,2.3c-0.6,1.2-1.4,2.2-2.4,3.1c-1.2,0.9-2.8,1.1-4.2,0.6
	c-1.6-0.5-2.9-1.6-3.7-3.1c-0.7-1.8-0.7-3.7,0-5.5c0.5-1.8,1.6-3.4,3.1-4.5c1.6-1.1,3.6-1.3,5.3-0.5l-0.8,2.4
	c-0.9-0.2-1.8-0.2-2.6,0c-1.2,0.4-2.2,1.6-2.8,3.4c-0.5,1.1-0.5,2.4-0.1,3.5c0.4,0.8,1.1,1.4,1.9,1.7c0.8,0.3,1.8,0.1,2.4-0.5
	c0.8-0.9,1.5-1.9,2.1-3l1.5-2.4c0.5-1,1.3-1.8,2.2-2.5c1.3-0.9,3-1.1,4.5-0.5c1.9,0.4,3.3,1.9,3.8,3.7c0.4,1.9,0.3,3.9-0.3,5.7
	c-0.5,2-1.8,3.8-3.6,4.9c-1.7,0.9-3.7,1-5.6,0.3L234.5,540z"/>
<path class="st4" d="M230.8,514.3l4.7-7.7c0.8-1.4,2-2.4,3.6-2.9c1.5-0.4,3.2-0.1,4.5,0.8c1.3,0.8,2.3,2,2.7,3.4
	c0.5,1.6,0.1,3.4-0.9,4.7l-3.3,5.4l7.3,4.5l-1.4,2.3L230.8,514.3z M238.7,506.7c-0.7,0.5-1.2,1.1-1.6,1.9l-2.8,4.6l6,3.7l2.8-4.6
	c0.6-0.9,0.9-1.9,0.9-2.9c-0.1-1.1-0.8-2-1.8-2.4C241.2,506.1,239.8,506.1,238.7,506.7L238.7,506.7z"/>
<path class="st4" d="M243.9,492.9l1.6-2.6l21,4.3l-1.5,2.6l-6.2-1.4l-4.2,6.8l4,5l-1.5,2.4L243.9,492.9z M256.4,495.3l-9.2-2
	l5.9,7.4L256.4,495.3z"/>
<path class="st4" d="M259.6,468.4c2-1.1,4.5-1.2,6.6-0.2l-1.4,2.3c-1.2-0.5-2.6-0.5-3.8,0c-1.2,0.6-2.2,1.6-2.9,2.7
	c-0.9,1.5-1.2,3.3-0.6,5c0.5,1.8,2,3.4,4.4,4.9c1.7,1.2,3.7,1.8,5.8,1.7c1.8-0.1,3.3-1.1,4.6-3.1c0.9-1.3,1.3-3,1-4.6
	c-0.3-1.5-1.4-3-3.4-4.2l-3.3,5.4l-1.9-1.2l4.6-7.5l9.2,5.6l-0.9,1.5l-2.5-0.8c0.3,1,0.5,2.1,0.5,3.2c-0.1,1.6-0.6,3.1-1.5,4.4
	c-1.1,2-3,3.4-5.1,4c-2.6,0.6-5.4,0-8.2-1.8c-2.6-1.4-4.5-3.7-5.4-6.5c-0.7-2.4-0.3-5.1,1.1-7.2C257,470.5,258.2,469.3,259.6,468.4z
	"/>
<path class="st4" d="M265.1,458.5l1.4-2.4l7.1,4.4l5.4-8.8l-7.1-4.4l1.4-2.4l17.2,10.5l-1.4,2.4l-8-4.9l-5.4,8.8l8,4.9l-1.4,2.3
	L265.1,458.5z"/>
<path class="st4" d="M277.3,438.6l7.6-12.5l2.1,1.3l-6.2,10.2l5.2,3.2l5.8-9.4l2,1.2L288,442l5.8,3.6l6.4-10.4l2,1.2l-7.8,12.6
	L277.3,438.6z"/>
<path class="st4" d="M296.1,408l2,1.3l-3.6,5.7l15.1,9.3l-1.5,2.4l-15.1-9.3l-3.5,5.8l-2-1.3L296.1,408z"/>
<path class="st4" d="M306.5,390.9l2,1.2L305,398l15.1,9.3l-1.5,2.4l-15.1-9.3l-3.6,5.8l-2-1.2L306.5,390.9z"/>
<path class="st4" d="M314.7,377.5l7.6-12.5l2.1,1.3l-6.3,10.2l5.2,3.2l5.8-9.4l2,1.2l-5.8,9.4l5.8,3.6l6.4-10.4l2,1.2l-7.8,12.6
	L314.7,377.5z"/>
<path class="st4" d="M333.5,346.9l2,1.2l-3.5,5.8l15.1,9.3l-1.4,2.4l-15.1-9.3l-3.6,5.8l-2-1.2L333.5,346.9z"/>
<path class="st4" d="M336.4,342.3l1.4-2.4l7.1,4.4l5.4-8.8l-7.1-4.4l1.4-2.4l17.2,10.5l-1.4,2.4l-8-4.9l-5.4,8.8l8,4.9l-1.4,2.4
	L336.4,342.3z"/>
<path class="st4" d="M372.1,310.2c0.8,0.5,1.8,0.8,2.8,0.8c1.6,0,3-1,4.1-2.9c0.5-0.8,0.8-1.6,1-2.5c0.4-1.4-0.1-2.9-1.4-3.6
	c-0.7-0.5-1.7-0.7-2.5-0.4c-1,0.5-1.9,1.2-2.7,2.1l-1.9,1.9c-0.9,1-1.9,1.8-3.1,2.4c-1.4,0.6-3,0.5-4.2-0.4
	c-1.5-0.8-2.5-2.2-2.9-3.9c-0.3-1.9,0.1-3.8,1.2-5.3c0.9-1.6,2.3-2.9,4-3.7c1.8-0.7,3.8-0.4,5.3,0.7l-1.4,2.2
	c-0.8-0.4-1.7-0.6-2.5-0.6c-1.3,0.1-2.5,1-3.5,2.6c-0.7,1-1,2.2-0.9,3.4c0.2,0.9,0.7,1.6,1.5,2.1c0.7,0.5,1.7,0.6,2.5,0.1
	c1-0.7,2-1.5,2.8-2.5l2-2c0.8-0.8,1.7-1.5,2.7-1.9c1.5-0.6,3.2-0.4,4.5,0.6c1.7,0.9,2.8,2.6,2.8,4.5c0,1.9-0.6,3.8-1.7,5.5
	c-1,1.8-2.7,3.2-4.6,3.9c-1.9,0.5-3.9,0.1-5.5-1L372.1,310.2z"/>
<path class="st4" d="M370.9,286l4.7-7.7c0.8-1.4,2-2.4,3.5-2.9c1.5-0.4,3.2-0.1,4.5,0.8c1.3,0.8,2.3,2,2.7,3.4
	c0.5,1.6,0.1,3.4-0.9,4.7l-3.3,5.4l7.3,4.5l-1.4,2.3L370.9,286z M378.8,278.4c-0.7,0.5-1.2,1.1-1.7,1.9l-2.8,4.6l6,3.6l2.8-4.6
	c0.6-0.9,0.9-1.9,0.8-3c-0.1-1.1-0.8-2-1.8-2.4C381.3,277.8,379.9,277.7,378.8,278.4L378.8,278.4z"/>
<path class="st4" d="M384,264.6l1.6-2.6l21,4.3l-1.6,2.5l-6.2-1.4l-4.2,6.8l4,5l-1.5,2.4L384,264.6z M396.5,267l-9.2-2l5.9,7.4
	L396.5,267z"/>
<path class="st4" d="M399.8,240.1c2-1.1,4.5-1.2,6.6-0.2l-1.4,2.3c-1.2-0.5-2.6-0.5-3.8,0c-1.2,0.6-2.2,1.6-2.9,2.7
	c-0.9,1.5-1.2,3.3-0.6,5c0.5,1.8,2,3.4,4.4,4.9c1.7,1.2,3.7,1.8,5.8,1.7c1.8-0.1,3.3-1.1,4.6-3.1c0.9-1.4,1.3-3,1-4.6
	c-0.3-1.6-1.4-3-3.4-4.2l-3.3,5.4l-1.9-1.2l4.6-7.6l9.2,5.6l-0.9,1.5l-2.5-0.8c0.3,1,0.5,2.1,0.5,3.2c-0.1,1.6-0.6,3.1-1.5,4.4
	c-1.1,2-3,3.4-5.1,4c-2.9,0.5-5.8-0.1-8.2-1.8c-2.6-1.4-4.5-3.7-5.5-6.5c-0.7-2.4-0.4-5,1-7.2C397.2,242.2,398.3,241,399.8,240.1z"
	/>
<path class="st4" d="M405.8,228.4l1.7-2.2l6.5,5.2l6.4-8.1l-6.5-5.2l1.7-2.2l15.8,12.5l-1.7,2.2l-7.4-5.9l-6.4,8.1l7.4,5.9l-1.7,2.2
	L405.8,228.4z"/>
<path class="st4" d="M427.2,206.7l13.6-5.4l0.9,2.3l-11.1,4.3l2.2,5.7l10.3-4.1l0.9,2.2l-10.3,4l2.5,6.4l11.3-4.4l0.9,2.2l-13.8,5.4
	L427.2,206.7z"/>
<path class="st4" d="M470.8,205.4l-0.7,2.3l-6.5-2l-5.1,17l-2.6-0.8l5.1-17l-6.5-2l0.7-2.3L470.8,205.4z"/>
<path class="st4" d="M491,223.5l-1.8,1.6l-4.6-5l-13,12.1l-1.9-2l13-12.1l-4.6-5l1.8-1.6L491,223.5z"/>
<path class="st4" d="M500.6,239.6l7.6,12.4l-2.1,1.3l-6.3-10.2l-5.2,3.2l5.8,9.4l-2,1.2l-5.8-9.4l-5.8,3.6l6.4,10.4l-2,1.3
	l-7.8-12.6L500.6,239.6z"/>
<path class="st4" d="M519.4,270.2l-2,1.2l-3.5-5.8l-15.1,9.3l-1.4-2.4l15.1-9.3l-3.5-5.8l2-1.2L519.4,270.2z"/>
<path class="st4" d="M522.2,274.8l1.4,2.4l-7.1,4.4l5.4,8.8l7.1-4.4l1.4,2.4l-17.2,10.5l-1.4-2.4l8-4.9l-5.4-8.8l-8,4.9l-1.4-2.4
	L522.2,274.8z"/>
<path class="st4" d="M534.7,321.2c-0.8,0.5-1.5,1.3-2,2.1c-0.7,1.4-0.4,3.1,0.7,5c0.5,0.8,1.1,1.5,1.8,2.1c1,1,2.6,1.2,3.8,0.4
	c0.8-0.4,1.4-1.2,1.5-2.1c0-1.1-0.2-2.3-0.6-3.3l-0.9-2.6c-0.5-1.2-0.7-2.5-0.8-3.8c0.1-1.5,0.9-2.9,2.2-3.6
	c1.4-0.9,3.1-1.2,4.8-0.8c1.8,0.6,3.3,1.8,4.2,3.5c1,1.6,1.5,3.4,1.4,5.3c-0.2,1.9-1.3,3.5-3,4.4l-1.3-2.2c0.7-0.5,1.3-1.2,1.7-2
	c0.5-1.2,0.2-2.7-0.8-4.3c-0.5-1.1-1.5-1.9-2.6-2.3c-0.9-0.2-1.8-0.1-2.5,0.4c-0.8,0.4-1.3,1.3-1.2,2.1c0.2,1.2,0.5,2.4,0.9,3.6
	l0.9,2.7c0.4,1,0.6,2.2,0.5,3.3c-0.2,1.6-1.1,3-2.5,3.7c-1.5,1.1-3.6,1.3-5.3,0.5c-1.7-0.9-3.1-2.3-4.1-4c-1.2-1.7-1.7-3.8-1.4-5.9
	c0.4-1.9,1.6-3.5,3.3-4.4L534.7,321.2z"/>
<path class="st4" d="M556.8,331.1l4.7,7.7c0.9,1.3,1.3,2.9,1,4.5c-0.4,1.6-1.4,2.9-2.8,3.6c-1.3,0.8-2.8,1.1-4.3,0.9
	c-1.7-0.3-3.1-1.4-3.8-2.9l-3.3-5.4l-7.3,4.5l-1.4-2.3L556.8,331.1z M560,341.6c-0.1-0.8-0.5-1.6-0.9-2.3l-2.8-4.6l-6,3.6l2.8,4.6
	c0.5,0.9,1.3,1.7,2.2,2.1c1,0.3,2.1,0.2,3-0.5C559.4,344.1,560.1,342.9,560,341.6z"/>
<path class="st4" d="M569.9,352.5l1.6,2.6l-13.4,16.8l-1.6-2.5l4.1-4.9l-4.2-6.8l-6.3,1.3l-1.5-2.4L569.9,352.5z M562.1,362.5l6-7.3
	l-9.3,1.9L562.1,362.5z"/>
<path class="st4" d="M584.7,377.6c0.1,2.3-1,4.6-2.8,6l-1.4-2.3c1-0.9,1.6-2.1,1.7-3.4c0-1.3-0.4-2.7-1.1-3.8
	c-0.9-1.5-2.4-2.6-4.2-2.8c-1.8-0.3-4,0.2-6.3,1.7c-1.8,1-3.3,2.5-4.2,4.4c-0.8,1.7-0.5,3.5,0.7,5.5c0.8,1.4,2.1,2.5,3.7,3
	c1.5,0.5,3.3,0.1,5.3-1.1l-3.3-5.4l1.9-1.2l4.6,7.5l-9.2,5.6l-0.9-1.5l1.9-1.9c-1.1-0.2-2.1-0.5-3.1-1c-1.3-0.8-2.4-1.9-3.2-3.3
	c-1.2-1.9-1.6-4.2-1.2-6.4c0.9-2.8,2.8-5.1,5.4-6.5c2.4-1.7,5.4-2.3,8.3-1.9c2.5,0.4,4.7,2,5.9,4.2C584,374.3,584.5,376,584.7,377.6
	z"/>
<path class="st4" d="M591.1,387l1.4,2.4l-7.1,4.4l5.4,8.8l7.1-4.4l1.4,2.4l-17.2,10.5l-1.4-2.4l8-4.9l-5.4-8.8l-8,4.9l-1.4-2.4
	L591.1,387z"/>
<path class="st4" d="M603.3,406.8l7.7,12.5l-2.1,1.3l-6.2-10.2l-5.2,3.2l5.8,9.4l-2,1.2l-5.8-9.4l-5.8,3.6l6.4,10.4l-2,1.3
	l-7.8-12.6L603.3,406.8z"/>
<path class="st4" d="M622.1,437.5l-2,1.3l-3.6-5.8l-15.1,9.3l-1.4-2.4l15.1-9.3l-3.5-5.8l2-1.3L622.1,437.5z"/>
<path class="st4" d="M632.5,454.5l-2,1.3l-3.6-5.8l-15.1,9.3l-1.4-2.4l15.1-9.3l-3.5-5.8l2-1.3L632.5,454.5z"/>
<path class="st4" d="M640.7,467.9l7.7,12.5l-2.1,1.3l-6.3-10.2l-5.2,3.2l5.8,9.4l-2,1.2l-5.8-9.4l-5.8,3.6l6.4,10.4l-2,1.2
	l-7.8-12.6L640.7,467.9z"/>
<path class="st4" d="M659.5,498.5l-2,1.3l-3.6-5.8l-15.1,9.3l-1.4-2.3l15.1-9.3l-3.5-5.8l2-1.3L659.5,498.5z"/>
<path class="st4" d="M662.5,503.2l1.4,2.4l-7.1,4.3l5.3,8.9l7.1-4.3l1.4,2.4l-17.2,10.4l-1.4-2.4l8-4.9l-5.3-8.9l-8,4.9l-1.4-2.4
	L662.5,503.2z"/>
<path class="st4" d="M665.7,553c-0.9-0.3-1.9-0.4-2.9-0.3c-1.6,0.3-2.7,1.5-3.5,3.6c-0.3,0.9-0.5,1.8-0.5,2.7
	c-0.2,1.4,0.7,2.8,2,3.3c0.8,0.4,1.8,0.4,2.5-0.1c0.9-0.7,1.6-1.6,2.2-2.5l1.5-2.2c0.7-1.1,1.5-2.1,2.5-3c1.2-0.9,2.8-1,4.2-0.4
	c1.6,0.5,2.9,1.7,3.5,3.3c0.7,1.8,0.6,3.7-0.2,5.5c-0.6,1.8-1.8,3.3-3.3,4.3c-1.6,1-3.6,1.1-5.3,0.3l0.9-2.4
	c0.9,0.3,1.8,0.3,2.6,0.1c1.3-0.4,2.2-1.5,2.9-3.2c0.5-1.1,0.6-2.3,0.2-3.5c-0.3-0.8-1-1.5-1.8-1.8c-0.8-0.4-1.8-0.2-2.5,0.3
	c-0.9,0.9-1.6,1.9-2.3,2.9l-1.6,2.4c-0.6,1-1.4,1.8-2.3,2.4c-1.4,0.8-3,0.9-4.5,0.3c-1.8-0.5-3.2-2-3.6-3.9
	c-0.3-1.9-0.1-3.9,0.6-5.7c0.6-2,2-3.7,3.8-4.7c1.7-0.9,3.8-0.9,5.5-0.1L665.7,553z"/>
<path class="st4" d="M664.7,581.2l-7,5.6c-1.2,1-2.7,1.6-4.3,1.5c-1.6-0.2-3-1-3.9-2.3c-1-1.2-1.5-2.6-1.4-4.1
	c0.1-1.7,1-3.2,2.4-4.2l4.9-3.9l-5.3-6.7l2.1-1.7L664.7,581.2z M654.7,585.7c0.8-0.2,1.6-0.7,2.2-1.2l4.2-3.4l-4.4-5.5l-4.2,3.4
	c-0.8,0.6-1.5,1.5-1.8,2.5c-0.2,1,0.1,2.1,0.8,2.9C652.2,585.4,653.5,585.9,654.7,585.7L654.7,585.7z"/>
<path class="st4" d="M642.2,596.5l-2.7,1.5L623,584.2l2.6-1.5l4.8,4.2l6.9-4l-1.1-6.3l2.4-1.4L642.2,596.5z M632.3,588.5l7.1,6.2
	l-1.7-9.3L632.3,588.5z"/>
<path class="st4" d="M616.7,610.6c-2.3,0-4.5-1.1-5.9-3l2.3-1.4c0.8,1,2,1.7,3.3,1.8c1.3,0,2.7-0.3,3.8-1c1.5-0.9,2.6-2.4,2.9-4.1
	c0.4-1.8-0.1-4-1.5-6.4c-1-1.8-2.4-3.3-4.3-4.3c-1.7-0.8-3.5-0.6-5.5,0.6c-1.4,0.8-2.5,2.1-3,3.6c-0.5,1.5-0.2,3.3,1,5.3l5.5-3.2
	l1.1,2l-7.7,4.4l-5.4-9.3l1.5-0.9l1.9,1.9c0.2-1,0.5-2.1,1-3c0.8-1.3,2-2.4,3.4-3.1c1.9-1.1,4.2-1.5,6.4-1c2.8,0.9,5.1,2.9,6.4,5.5
	c1.6,2.5,2.2,5.4,1.7,8.3c-0.5,2.5-2.1,4.6-4.3,5.8C620,610.1,618.4,610.5,616.7,610.6z"/>
<path class="st4" d="M607.2,616.8l-2.4,1.4l-4.2-7.2l-9,5.2l4.2,7.2l-2.4,1.4l-10.1-17.4l2.4-1.4l4.7,8.2l9-5.2l-4.7-8.2l2.4-1.4
	L607.2,616.8z"/>
<path class="st4" d="M587.1,628.5l-12.7,7.3l-1.2-2.1l10.3-6l-3.1-5.3l-9.6,5.5l-1.2-2l9.6-5.6l-3.4-5.9l-10.5,6.1l-1.2-2.1
	l12.8-7.5L587.1,628.5z"/>
<path class="st4" d="M556,646.5l-1.2-2.1l5.9-3.4l-8.9-15.3l2.4-1.4l8.9,15.4l5.9-3.4l1.2,2.1L556,646.5z"/>
<path class="st4" d="M538.7,656.5l-1.2-2.1l5.9-3.4l-8.9-15.4l2.4-1.4l8.9,15.3l5.9-3.4l1.2,2.1L538.7,656.5z"/>
<path class="st4" d="M525.1,664.4l-12.7,7.3l-1.2-2.1l10.3-6l-3.1-5.3l-9.6,5.5l-1.2-2l9.6-5.6l-3.4-5.9l-10.5,6.1l-1.2-2.1L515,647
	L525.1,664.4z"/>
<path class="st4" d="M494,682.5l-1.2-2.1l5.9-3.4l-8.9-15.3l2.4-1.4l8.9,15.4l5.9-3.4l1.2,2.1L494,682.5z"/>
<path class="st4" d="M489,685.7l-2.4,1.3l-3.9-7.3l-9.1,4.9l4,7.3l-2.4,1.3l-9.5-17.8l2.4-1.3l4.5,8.3l9.1-4.9l-4.5-8.3l2.4-1.3
	L489,685.7z"/>
<path class="st4" d="M438.9,684c0.3-0.9,0.4-1.9,0.3-2.9c-0.3-1.6-1.5-2.7-3.6-3.5c-0.8-0.3-1.7-0.5-2.6-0.6c-1.4-0.2-2.8,0.6-3.3,2
	c-0.4,0.8-0.4,1.8,0.1,2.5c0.7,0.9,1.6,1.7,2.5,2.3l2.2,1.5c1.1,0.7,2.1,1.6,2.9,2.6c0.9,1.2,1,2.8,0.4,4.2
	c-0.6,1.6-1.8,2.9-3.3,3.5c-1.8,0.6-3.7,0.5-5.5-0.3c-1.8-0.6-3.3-1.8-4.3-3.3c-1-1.6-1.1-3.6-0.2-5.3l2.4,0.9
	c-0.3,0.9-0.3,1.8-0.1,2.6c0.4,1.3,1.4,2.2,3.2,2.9c1.1,0.5,2.3,0.6,3.5,0.3c0.8-0.3,1.5-1,1.8-1.8c0.4-0.8,0.2-1.8-0.3-2.5
	c-0.9-0.9-1.9-1.6-2.9-2.3l-2.3-1.6c-0.9-0.6-1.8-1.4-2.4-2.3c-0.8-1.4-0.9-3.1-0.2-4.5c0.6-1.9,2.1-3.2,4-3.6
	c1.9-0.3,3.9-0.1,5.7,0.7c2,0.6,3.7,2,4.6,3.9c0.8,1.8,0.8,3.8,0,5.6L438.9,684z"/>
<path class="st4" d="M413.9,687.1l-7.8-4.5c-1.4-0.7-2.5-2-3-3.5c-0.4-1.5-0.2-3.2,0.7-4.5c0.7-1.3,1.9-2.3,3.3-2.8
	c1.6-0.5,3.4-0.2,4.8,0.7l5.4,3.2l4.3-7.4l2.4,1.4L413.9,687.1z M406.1,679.4c0.5,0.7,1.1,1.2,1.9,1.6l4.7,2.7l3.5-6l-4.7-2.7
	c-0.9-0.6-1.9-0.9-3-0.8c-1,0.2-1.9,0.8-2.4,1.8C405.4,677,405.4,678.3,406.1,679.4z"/>
<path class="st4" d="M392.2,674.5l-2.7-1.5l3.8-21.1l2.6,1.5l-1.3,6.2l6.9,4l4.9-4.1l2.4,1.4L392.2,674.5z M394.3,662l-1.8,9.2
	l7.3-6.1L394.3,662z"/>
<path class="st4" d="M367.3,659.4c-1.2-2-1.3-4.5-0.4-6.6l2.3,1.4c-0.5,1.2-0.4,2.6,0.1,3.8c0.6,1.2,1.6,2.2,2.8,2.8
	c1.5,0.9,3.3,1.1,5,0.5c1.8-0.6,3.4-2.1,4.8-4.5c1.1-1.7,1.7-3.8,1.6-5.8c-0.1-1.8-1.2-3.3-3.2-4.5c-1.4-0.9-3-1.2-4.6-0.8
	c-1.5,0.3-2.9,1.5-4.1,3.5l5.5,3.2l-1.1,2l-7.7-4.5l5.4-9.3l1.5,0.9l-0.7,2.6c1-0.4,2.1-0.6,3.1-0.6c1.6,0.1,3.1,0.5,4.4,1.4
	c2,1.1,3.4,2.9,4.1,5c0.6,2.9,0,5.9-1.6,8.3c-1.3,2.6-3.6,4.6-6.4,5.6c-2.4,0.8-5,0.5-7.2-0.9C369.4,661.9,368.2,660.8,367.3,659.4z
	"/>
<path class="st4" d="M357.2,654.2l-2.4-1.4l4.2-7.2l-9-5.2l-4.2,7.2l-2.4-1.4l10.1-17.4l2.4,1.4l-4.7,8.2l9,5.2l4.7-8.2l2.4,1.4
	L357.2,654.2z"/>
<path class="st4" d="M337.1,642.5l-12.6-7.3l1.2-2.1l10.3,6l3.1-5.3l-9.6-5.5l1.2-2l9.6,5.6l3.4-5.9l-10.5-6.1l1.2-2.1l12.8,7.5
	L337.1,642.5z"/>
<path class="st4" d="M306,624.4l1.2-2.1l5.9,3.4l8.9-15.3l2.4,1.4l-8.9,15.4l5.9,3.4l-1.2,2.1L306,624.4z"/>
<path class="st4" d="M288.7,614.4l1.2-2.1l5.9,3.4l8.9-15.3l2.4,1.4l-8.9,15.4l5.9,3.4l-1.2,2.1L288.7,614.4z"/>
<path class="st4" d="M275.1,606.5l-12.6-7.3l1.2-2.1l10.4,6l3.1-5.3l-9.6-5.5l1.2-2l9.6,5.6l3.4-5.9l-10.5-6.1l1.2-2.1l12.8,7.5
	L275.1,606.5z"/>
<path class="st4" d="M243.8,588l1.3-2l5.8,3.6l9.4-15.1l2.3,1.5l-9.4,15l5.8,3.6l-1.3,2L243.8,588z"/>
<path class="st4" d="M235.4,581.7l-1.7-2.2l6.6-5.1l-6.3-8.2l-6.6,5.1l-1.7-2.2l15.9-12.3l1.7,2.2l-7.5,5.8l6.3,8.2l7.5-5.8l1.7,2.2
	L235.4,581.7z"/>
<path class="st1" d="M409.5,475.8c0.3-0.9,0.4-1.8,0.4-2.7c0-3.2-1.6-6.2-4.3-8c0.9-2-0.1-4.4-2.1-5.2s-4.4,0.1-5.2,2.1
	c-0.2,0.5-0.3,1-0.3,1.5c0,0.1,0,0.2,0,0.3c-5.1,1.3-8.1,6.5-6.8,11.6s6.5,8.1,11.6,6.8c1-0.3,1.9-0.7,2.7-1.2
	c1.1,1.6,3.3,2,4.9,0.9c1.6-1.1,2-3.3,0.9-4.9C410.8,476.5,410.2,476,409.5,475.8L409.5,475.8z"/>
<path class="st1" d="M550.9,454.1c-0.6-0.7-1.2-1.3-2-1.9c-2.6-1.8-6-2.2-9-1c-0.3-0.4-0.7-0.8-1.1-1.1c-1.8-1.3-4.3-0.8-5.6,1
	s-0.8,4.3,1,5.6c0.1,0.1,0.2,0.1,0.3,0.2c-1.8,4.9,0.7,10.4,5.7,12.2c4.9,1.8,10.4-0.7,12.2-5.7c0.3-0.9,0.5-1.9,0.6-2.9
	c1.9,0,3.5-1.5,3.5-3.5s-1.5-3.5-3.5-3.5C552.2,453.4,551.5,453.7,550.9,454.1L550.9,454.1z"/>
<path class="st1" d="M440.1,575.3c3.1-4.8,2.1-11.2-2.3-14.9c1.5-1.6,1.4-4.1-0.2-5.7c-1.6-1.5-4.1-1.4-5.7,0.2
	c-0.7,0.7-1.1,1.7-1.1,2.7l0,0h-0.5c-5,0-9.5,3.2-11,8c-0.2,0-0.4,0-0.5,0c-2.2,0-4,1.8-4,4s1.8,4,4,4c0.3,0,0.6,0,0.9-0.1
	c2.3,5.7,8.6,8.5,14.4,6.5c0.7,2.1,3,3.2,5.1,2.4c2.1-0.7,3.2-3,2.4-5.1C441.4,576.5,440.8,575.8,440.1,575.3L440.1,575.3z"/>
</svg>
