<svg width="20" height="20" viewBox="0 0 20 20" fill="none" xmlns="http://www.w3.org/2000/svg">
<path d="M10 0C4.47722 0 0 4.47722 0 10C0 15.5228 4.47722 20 10 20C15.5228 20 20 15.5228 20 10C20 4.47722 15.5228 0 10 0ZM1.13889 10.5556H3.35167C3.40278 11.9478 3.64167 13.2617 4.03444 14.4444H2.31C1.63944 13.2872 1.22667 11.9672 1.13889 10.5556V10.5556ZM10.5556 4.44444V1.15611C12.0817 1.39833 13.4233 2.63111 14.3328 4.44444H10.5556ZM14.8061 5.55556C15.225 6.71278 15.4833 8.03333 15.5378 9.44444H10.5556V5.55556H14.8061ZM9.44444 1.15611V4.44444H5.66722C6.57611 2.63111 7.91833 1.39833 9.44444 1.15611ZM9.44444 5.55556V9.44444H4.46222C4.51667 8.03333 4.775 6.71278 5.19389 5.55556H9.44444ZM3.35222 9.44444H1.13889C1.22667 8.03333 1.63944 6.71278 2.30944 5.55556H4.03389C3.64222 6.73833 3.40333 8.05278 3.35222 9.44444ZM4.46222 10.5556H9.44444V14.4444H5.19389C4.775 13.2872 4.51667 11.9672 4.46222 10.5556ZM9.44444 15.5556V18.8439C7.91833 18.6011 6.57611 17.3689 5.66722 15.5556H9.44444V15.5556ZM10.5556 18.8439V15.5556H14.3333C13.4239 17.3689 12.0817 18.6011 10.5556 18.8439ZM10.5556 14.4444V10.5556H15.5383C15.4833 11.9672 15.2256 13.2872 14.8067 14.4444H10.5556ZM16.6483 10.5556H18.8606C18.7733 11.9672 18.3606 13.2872 17.69 14.4444H15.9656C16.3578 13.2617 16.5967 11.9478 16.6483 10.5556ZM16.6483 9.44444C16.5967 8.05278 16.3578 6.73833 15.9656 5.55556H17.69C18.3606 6.71278 18.7733 8.03333 18.8606 9.44444H16.6483ZM16.9328 4.44444H15.5422C15.1439 3.55333 14.65 2.76944 14.0872 2.11167C15.1922 2.685 16.1606 3.48167 16.9328 4.44444ZM5.91278 2.11167C5.34944 2.76944 4.85556 3.55333 4.45722 4.44444H3.06722C3.83944 3.48167 4.80778 2.68556 5.91278 2.11167ZM3.06722 15.5556H4.45778C4.85556 16.4467 5.34944 17.2306 5.91278 17.8878C4.80778 17.3144 3.83944 16.5183 3.06722 15.5556ZM14.0872 17.8878C14.6506 17.23 15.1439 16.4467 15.5422 15.5556H16.9328C16.1606 16.5183 15.1922 17.3144 14.0872 17.8878Z" fill="#9789C4"/>
</svg>
