<svg width="24" height="24" viewBox="0 0 24 24" fill="none" xmlns="http://www.w3.org/2000/svg">
<path d="M12 2C6.47722 2 2 6.47722 2 12C2 17.5228 6.47722 22 12 22C17.5228 22 22 17.5228 22 12C22 6.47722 17.5228 2 12 2ZM3.13889 12.5556H5.35167C5.40278 13.9478 5.64167 15.2617 6.03444 16.4444H4.31C3.63944 15.2872 3.22667 13.9672 3.13889 12.5556V12.5556ZM12.5556 6.44444V3.15611C14.0817 3.39833 15.4233 4.63111 16.3328 6.44444H12.5556ZM16.8061 7.55556C17.225 8.71278 17.4833 10.0333 17.5378 11.4444H12.5556V7.55556H16.8061ZM11.4444 3.15611V6.44444H7.66722C8.57611 4.63111 9.91833 3.39833 11.4444 3.15611ZM11.4444 7.55556V11.4444H6.46222C6.51667 10.0333 6.775 8.71278 7.19389 7.55556H11.4444ZM5.35222 11.4444H3.13889C3.22667 10.0333 3.63944 8.71278 4.30944 7.55556H6.03389C5.64222 8.73833 5.40333 10.0528 5.35222 11.4444ZM6.46222 12.5556H11.4444V16.4444H7.19389C6.775 15.2872 6.51667 13.9672 6.46222 12.5556ZM11.4444 17.5556V20.8439C9.91833 20.6011 8.57611 19.3689 7.66722 17.5556H11.4444V17.5556ZM12.5556 20.8439V17.5556H16.3333C15.4239 19.3689 14.0817 20.6011 12.5556 20.8439ZM12.5556 16.4444V12.5556H17.5383C17.4833 13.9672 17.2256 15.2872 16.8067 16.4444H12.5556ZM18.6483 12.5556H20.8606C20.7733 13.9672 20.3606 15.2872 19.69 16.4444H17.9656C18.3578 15.2617 18.5967 13.9478 18.6483 12.5556ZM18.6483 11.4444C18.5967 10.0528 18.3578 8.73833 17.9656 7.55556H19.69C20.3606 8.71278 20.7733 10.0333 20.8606 11.4444H18.6483ZM18.9328 6.44444H17.5422C17.1439 5.55333 16.65 4.76944 16.0872 4.11167C17.1922 4.685 18.1606 5.48167 18.9328 6.44444ZM7.91278 4.11167C7.34944 4.76944 6.85556 5.55333 6.45722 6.44444H5.06722C5.83944 5.48167 6.80778 4.68556 7.91278 4.11167ZM5.06722 17.5556H6.45778C6.85556 18.4467 7.34944 19.2306 7.91278 19.8878C6.80778 19.3144 5.83944 18.5183 5.06722 17.5556ZM16.0872 19.8878C16.6506 19.23 17.1439 18.4467 17.5422 17.5556H18.9328C18.1606 18.5183 17.1922 19.3144 16.0872 19.8878Z" fill="#9789C4"/>
</svg>
