<svg width="99" height="91" viewBox="0 0 99 91" fill="none" xmlns="http://www.w3.org/2000/svg">
<g clip-path="url(#clip0)">
<path d="M56.6522 27.9032L42.2798 27.9065L36.5023 12.8164L56.6522 27.9032Z" fill="#F78419" stroke="#F78419"/>
<path d="M36.5023 12.8163L62.4734 12.8066L56.6522 27.9031L36.5023 12.8163Z" fill="#F78419" stroke="#F78419"/>
<path d="M7.55798 46.2041L20.8603 38.686L27.9114 40.3496L7.55798 46.2041Z" fill="#773900" stroke="#773900"/>
<path d="M20.8603 38.6859L4.46341 34.8736L3.49353 30.9814L20.8603 38.6859Z" fill="#773900" stroke="#773900"/>
<path d="M5.13037 39.5459L20.8603 38.686L7.55795 46.2041L5.13037 39.5459Z" fill="#773900" stroke="#773900"/>
<path d="M5.13036 39.5457L4.46338 34.8735L20.8603 38.6858L5.13036 39.5457Z" fill="#773900" stroke="#773900"/>
<path d="M91.4221 46.1993L71.0491 40.3448L78.1213 38.6787L91.4221 46.1993Z" fill="#773900" stroke="#773900"/>
<path d="M78.1213 38.6785L95.4935 30.9629L94.5219 34.8587L78.1213 38.6785Z" fill="#773900" stroke="#773900"/>
<path d="M93.853 39.5353L91.4222 46.1993L78.1213 38.6787L93.853 39.5353Z" fill="#773900" stroke="#773900"/>
<path d="M93.853 39.5352L78.1213 38.6786L94.5219 34.8589L93.853 39.5352Z" fill="#773900" stroke="#773900"/>
<path d="M28.8231 82.8146L6.51753 89.7501L0.499146 67.6797L28.8231 82.8146Z" fill="#E47719" stroke="#E47719"/>
<path d="M98.5074 67.6943L92.4872 89.7809L70.1088 82.8269L98.5074 67.6943Z" fill="#E47719" stroke="#E47719"/>
<path d="M21.3126 18.3257L20.8603 38.6857L3.49353 30.9813L21.3126 18.3257Z" fill="#773900" stroke="#773900"/>
<path d="M27.9114 40.3494L20.8602 38.6858L21.3126 18.3257L27.9114 40.3494Z" fill="#773900" stroke="#773900"/>
<path d="M95.4935 30.9628L78.1214 38.6784L77.6372 18.3076L95.4935 30.9628Z" fill="#773900" stroke="#773900"/>
<path d="M77.6371 18.3076L78.1213 38.6784L71.0491 40.3445L77.6371 18.3076Z" fill="#773900" stroke="#773900"/>
<path d="M42.2798 27.9062L5.47058 0.283203L36.5023 12.8162L42.2798 27.9062Z" fill="#E47719" stroke="#E47719"/>
<path d="M93.4738 0.240234L56.6522 27.9032L62.4734 12.8068L93.4738 0.240234Z" fill="#E17719" stroke="#E17719"/>
<path d="M21.7064 48.8857L0.499146 67.6801L7.558 46.2041L21.7064 48.8857Z" fill="#F78419" stroke="#F78419"/>
<path d="M77.2115 48.8839L91.4222 46.1992L98.5074 67.6942L77.2115 48.8839Z" fill="#F78419" stroke="#F78419"/>
<path d="M0.499146 67.68L18.5957 66.6987L28.8231 82.8149L0.499146 67.68Z" fill="#E47719" stroke="#E47719"/>
<path d="M18.5957 66.6984L0.499146 67.6796L21.7064 48.8853L18.5957 66.6984Z" fill="#F78419" stroke="#F78419"/>
<path d="M70.1088 82.8267L80.3235 66.707L98.5074 67.6941L70.1088 82.8267Z" fill="#E47719" stroke="#E47719"/>
<path d="M77.2115 48.8833L98.5074 67.6937L80.3235 66.7066L77.2115 48.8833Z" fill="#F78419" stroke="#F78419"/>
<path d="M21.3126 18.3257L42.2798 27.9063L27.9114 40.3494L21.3126 18.3257Z" fill="#773900" stroke="#773900"/>
<path d="M71.0491 40.3445L56.6522 27.903L77.6371 18.3076L71.0491 40.3445Z" fill="#773900" stroke="#773900"/>
<path d="M1.39636 32.4753L3.49356 30.9814L4.46344 34.8736L1.39636 32.4753Z" fill="#773900" stroke="#773900"/>
<path d="M7.55797 46.204L3.19104 40.9155L5.1304 39.5459L7.55797 46.204Z" fill="#773900" stroke="#773900"/>
<path d="M5.13031 39.5457L2.09143 36.6745L4.46333 34.8735L5.13031 39.5457Z" fill="#773900" stroke="#773900"/>
<path d="M97.5912 32.4572L94.5219 34.8587L95.4935 30.9629L97.5912 32.4572Z" fill="#773900" stroke="#773900"/>
<path d="M91.4222 46.1992L93.853 39.5352L95.7927 40.9055L91.4222 46.1992Z" fill="#773900" stroke="#773900"/>
<path d="M93.8529 39.5352L94.5218 34.8589L96.8942 36.6607L93.8529 39.5352Z" fill="#773900" stroke="#773900"/>
<path d="M3.49354 30.9816L0.460327 15.0503L21.3126 18.3259L3.49354 30.9816Z" fill="#773900" stroke="#773900"/>
<path d="M77.6372 18.3077L98.515 15.0156L95.4935 30.9629L77.6372 18.3077Z" fill="#773900" stroke="#773900"/>
<path d="M7.55798 46.204L27.9114 40.3496L21.7064 48.8856L7.55798 46.204Z" fill="#F78419" stroke="#F78419"/>
<path d="M91.4221 46.1992L77.2115 48.8838L71.0491 40.3447L91.4221 46.1992Z" fill="#F78419" stroke="#F78419"/>
<path d="M27.9114 40.3493L42.2798 27.9062L43.5132 49.5342L27.9114 40.3493Z" fill="#E47719" stroke="#E47719"/>
<path d="M43.5132 49.5345L21.7063 48.8856L27.9114 40.3496L43.5132 49.5345Z" fill="#E47719" stroke="#E47719"/>
<path d="M71.049 40.3447L77.2115 48.8838L55.3717 49.5342L71.049 40.3447Z" fill="#E47719" stroke="#E47719"/>
<path d="M55.3717 49.5338L56.6522 27.9028L71.049 40.3443L55.3717 49.5338Z" fill="#E47719" stroke="#E47719"/>
<path d="M5.47058 0.283203L42.2798 27.9062L21.3126 18.3256L5.47058 0.283203Z" fill="#773900" stroke="#773900"/>
<path d="M21.3126 18.3256L0.460327 15.05L5.47065 0.283203L21.3126 18.3256Z" fill="#773900" stroke="#773900"/>
<path d="M93.4739 0.240234L98.515 15.0157L77.6372 18.3078L93.4739 0.240234Z" fill="#773900" stroke="#773900"/>
<path d="M77.6371 18.3078L56.6522 27.9032L93.4738 0.240234L77.6371 18.3078Z" fill="#773900" stroke="#773900"/>
<path d="M42.2798 27.9061L56.6522 27.9028L55.3717 49.5338L42.2798 27.9061Z" fill="#F78419" stroke="#F78419"/>
<path d="M55.3717 49.5339L43.5132 49.5342L42.2798 27.9062L55.3717 49.5339Z" fill="#F78419" stroke="#F78419"/>
<path d="M28.823 82.8151L18.5957 66.6989L30.742 66.5884L28.823 82.8151Z" fill="#CD6200" stroke="#CD6200"/>
<path d="M70.1088 82.8263L68.1487 66.5928L80.3235 66.7066L70.1088 82.8263Z" fill="#CD6200" stroke="#CD6200"/>
<path d="M33.1077 85.9581L28.823 82.8149L41.1348 86.8828L33.1077 85.9581Z" fill="#C0AC9D" stroke="#C0AC9D"/>
<path d="M57.6721 86.8881L70.1088 82.8267L65.7944 85.9683L57.6721 86.8881Z" fill="#C0AC9D" stroke="#C0AC9D"/>
<path d="M30.4693 57.6899L21.7063 48.8853L43.5132 49.5341L30.4693 57.6899Z" fill="#CD6200" stroke="#CD6200"/>
<path d="M21.7063 48.8853L30.4693 57.6899L30.7419 66.5878L21.7063 48.8853Z" fill="#E47424" stroke="#E47424"/>
<path d="M21.7064 48.8853L30.742 66.5878L18.5957 66.6984L21.7064 48.8853Z" fill="#F78419" stroke="#F78419"/>
<path d="M55.3717 49.5337L77.2115 48.8833L68.4275 57.6917L55.3717 49.5337Z" fill="#CD6200" stroke="#CD6200"/>
<path d="M77.2115 48.8833L68.1487 66.5927L68.4276 57.6916L77.2115 48.8833Z" fill="#E47424" stroke="#E47424"/>
<path d="M80.3235 66.7066L68.1487 66.5927L77.2115 48.8833L80.3235 66.7066Z" fill="#F78419" stroke="#F78419"/>
<path d="M41.0285 82.7827L41.1348 86.8828L28.823 82.8149L41.0285 82.7827Z" fill="#D6C2B2" stroke="#D6C2B2"/>
<path d="M57.7544 82.7871L70.1088 82.8263L57.6721 86.8877L57.7544 82.7871Z" fill="#D6C2B2" stroke="#D6C2B2"/>
<path d="M28.823 82.8148L42.0807 73.9238L41.0285 82.7826L28.823 82.8148Z" fill="#D6C2B2" stroke="#D6C2B2"/>
<path d="M42.0807 73.9242L28.823 82.8151L30.742 66.5884L42.0807 73.9242Z" fill="#E47719" stroke="#E47719"/>
<path d="M70.1087 82.8266L57.7543 82.7874L56.6979 73.9268L70.1087 82.8266Z" fill="#D6C2B2" stroke="#D6C2B2"/>
<path d="M56.6979 73.9265L68.1486 66.5928L70.1087 82.8263L56.6979 73.9265Z" fill="#E47719" stroke="#E47719"/>
<path d="M43.5133 49.5342L38.2553 54.0934L30.4694 57.6899L43.5133 49.5342Z" fill="#CD6200" stroke="#CD6200"/>
<path d="M68.4275 57.6922L60.6348 54.0941L55.3717 49.5342L68.4275 57.6922Z" fill="#CD6200" stroke="#CD6200"/>
<path d="M41.4732 60.7443L30.4694 57.6903L38.2553 54.0938L41.4732 60.7443Z" fill="#243343" stroke="#243343"/>
<path d="M30.742 66.5879L30.4694 57.6899L41.4732 60.7439L30.742 66.5879Z" fill="#F78419" stroke="#F78419"/>
<path d="M57.4041 60.7457L60.6348 54.0942L68.4276 57.6923L57.4041 60.7457Z" fill="#243343" stroke="#243343"/>
<path d="M68.1487 66.593L57.4041 60.7452L68.4276 57.6919L68.1487 66.593Z" fill="#F78419" stroke="#F78419"/>
<path d="M38.2552 54.0934L43.5133 49.5342L41.4732 60.7439L38.2552 54.0934Z" fill="#CD6200" stroke="#CD6200"/>
<path d="M60.6348 54.0941L57.404 60.7455L55.3717 49.5342L60.6348 54.0941Z" fill="#CD6200" stroke="#CD6200"/>
<path d="M41.4733 60.7439L43.5133 49.5342L43.9905 56.3658L41.4733 60.7439Z" fill="#E47424" stroke="#E47424"/>
<path d="M43.9905 56.3661L43.5133 49.5345L55.3718 49.5342L43.9905 56.3661Z" fill="#F78419" stroke="#F78419"/>
<path d="M55.3718 49.5342L54.876 56.3665L43.9905 56.3661L55.3718 49.5342Z" fill="#F78419" stroke="#F78419"/>
<path d="M57.4041 60.7455L54.8761 56.3665L55.3718 49.5342L57.4041 60.7455Z" fill="#E17719" stroke="#E17719"/>
<path d="M41.1348 86.8827L41.8633 90.6157L33.1077 85.958L41.1348 86.8827Z" fill="#C0AC9D" stroke="#C0AC9D"/>
<path d="M65.7944 85.9683L56.938 90.621L57.6721 86.888L65.7944 85.9683Z" fill="#C0AC9D" stroke="#C0AC9D"/>
<path d="M42.0807 73.9239L30.7419 66.5881L41.4732 60.7441L42.0807 73.9239Z" fill="#F78419" stroke="#F78419"/>
<path d="M57.404 60.7451L68.1486 66.5928L56.6979 73.9266L57.404 60.7451Z" fill="#F78419" stroke="#F78419"/>
<path d="M43.9905 56.3662L43.9645 72.6111L41.4733 60.7443L43.9905 56.3662Z" fill="#E47424" stroke="#E47424"/>
<path d="M41.4733 60.7441L43.9645 72.6109L42.0808 73.9239L41.4733 60.7441Z" fill="#F78419" stroke="#F78419"/>
<path d="M54.876 56.3662L57.404 60.7452L54.8137 72.6128L54.876 56.3662Z" fill="#E47424" stroke="#E47424"/>
<path d="M56.6979 73.9266L54.8137 72.6127L57.404 60.7451L56.6979 73.9266Z" fill="#F78419" stroke="#F78419"/>
<path d="M43.9905 56.3662L54.876 56.3666L54.8138 72.6132L43.9905 56.3662Z" fill="#F78419" stroke="#F78419"/>
<path d="M54.8138 72.6132L43.9645 72.6111L43.9905 56.3662L54.8138 72.6132Z" fill="#F78419" stroke="#F78419"/>
<path d="M41.8633 90.6157L41.1347 86.8828L41.0284 82.7827L41.8633 90.6157Z" fill="#C0AC9D" stroke="#C0AC9D"/>
<path d="M57.7543 82.7871L57.6721 86.8877L56.938 90.6207L57.7543 82.7871Z" fill="#C0AC9D" stroke="#C0AC9D"/>
<path d="M41.0284 82.7828L41.991 81.7026L41.8633 90.6158L41.0284 82.7828Z" fill="#C0AC9D" stroke="#C0AC9D"/>
<path d="M41.8634 90.6158L41.9911 81.7026L56.7802 81.7067L41.8634 90.6158Z" fill="#C0AC9D" stroke="#C0AC9D"/>
<path d="M56.7802 81.7065L56.938 90.6211L41.8634 90.6156L56.7802 81.7065Z" fill="#C0AC9D" stroke="#C0AC9D"/>
<path d="M56.938 90.6211L56.7802 81.7065L57.7543 82.7875L56.938 90.6211Z" fill="#C0AC9D" stroke="#C0AC9D"/>
<path d="M41.991 81.7024L41.0284 82.7826L42.0807 73.9238L41.991 81.7024Z" fill="black" stroke="black"/>
<path d="M56.6979 73.9268L57.7543 82.7874L56.7801 81.7065L56.6979 73.9268Z" fill="black" stroke="black"/>
<path d="M42.0807 73.9238L42.6479 75.4128L41.991 81.7024L42.0807 73.9238Z" fill="black" stroke="black"/>
<path d="M42.0807 73.9238L43.9644 72.6108L43.8519 74.0521L42.0807 73.9238Z" fill="black" stroke="black"/>
<path d="M43.8519 74.0521L42.6479 75.4128L42.0807 73.9238L43.8519 74.0521Z" fill="black" stroke="black"/>
<path d="M43.8521 74.0521L43.9645 72.6108L54.8138 72.6129L43.8521 74.0521Z" fill="black" stroke="black"/>
<path d="M56.7801 81.7065L56.1078 75.4157L56.6979 73.9268L56.7801 81.7065Z" fill="black" stroke="black"/>
<path d="M56.6979 73.9268L56.1078 75.4157L54.9034 74.0544L56.6979 73.9268Z" fill="black" stroke="black"/>
<path d="M54.9034 74.0543L54.8137 72.6128L56.6979 73.9267L54.9034 74.0543Z" fill="black" stroke="black"/>
<path d="M54.8138 72.6128L54.9035 74.0543L43.8521 74.052L54.8138 72.6128Z" fill="black" stroke="black"/>
<path d="M56.7801 81.7068L41.991 81.7027L42.6479 75.4131L56.7801 81.7068Z" fill="black" stroke="black"/>
<path d="M42.6479 75.4131L56.1078 75.416L56.7802 81.7068L42.6479 75.4131Z" fill="black" stroke="black"/>
<path d="M54.9035 74.0547L56.1078 75.416L42.6479 75.4131L54.9035 74.0547Z" fill="black" stroke="black"/>
<path d="M42.6479 75.4129L43.852 74.0522L54.9035 74.0545L42.6479 75.4129Z" fill="black" stroke="black"/>
</g>
<defs>
<clipPath id="clip0">
<rect width="99" height="91" fill="white"/>
</clipPath>
</defs>
</svg>
