<svg width="22" height="22" viewBox="0 0 34 34" fill="none" xmlns="http://www.w3.org/2000/svg">
<path d="M16.9987 31.1667C9.17445 31.1667 2.83203 24.8243 2.83203 17C2.83203 9.17579 9.17445 2.83337 16.9987 2.83337C24.8229 2.83337 31.1654 9.17579 31.1654 17C31.1654 24.8243 24.8229 31.1667 16.9987 31.1667ZM16.9987 28.3334C20.0045 28.3334 22.8872 27.1393 25.0126 25.0139C27.138 22.8885 28.332 20.0058 28.332 17C28.332 13.9943 27.138 11.1116 25.0126 8.98616C22.8872 6.86075 20.0045 5.66671 16.9987 5.66671C13.9929 5.66671 11.1102 6.86075 8.98482 8.98616C6.85941 11.1116 5.66536 13.9943 5.66536 17C5.66536 20.0058 6.85941 22.8885 8.98482 25.0139C11.1102 27.1393 13.9929 28.3334 16.9987 28.3334ZM15.5863 22.6667L9.57536 16.6558L11.5785 14.6526L15.5863 18.6604L23.5989 10.6463L25.6035 12.6495L15.5863 22.6667Z" fill="#FFFFFE"/>
</svg>
