<svg width="100" height="100" viewBox="0 0 100 100" fill="none" xmlns="http://www.w3.org/2000/svg">
<path d="M50 100C77.6142 100 100 77.6142 100 50C100 22.3858 77.6142 0 50 0C22.3858 0 0 22.3858 0 50C0 77.6142 22.3858 100 50 100Z" fill="#FF0420"/>
<path d="M35.4266 63.2893C32.4494 63.2893 30.0102 62.5887 28.1088 61.1877C26.2324 59.7617 25.2942 57.7353 25.2942 55.1083C25.2942 54.5579 25.3568 53.8823 25.4818 53.0817C25.8072 51.2805 26.27 49.1163 26.8704 46.5895C28.5716 39.7095 32.9624 36.2695 40.0426 36.2695C41.969 36.2695 43.6952 36.5947 45.2214 37.2451C46.7476 37.8705 47.9484 38.8213 48.824 40.0973C49.6996 41.3481 50.1376 42.8493 50.1376 44.6005C50.1376 45.1259 50.075 45.7889 49.9498 46.5895C49.5746 48.8161 49.1242 50.9803 48.5988 53.0817C47.7232 56.5093 46.2096 59.0737 44.058 60.7749C41.9064 62.4511 39.0294 63.2893 35.4266 63.2893ZM35.952 57.8853C37.3532 57.8853 38.5414 57.4725 39.5172 56.6469C40.518 55.8213 41.231 54.5579 41.6562 52.8567C42.2316 50.5049 42.6696 48.4533 42.9698 46.7021C43.0698 46.1767 43.1198 45.6389 43.1198 45.0883C43.1198 42.8117 41.9314 41.6733 39.5548 41.6733C38.1536 41.6733 36.9528 42.0861 35.952 42.9117C34.9764 43.7375 34.2758 45.0009 33.8506 46.7021C33.4002 48.3783 32.9498 50.4299 32.4996 52.8567C32.3994 53.3569 32.3494 53.8823 32.3494 54.4327C32.3494 56.7345 33.5504 57.8853 35.952 57.8853Z" fill="white"/>
<path d="M51.8607 62.9142C51.5855 62.9142 51.3727 62.8266 51.2227 62.6514C51.0975 62.4512 51.0601 62.2262 51.1101 61.976L56.2889 37.583C56.3389 37.3078 56.4765 37.0826 56.7017 36.9074C56.9269 36.7324 57.1645 36.6448 57.4147 36.6448H67.3971C70.1741 36.6448 72.4007 37.2202 74.0769 38.371C75.7783 39.522 76.6289 41.1856 76.6289 43.3622C76.6289 43.9876 76.5539 44.6382 76.4037 45.3136C75.7783 48.1908 74.5149 50.3174 72.6135 51.6934C70.7371 53.0694 68.1601 53.7574 64.8827 53.7574H59.8165L58.0903 61.976C58.0401 62.2512 57.9025 62.4762 57.6775 62.6514C57.4523 62.8266 57.2145 62.9142 56.9645 62.9142H51.8607ZM65.1455 48.5786C66.1961 48.5786 67.1093 48.2908 67.8849 47.7154C68.6855 47.14 69.2109 46.3144 69.4611 45.2386C69.5361 44.8132 69.5737 44.438 69.5737 44.1128C69.5737 43.3872 69.3611 42.8368 68.9357 42.4616C68.5103 42.0612 67.7849 41.8612 66.7591 41.8612H62.2557L60.8297 48.5786H65.1455Z" fill="white"/>
</svg>
