<svg width="100" height="100" viewBox="0 0 100 100" fill="none" xmlns="http://www.w3.org/2000/svg">
<circle cx="50" cy="50" r="50" fill="#8247E5"/>
<path d="M66.5498 39.3023C65.3506 38.6047 63.7915 38.6047 62.4723 39.3023L53.1181 44.6512L46.762 48.1395L37.4077 53.4884C36.2085 54.186 34.6494 54.186 33.3303 53.4884L25.8948 49.3023C24.6956 48.6046 23.8561 47.3256 23.8561 45.9302V37.6744C23.8561 36.2791 24.5756 35 25.8948 34.3023L33.2103 30.2326C34.4096 29.5349 35.9686 29.5349 37.2878 30.2326L44.6033 34.3023C45.8026 35 46.6421 36.2791 46.6421 37.6744V43.0233L52.9982 39.4186V34.0698C52.9982 32.6744 52.2786 31.3953 50.9594 30.6977L37.4077 23.0233C36.2085 22.3256 34.6494 22.3256 33.3303 23.0233L19.5387 30.6977C18.2196 31.3953 17.5 32.6744 17.5 34.0698V49.5349C17.5 50.9302 18.2196 52.2093 19.5387 52.907L33.3303 60.5814C34.5295 61.2791 36.0886 61.2791 37.4077 60.5814L46.762 55.3488L53.1181 51.7442L62.4723 46.5116C63.6716 45.814 65.2306 45.814 66.5498 46.5116L73.8653 50.5814C75.0646 51.2791 75.9041 52.5581 75.9041 53.9535V62.2093C75.9041 63.6046 75.1845 64.8837 73.8653 65.5814L66.5498 69.7674C65.3506 70.4651 63.7915 70.4651 62.4723 69.7674L55.1568 65.6977C53.9576 65 53.1181 63.7209 53.1181 62.3256V56.9767L46.762 60.5814V65.9302C46.762 67.3256 47.4815 68.6047 48.8007 69.3023L62.5923 76.9767C63.7915 77.6744 65.3506 77.6744 66.6697 76.9767L80.4613 69.3023C81.6605 68.6047 82.5 67.3256 82.5 65.9302V50.4651C82.5 49.0698 81.7804 47.7907 80.4613 47.093L66.5498 39.3023Z" fill="white"/>
</svg>
