<svg id="Layer_1" data-name="Layer 1" xmlns="http://www.w3.org/2000/svg" viewBox="0 0 17 18.2"><defs><style>.cls-1{fill:#7375a6;}</style></defs><title>Vector_full</title><path class="cls-1" d="M16.23,3H12.56a.2.2,0,0,1-.14-.05.18.18,0,0,1-.06-.13V1.87A1.85,1.85,0,0,0,11.8.55,2,2,0,0,0,10.43,0H6.57A2,2,0,0,0,5.2.55a1.85,1.85,0,0,0-.57,1.33v.94a.18.18,0,0,1-.06.13A.2.2,0,0,1,4.44,3H.77a.78.78,0,0,0-.55.22.73.73,0,0,0,0,1.06.78.78,0,0,0,.55.22H16.23a.78.78,0,0,0,.55-.22.73.73,0,0,0,0-1.06A.78.78,0,0,0,16.23,3Zm-10-.19V1.87a.37.37,0,0,1,.11-.27.39.39,0,0,1,.27-.11h3.86a.39.39,0,0,1,.27.11.37.37,0,0,1,.11.27v.94a.18.18,0,0,1-.06.13.2.2,0,0,1-.14.05H6.38a.2.2,0,0,1-.14-.05A.18.18,0,0,1,6.18,2.81Z" transform="translate(0 0)"/><path class="cls-1" d="M14.3,5.82H2.7a.39.39,0,0,0-.27.11.37.37,0,0,0-.11.27V16.7a1.48,1.48,0,0,0,.45,1.06,1.57,1.57,0,0,0,1.09.44h9.27a1.57,1.57,0,0,0,1.09-.44,1.48,1.48,0,0,0,.45-1.06V6.2a.37.37,0,0,0-.11-.27A.39.39,0,0,0,14.3,5.82ZM7.15,15.57A.55.55,0,0,1,7,16a.59.59,0,0,1-.82,0,.55.55,0,0,1-.17-.4V8.82a.55.55,0,0,1,.17-.4.59.59,0,0,1,.82,0,.55.55,0,0,1,.17.4Zm3.86,0a.55.55,0,0,1-.17.4A.59.59,0,0,1,10,16a.55.55,0,0,1-.17-.4V8.82a.55.55,0,0,1,.17-.4.59.59,0,0,1,.82,0,.55.55,0,0,1,.17.4Z" transform="translate(0 0)"/></svg>