<svg width="20" height="20" viewBox="0 0 20 20" fill="none" xmlns="http://www.w3.org/2000/svg">
<path d="M19.5102 17.1592L15.6393 13.2884C16.8179 11.5241 17.2982 9.38451 16.9866 7.28577C16.675 5.18702 15.5939 3.2792 13.9536 1.93341C12.3133 0.587613 10.231 -0.0999327 8.11187 0.00450908C5.9927 0.108951 3.98814 0.997913 2.4881 2.49848C0.988066 3.99904 0.0998136 6.00392 -0.00387895 8.12313C-0.107572 10.2423 0.58071 12.3244 1.92709 13.9642C3.27346 15.604 5.18166 16.6844 7.28051 16.9953C9.37937 17.3061 11.5188 16.8251 13.2827 15.6459L17.1535 19.5159C17.4687 19.8233 17.8915 19.9954 18.3318 19.9954C18.7721 19.9954 19.195 19.8233 19.5102 19.5159C19.8226 19.2033 19.9981 18.7795 19.9981 18.3376C19.9981 17.8956 19.8226 17.4718 19.5102 17.1592ZM8.54017 2.50423C9.7351 2.50423 10.9032 2.85856 11.8967 3.52243C12.8903 4.1863 13.6647 5.12988 14.1219 6.23385C14.5792 7.33782 14.6989 8.5526 14.4657 9.72457C14.2326 10.8965 13.6572 11.9731 12.8123 12.818C11.9673 13.6629 10.8908 14.2384 9.71884 14.4715C8.54687 14.7046 7.33209 14.5849 6.22812 14.1277C5.12415 13.6704 4.18057 12.896 3.5167 11.9025C2.85284 10.9089 2.4985 9.74082 2.4985 8.54589C2.50026 6.94409 3.13736 5.40839 4.27001 4.27574C5.40266 3.14309 6.93836 2.50599 8.54017 2.50423Z" fill="#91A4C8"/>
</svg>
