<svg width="18" height="18" viewBox="0 0 18 18" fill="none" xmlns="http://www.w3.org/2000/svg">
<path d="M9 13.5C7.80653 13.5 6.66193 13.0259 5.81802 12.182C4.97411 11.3381 4.5 10.1935 4.5 9C4.5 7.80653 4.97411 6.66193 5.81802 5.81802C6.66193 4.97411 7.80653 4.5 9 4.5C10.1935 4.5 11.3381 4.97411 12.182 5.81802C13.0259 6.66193 13.5 7.80653 13.5 9C13.5 10.1935 13.0259 11.3381 12.182 12.182C11.3381 13.0259 10.1935 13.5 9 13.5ZM9 12C9.79565 12 10.5587 11.6839 11.1213 11.1213C11.6839 10.5587 12 9.79565 12 9C12 8.20435 11.6839 7.44129 11.1213 6.87868C10.5587 6.31607 9.79565 6 9 6C8.20435 6 7.44129 6.31607 6.87868 6.87868C6.31607 7.44129 6 8.20435 6 9C6 9.79565 6.31607 10.5587 6.87868 11.1213C7.44129 11.6839 8.20435 12 9 12ZM8.25 0.75H9.75V3H8.25V0.75ZM8.25 15H9.75V17.25H8.25V15ZM2.63625 3.69675L3.69675 2.63625L5.2875 4.227L4.227 5.2875L2.63625 3.6975V3.69675ZM12.7125 13.773L13.773 12.7125L15.3638 14.3032L14.3032 15.3638L12.7125 13.773ZM14.3032 2.6355L15.3638 3.69675L13.773 5.2875L12.7125 4.227L14.3032 2.63625V2.6355ZM4.227 12.7125L5.2875 13.773L3.69675 15.3638L2.63625 14.3032L4.227 12.7125ZM17.25 8.25V9.75H15V8.25H17.25ZM3 8.25V9.75H0.75V8.25H3Z" fill="#FFFFFE"/>
</svg>
