<svg width="24" height="24" viewBox="0 0 24 24" fill="none" xmlns="http://www.w3.org/2000/svg">
<path fill-rule="evenodd" clip-rule="evenodd" d="M12 2C17.5191 2 22 6.48086 22 12C22 17.5191 17.5191 22 12 22C6.48086 22 2 17.5191 2 12C2 6.48086 6.48086 2 12 2ZM10.2386 17.3187C14.6637 17.3187 17.0833 13.6519 17.0833 10.474C17.0833 10.3693 17.0833 10.2645 17.0783 10.1647C17.5473 9.82547 17.9564 9.40141 18.2806 8.9175C17.8516 9.10707 17.3876 9.2368 16.8987 9.29664C17.3976 8.9973 17.7768 8.52836 17.9564 7.96465C17.4924 8.23902 16.9786 8.43855 16.4298 8.54832C15.9907 8.07937 15.3671 7.79004 14.6737 7.79004C13.3467 7.79004 12.2691 8.86762 12.2691 10.1946C12.2691 10.3842 12.2891 10.5688 12.3339 10.7434C10.3334 10.6436 8.56238 9.68578 7.37508 8.22902C7.17051 8.58324 7.05078 8.9973 7.05078 9.43633C7.05078 10.2695 7.47484 11.0078 8.1234 11.4368C7.72926 11.4269 7.36008 11.3171 7.03582 11.1375V11.1675C7.03582 12.3348 7.86395 13.3027 8.96648 13.5272C8.76695 13.582 8.55242 13.612 8.33293 13.612C8.17824 13.612 8.02859 13.597 7.87895 13.5671C8.18324 14.5249 9.07125 15.2184 10.1239 15.2383C9.30074 15.8819 8.26309 16.2661 7.13559 16.2661C6.94102 16.2661 6.75145 16.2561 6.56187 16.2311C7.61453 16.9196 8.88168 17.3187 10.2386 17.3187V17.3187Z" fill="#9789C4"/>
</svg>
