<svg width="100" height="100" viewBox="0 0 100 100" fill="none" xmlns="http://www.w3.org/2000/svg">
<path d="M50 100C77.7085 100 100 77.7085 100 50C100 22.2915 77.7085 0 50 0C22.2915 0 0 22.2915 0 50C0 77.7085 22.2915 100 50 100Z" fill="#2775CA"/>
<path d="M63.7499 57.9165C63.7499 50.625 59.3749 48.125 50.625 47.0835C44.375 46.25 43.125 44.5835 43.125 41.6665C43.125 38.7495 45.2085 36.875 49.375 36.875C53.125 36.875 55.2085 38.125 56.25 41.25C56.4585 41.875 57.0835 42.2915 57.7085 42.2915H61.0414C61.8749 42.2915 62.4999 41.6665 62.4999 40.8335V40.625C61.6664 36.0415 57.9165 32.5 53.125 32.0835V27.0835C53.125 26.25 52.5 25.625 51.4585 25.4165H48.3335C47.5 25.4165 46.875 26.0415 46.6665 27.0835V31.875C40.4165 32.7085 36.4585 36.875 36.4585 42.0835C36.4585 48.9585 40.625 51.6665 49.375 52.7085C55.2085 53.75 57.0835 55 57.0835 58.3335C57.0835 61.667 54.1665 63.9585 50.2085 63.9585C44.7915 63.9585 42.9165 61.6665 42.2915 58.5415C42.0835 57.7085 41.4585 57.2915 40.8335 57.2915H37.2915C36.4585 57.2915 35.8335 57.9165 35.8335 58.75V58.9585C36.6665 64.1665 40 67.9165 46.875 68.9585V73.9585C46.875 74.7915 47.5 75.4165 48.5415 75.625H51.6665C52.5 75.625 53.125 75 53.3335 73.9585V68.9585C59.5834 67.9165 63.7499 63.5415 63.7499 57.9165V57.9165Z" fill="white"/>
<path d="M39.3752 79.7915C23.1252 73.9585 14.7917 55.8335 20.8337 39.7915C23.9587 31.0415 30.8337 24.375 39.3752 21.25C40.2087 20.8335 40.6252 20.2085 40.6252 19.1665V16.25C40.6252 15.4165 40.2087 14.7915 39.3752 14.5835C39.1667 14.5835 38.7502 14.5835 38.5417 14.7915C18.7502 21.0415 7.91666 42.0835 14.1667 61.875C17.9167 73.5415 26.8752 82.5 38.5417 86.25C39.3752 86.6665 40.2087 86.25 40.4167 85.4165C40.6252 85.2085 40.6252 85 40.6252 84.5835V81.6665C40.6252 81.0415 40.0002 80.2085 39.3752 79.7915ZM61.4587 14.7915C60.6252 14.375 59.7917 14.7915 59.5837 15.625C59.3752 15.8335 59.3752 16.0415 59.3752 16.4585V19.375C59.3752 20.2085 60.0002 21.0415 60.6252 21.4585C76.8752 27.2915 85.2087 45.4165 79.1667 61.4585C76.0417 70.2085 69.1667 76.875 60.6252 80C59.7917 80.4165 59.3752 81.0415 59.3752 82.0835V85C59.3752 85.8335 59.7917 86.4585 60.6252 86.6665C60.8337 86.6665 61.2502 86.6665 61.4587 86.4585C81.2502 80.2085 92.0837 59.1665 85.8337 39.375C82.0837 27.5 72.9167 18.5415 61.4587 14.7915V14.7915Z" fill="white"/>
</svg>
