<svg width="100" height="62" viewBox="0 0 100 62" fill="none" xmlns="http://www.w3.org/2000/svg">
<path d="M20.4795 12.1505C36.7832 -3.89848 63.2168 -3.89848 79.5206 12.1505L81.4827 14.082C82.2979 14.8845 82.2979 16.1855 81.4827 16.988L74.7705 23.5953C74.3629 23.9966 73.7021 23.9966 73.2945 23.5953L70.5943 20.9373C59.2204 9.74114 40.7797 9.74114 29.4058 20.9373L26.5141 23.7838C26.1065 24.1851 25.4456 24.1851 25.038 23.7838L18.3258 17.1765C17.5106 16.374 17.5106 15.073 18.3258 14.2705L20.4795 12.1505ZM93.4021 25.8152L99.376 31.6958C100.191 32.4983 100.191 33.7993 99.376 34.6017L72.4393 61.118C71.6241 61.9205 70.3024 61.9205 69.4872 61.118C69.4872 61.118 69.4872 61.118 69.4872 61.118L50.3692 42.2987C50.1654 42.098 49.8349 42.098 49.6311 42.2987C49.6312 42.2987 49.6311 42.2987 49.6311 42.2987L30.5135 61.118C29.6983 61.9205 28.3766 61.9205 27.5615 61.118C27.5615 61.1181 27.5614 61.118 27.5615 61.118L0.623963 34.6014C-0.191223 33.799 -0.191223 32.4979 0.623963 31.6955L6.59787 25.8149C7.41306 25.0125 8.73474 25.0125 9.54993 25.8149L28.6683 44.6345C28.872 44.8351 29.2025 44.8351 29.4063 44.6345C29.4063 44.6345 29.4063 44.6345 29.4063 44.6345L48.5236 25.8149C49.3388 25.0124 50.6605 25.0124 51.4757 25.8148C51.4757 25.8148 51.4757 25.8148 51.4757 25.8148L70.594 44.6345C70.7978 44.8351 71.1282 44.8351 71.332 44.6345L90.45 25.8152C91.2652 25.0128 92.5869 25.0128 93.4021 25.8152Z" fill="#3B99FC"/>
</svg>
