<svg width="16" height="16" viewBox="0 0 24 24" fill="none" xmlns="http://www.w3.org/2000/svg">
<path d="M12.8646 2.99999L22.3906 19.5C22.4784 19.652 22.5246 19.8244 22.5246 20C22.5246 20.1755 22.4784 20.348 22.3906 20.5C22.3029 20.652 22.1766 20.7782 22.0246 20.866C21.8726 20.9538 21.7002 21 21.5246 21H2.47263C2.2971 21 2.12466 20.9538 1.97264 20.866C1.82062 20.7782 1.69439 20.652 1.60662 20.5C1.51886 20.348 1.47266 20.1755 1.47266 20C1.47266 19.8244 1.51886 19.652 1.60663 19.5L11.1326 2.99999C11.2204 2.84798 11.3466 2.72175 11.4987 2.63399C11.6507 2.54623 11.8231 2.50003 11.9986 2.50003C12.1742 2.50003 12.3466 2.54623 12.4986 2.63399C12.6506 2.72175 12.7769 2.84798 12.8646 2.99999ZM10.9986 16V18H12.9986V16H10.9986ZM10.9986 8.99999V14H12.9986V8.99999H10.9986Z" fill="#D54679"/>
</svg>
