<svg width="80" height="71" viewBox="0 0 80 71" fill="none" xmlns="http://www.w3.org/2000/svg">
<path d="M77 7C77 27.3696 60.4346 43.8824 40 43.8824C19.5655 43.8824 3 27.3696 3 7H21.5C21.5 17.1848 29.7828 25.4412 40 25.4412C50.2172 25.4412 58.5 17.1848 58.5 7H77Z" fill="#FFAA46"/>
<path d="M77 63.4082C77 43.0387 60.4346 26.5258 40 26.5258C19.5655 26.5258 3 43.0387 3 63.4082H21.5C21.5 53.2234 29.7828 44.967 40 44.967C50.2172 44.967 58.5 53.2234 58.5 63.4082H77Z" fill="#EE5A3F"/>
<path d="M16.0588 35.2041C22.4393 29.8031 30.8206 26.5258 40 26.5258C49.1794 26.5258 57.5607 29.8031 63.9412 35.2041C57.5607 40.605 49.1794 43.8823 40 43.8823C30.8206 43.8823 22.4393 40.605 16.0588 35.2041Z" fill="#7F38A9"/>
</svg>
